Norican.ufo
<glyph name="exclam" format="1">
  <advance width="608"/>
  <unicode hex="0021"/>
  <outline>
    <component base="period" xOffset="66"/>
    <contour>
      <point x="371" y="379" type="curve"/>
      <point x="375" y="395"/>
      <point x="741" y="1384"/>
      <point x="741" y="1464" type="curve" smooth="yes"/>
      <point x="741" y="1497"/>
      <point x="731" y="1518"/>
      <point x="709" y="1518" type="curve" smooth="yes"/>
      <point x="526" y="1518" type="line" smooth="yes"/>
      <point x="477" y="1518"/>
      <point x="459" y="1370"/>
      <point x="449" y="1296" type="curve"/>
      <point x="297" y="434" type="line" smooth="yes"/>
      <point x="295" y="422"/>
      <point x="295" y="410"/>
      <point x="295" y="397" type="curve" smooth="yes"/>
      <point x="295" y="381"/>
      <point x="297" y="369"/>
      <point x="317" y="369" type="curve" smooth="yes"/>
      <point x="319" y="369"/>
      <point x="356" y="373"/>
    </contour>
  </outline>
</glyph>
<glyph name="quotedbl" format="1">
  <advance width="678"/>
  <unicode hex="0022"/>
  <outline>
    <contour>
      <point x="309" y="1403" type="curve"/>
      <point x="322" y="1436"/>
      <point x="330" y="1464"/>
      <point x="330" y="1487" type="curve" smooth="yes"/>
      <point x="330" y="1526"/>
      <point x="307" y="1538"/>
      <point x="201" y="1538" type="curve" smooth="yes"/>
      <point x="111" y="1538"/>
      <point x="135" y="1221"/>
      <point x="131" y="1083" type="curve"/>
      <point x="186" y="1083" type="line"/>
      <point x="209" y="1139"/>
      <point x="256" y="1280"/>
    </contour>
    <contour>
      <point x="578" y="1403" type="curve"/>
      <point x="590" y="1436"/>
      <point x="598" y="1464"/>
      <point x="598" y="1487" type="curve" smooth="yes"/>
      <point x="598" y="1526"/>
      <point x="575" y="1538"/>
      <point x="469" y="1538" type="curve" smooth="yes"/>
      <point x="379" y="1538"/>
      <point x="403" y="1221"/>
      <point x="399" y="1083" type="curve"/>
      <point x="455" y="1083" type="line"/>
      <point x="477" y="1139"/>
      <point x="524" y="1280"/>
    </contour>
  </outline>
</glyph>
<glyph name="numbersign" format="1">
  <advance width="1069"/>
  <unicode hex="0023"/>
  <outline>
    <contour>
      <point x="367" y="1374" type="curve"/>
      <point x="360" y="1358"/>
      <point x="330" y="1169"/>
      <point x="289" y="940" type="curve"/>
      <point x="121" y="932"/>
      <point x="82" y="950"/>
      <point x="82" y="844" type="curve" smooth="yes"/>
      <point x="82" y="801"/>
      <point x="129" y="803"/>
      <point x="139" y="803" type="curve" smooth="yes"/>
      <point x="186" y="805"/>
      <point x="223" y="807"/>
      <point x="264" y="807" type="curve"/>
      <point x="233" y="633" type="line"/>
      <point x="86" y="623" type="line"/>
      <point x="66" y="616"/>
      <point x="37" y="600"/>
      <point x="37" y="537" type="curve" smooth="yes"/>
      <point x="37" y="494"/>
      <point x="84" y="496"/>
      <point x="94" y="496" type="curve" smooth="yes"/>
      <point x="137" y="498"/>
      <point x="172" y="500"/>
      <point x="209" y="500" type="curve"/>
      <point x="172" y="301"/>
      <point x="135" y="127"/>
      <point x="115" y="49" type="curve" smooth="yes"/>
      <point x="111" y="35"/>
      <point x="90" y="-31"/>
      <point x="90" y="-82" type="curve" smooth="yes"/>
      <point x="90" y="-115"/>
      <point x="94" y="-141"/>
      <point x="127" y="-141" type="curve" smooth="yes"/>
      <point x="184" y="-141"/>
      <point x="205" y="-18"/>
      <point x="223" y="39" type="curve"/>
      <point x="350" y="506" type="line"/>
      <point x="567" y="512" type="line"/>
      <point x="518" y="309"/>
      <point x="469" y="127"/>
      <point x="442" y="49" type="curve"/>
      <point x="442" y="35"/>
      <point x="418" y="-31"/>
      <point x="418" y="-82" type="curve" smooth="yes"/>
      <point x="418" y="-115"/>
      <point x="422" y="-141"/>
      <point x="455" y="-141" type="curve" smooth="yes"/>
      <point x="512" y="-141"/>
      <point x="532" y="-18"/>
      <point x="551" y="39" type="curve" smooth="yes"/>
      <point x="707" y="514" type="line"/>
      <point x="748" y="514" type="line" smooth="yes"/>
      <point x="791" y="514"/>
      <point x="836" y="512"/>
      <point x="885" y="512" type="curve" smooth="yes"/>
      <point x="938" y="512"/>
      <point x="985" y="571"/>
      <point x="985" y="608" type="curve" smooth="yes"/>
      <point x="985" y="641"/>
      <point x="889" y="649"/>
      <point x="776" y="649" type="curve" smooth="yes"/>
      <point x="752" y="649" type="line"/>
      <point x="809" y="821" type="line"/>
      <point x="848" y="821"/>
      <point x="887" y="819"/>
      <point x="930" y="819" type="curve" smooth="yes"/>
      <point x="983" y="819"/>
      <point x="1030" y="879"/>
      <point x="1030" y="915" type="curve" smooth="yes"/>
      <point x="1030" y="944"/>
      <point x="952" y="954"/>
      <point x="854" y="956" type="curve"/>
      <point x="1038" y="1513" type="line"/>
      <point x="1038" y="1518"/>
      <point x="1040" y="1522"/>
      <point x="1040" y="1526" type="curve" smooth="yes"/>
      <point x="1040" y="1552"/>
      <point x="1020" y="1579"/>
      <point x="1004" y="1579" type="curve" smooth="yes"/>
      <point x="831" y="1579"/>
      <point x="831" y="1552"/>
      <point x="776" y="1374" type="curve"/>
      <point x="770" y="1358"/>
      <point x="729" y="1178"/>
      <point x="676" y="954" type="curve"/>
      <point x="606" y="954"/>
      <point x="537" y="950"/>
      <point x="473" y="948" type="curve"/>
      <point x="629" y="1513" type="line"/>
      <point x="629" y="1518"/>
      <point x="631" y="1522"/>
      <point x="631" y="1526" type="curve" smooth="yes"/>
      <point x="631" y="1552"/>
      <point x="610" y="1579"/>
      <point x="594" y="1579" type="curve" smooth="yes"/>
      <point x="422" y="1579"/>
      <point x="428" y="1550"/>
    </contour>
    <contour>
      <point x="602" y="647" type="curve"/>
      <point x="387" y="647" type="line"/>
      <point x="436" y="813" type="line"/>
      <point x="526" y="817"/>
      <point x="594" y="819"/>
      <point x="643" y="819" type="curve"/>
      <point x="631" y="762"/>
      <point x="616" y="705"/>
    </contour>
  </outline>
</glyph>
<glyph name="dollar" format="1">
  <advance width="1069"/>
  <unicode hex="0024"/>
  <outline>
    <contour>
      <point x="670" y="1503" type="line"/>
      <point x="424" y="1458"/>
      <point x="170" y="1288"/>
      <point x="170" y="1024" type="curve" smooth="yes"/>
      <point x="170" y="899"/>
      <point x="319" y="782"/>
      <point x="461" y="664" type="curve"/>
      <point x="403" y="428"/>
      <point x="348" y="193"/>
      <point x="315" y="35" type="curve"/>
      <point x="133" y="39"/>
      <point x="135" y="133"/>
      <point x="135" y="233" type="curve" smooth="yes"/>
      <point x="135" y="266"/>
      <point x="137" y="305"/>
      <point x="139" y="332" type="curve"/>
      <point x="96" y="330" type="line" smooth="yes"/>
      <point x="8" y="326"/>
      <point x="-70" y="272"/>
      <point x="-70" y="182" type="curve" smooth="yes"/>
      <point x="-70" y="16"/>
      <point x="109" y="-57"/>
      <point x="252" y="-57" type="curve" smooth="yes"/>
      <point x="266" y="-57"/>
      <point x="283" y="-57"/>
      <point x="297" y="-55" type="curve"/>
      <point x="289" y="-109" type="line" smooth="yes"/>
      <point x="283" y="-143"/>
      <point x="279" y="-164"/>
      <point x="279" y="-184" type="curve" smooth="yes"/>
      <point x="279" y="-205"/>
      <point x="289" y="-213"/>
      <point x="307" y="-213" type="curve" smooth="yes"/>
      <point x="369" y="-213"/>
      <point x="360" y="-143"/>
      <point x="373" y="-80" type="curve"/>
      <point x="379" y="-47" type="line"/>
      <point x="651" y="-8"/>
      <point x="926" y="158"/>
      <point x="926" y="446" type="curve" smooth="yes"/>
      <point x="926" y="641"/>
      <point x="745" y="762"/>
      <point x="594" y="872" type="curve"/>
      <point x="721" y="1421" type="line"/>
      <point x="731" y="1421"/>
      <point x="743" y="1423"/>
      <point x="756" y="1423" type="curve" smooth="yes"/>
      <point x="872" y="1423"/>
      <point x="965" y="1376"/>
      <point x="965" y="1225" type="curve" smooth="yes"/>
      <point x="965" y="1171"/>
      <point x="762" y="1094"/>
      <point x="698" y="1057" type="curve"/>
      <point x="698" y="958" type="line"/>
      <point x="756" y="979"/>
      <point x="1145" y="1198"/>
      <point x="1145" y="1227" type="curve" smooth="yes"/>
      <point x="1145" y="1450"/>
      <point x="944" y="1518"/>
      <point x="803" y="1518" type="curve" smooth="yes"/>
      <point x="782" y="1518"/>
      <point x="762" y="1516"/>
      <point x="741" y="1513" type="curve"/>
      <point x="788" y="1710" type="line"/>
      <point x="788" y="1743"/>
      <point x="760" y="1747"/>
      <point x="754" y="1747" type="curve" smooth="yes"/>
      <point x="723" y="1747"/>
      <point x="709" y="1726"/>
      <point x="678" y="1550" type="curve"/>
    </contour>
    <contour>
      <point x="709" y="342" type="curve" smooth="yes"/>
      <point x="709" y="174"/>
      <point x="545" y="70"/>
      <point x="399" y="41" type="curve"/>
      <point x="530" y="604" type="line"/>
      <point x="629" y="518"/>
      <point x="709" y="432"/>
    </contour>
    <contour>
      <point x="387" y="1126" type="curve" smooth="yes"/>
      <point x="387" y="1272"/>
      <point x="514" y="1372"/>
      <point x="647" y="1407" type="curve"/>
      <point x="526" y="924" type="line"/>
      <point x="446" y="987"/>
      <point x="387" y="1051"/>
    </contour>
  </outline>
</glyph>
<glyph name="percent" format="1">
  <advance width="1401"/>
  <unicode hex="0025"/>
  <outline>
    <contour>
      <point x="268" y="858" type="curve" smooth="yes"/>
      <point x="473" y="858"/>
      <point x="580" y="1049"/>
      <point x="580" y="1219" type="curve" smooth="yes"/>
      <point x="580" y="1350"/>
      <point x="524" y="1518"/>
      <point x="348" y="1518" type="curve" smooth="yes"/>
      <point x="145" y="1518"/>
      <point x="53" y="1311"/>
      <point x="53" y="1149" type="curve" smooth="yes"/>
      <point x="53" y="1032"/>
      <point x="111" y="858"/>
    </contour>
    <contour>
      <point x="367" y="1393" type="curve" smooth="yes"/>
      <point x="424" y="1393"/>
      <point x="442" y="1319"/>
      <point x="442" y="1274" type="curve" smooth="yes"/>
      <point x="442" y="1174"/>
      <point x="369" y="973"/>
      <point x="248" y="973" type="curve" smooth="yes"/>
      <point x="203" y="973"/>
      <point x="201" y="1055"/>
      <point x="201" y="1085" type="curve" smooth="yes"/>
      <point x="201" y="1178"/>
      <point x="248" y="1393"/>
    </contour>
    <contour>
      <point x="1042" y="-29" type="curve" smooth="yes"/>
      <point x="1251" y="-29"/>
      <point x="1354" y="164"/>
      <point x="1354" y="336" type="curve" smooth="yes"/>
      <point x="1354" y="467"/>
      <point x="1298" y="635"/>
      <point x="1122" y="635" type="curve" smooth="yes"/>
      <point x="918" y="635"/>
      <point x="827" y="424"/>
      <point x="827" y="262" type="curve" smooth="yes"/>
      <point x="827" y="147"/>
      <point x="887" y="-29"/>
    </contour>
    <contour>
      <point x="1141" y="510" type="curve" smooth="yes"/>
      <point x="1202" y="510"/>
      <point x="1217" y="434"/>
      <point x="1217" y="387" type="curve" smooth="yes"/>
      <point x="1217" y="287"/>
      <point x="1143" y="86"/>
      <point x="1022" y="86" type="curve" smooth="yes"/>
      <point x="979" y="86"/>
      <point x="977" y="172"/>
      <point x="977" y="201" type="curve" smooth="yes"/>
      <point x="977" y="291"/>
      <point x="1022" y="510"/>
    </contour>
    <contour>
      <point x="944" y="1374" type="curve"/>
      <point x="922" y="1333"/>
      <point x="365" y="283"/>
      <point x="242" y="49" type="curve"/>
      <point x="231" y="31"/>
      <point x="170" y="-68"/>
      <point x="170" y="-117" type="curve" smooth="yes"/>
      <point x="170" y="-133"/>
      <point x="176" y="-141"/>
      <point x="197" y="-141" type="curve" smooth="yes"/>
      <point x="260" y="-141"/>
      <point x="313" y="-18"/>
      <point x="348" y="39" type="curve" smooth="yes"/>
      <point x="1249" y="1513" type="line"/>
      <point x="1251" y="1520"/>
      <point x="1255" y="1542"/>
      <point x="1255" y="1546" type="curve" smooth="yes"/>
      <point x="1255" y="1563"/>
      <point x="1245" y="1579"/>
      <point x="1235" y="1579" type="curve" smooth="yes"/>
      <point x="1063" y="1579"/>
      <point x="1065" y="1548"/>
    </contour>
  </outline>
</glyph>
<glyph name="ampersand" format="1">
  <advance width="1442"/>
  <unicode hex="0026"/>
  <outline>
    <contour>
      <point x="799" y="-494" type="curve" smooth="yes"/>
      <point x="799" y="-504"/>
      <point x="805" y="-518"/>
      <point x="811" y="-526" type="curve"/>
      <point x="1067" y="-526"/>
      <point x="1298" y="-197"/>
      <point x="1298" y="41" type="curve" smooth="yes"/>
      <point x="1298" y="133"/>
      <point x="1247" y="252"/>
      <point x="1196" y="328" type="curve"/>
      <point x="1368" y="434"/>
      <point x="1565" y="764"/>
      <point x="1565" y="932" type="curve" smooth="yes"/>
      <point x="1565" y="961"/>
      <point x="1550" y="977"/>
      <point x="1522" y="975" type="curve" smooth="yes"/>
      <point x="1483" y="973" type="line"/>
      <point x="1444" y="942"/>
      <point x="1442" y="788"/>
      <point x="1413" y="733" type="curve" smooth="yes"/>
      <point x="1358" y="631"/>
      <point x="1251" y="487"/>
      <point x="1143" y="418" type="curve"/>
      <point x="1020" y="621"/>
      <point x="825" y="887"/>
      <point x="825" y="1133" type="curve" smooth="yes"/>
      <point x="825" y="1264"/>
      <point x="877" y="1395"/>
      <point x="1028" y="1395" type="curve" smooth="yes"/>
      <point x="1124" y="1395"/>
      <point x="1219" y="1325"/>
      <point x="1219" y="1223" type="curve" smooth="yes"/>
      <point x="1219" y="1157"/>
      <point x="1067" y="1108"/>
      <point x="1018" y="1081" type="curve"/>
      <point x="1022" y="1061"/>
      <point x="1032" y="1040"/>
      <point x="1047" y="1024" type="curve"/>
      <point x="1116" y="1057"/>
      <point x="1407" y="1153"/>
      <point x="1407" y="1241" type="curve" smooth="yes"/>
      <point x="1407" y="1425"/>
      <point x="1206" y="1518"/>
      <point x="1047" y="1518" type="curve" smooth="yes"/>
      <point x="827" y="1518"/>
      <point x="567" y="1315"/>
      <point x="567" y="1083" type="curve" smooth="yes"/>
      <point x="567" y="1022"/>
      <point x="580" y="965"/>
      <point x="596" y="905" type="curve"/>
      <point x="369" y="770"/>
      <point x="70" y="614"/>
      <point x="70" y="319" type="curve" smooth="yes"/>
      <point x="70" y="98"/>
      <point x="276" y="-29"/>
      <point x="479" y="-29" type="curve" smooth="yes"/>
      <point x="649" y="-29"/>
      <point x="807" y="55"/>
      <point x="956" y="154" type="curve"/>
      <point x="995" y="76"/>
      <point x="1042" y="-16"/>
      <point x="1042" y="-104" type="curve" smooth="yes"/>
      <point x="1042" y="-365"/>
      <point x="799" y="-430"/>
    </contour>
    <contour>
      <point x="911" y="238" type="line"/>
      <point x="825" y="182"/>
      <point x="756" y="145"/>
      <point x="666" y="145" type="curve" smooth="yes"/>
      <point x="492" y="145"/>
      <point x="342" y="303"/>
      <point x="342" y="475" type="curve" smooth="yes"/>
      <point x="342" y="629"/>
      <point x="483" y="725"/>
      <point x="618" y="805" type="curve"/>
    </contour>
  </outline>
</glyph>
<glyph name="quotesingle" format="1">
  <advance width="354"/>
  <unicode hex="0027"/>
  <outline>
    <contour>
      <point x="295" y="1403" type="curve" smooth="yes"/>
      <point x="307" y="1436"/>
      <point x="315" y="1464"/>
      <point x="315" y="1487" type="curve" smooth="yes"/>
      <point x="315" y="1526"/>
      <point x="293" y="1538"/>
      <point x="186" y="1538" type="curve" smooth="yes"/>
      <point x="135" y="1538"/>
      <point x="119" y="1432"/>
      <point x="119" y="1315" type="curve" smooth="yes"/>
      <point x="119" y="1231"/>
      <point x="127" y="1141"/>
      <point x="137" y="1083" type="curve"/>
      <point x="193" y="1083" type="line"/>
      <point x="211" y="1139"/>
      <point x="250" y="1280"/>
    </contour>
  </outline>
</glyph>
<glyph name="parenleft" format="1">
  <advance width="934"/>
  <unicode hex="0028"/>
  <outline>
    <contour>
      <point x="666" y="-23" type="line"/>
      <point x="649" y="-25"/>
      <point x="635" y="-25"/>
      <point x="621" y="-25" type="curve" smooth="yes"/>
      <point x="334" y="-25"/>
      <point x="266" y="289"/>
      <point x="266" y="530" type="curve" smooth="yes"/>
      <point x="266" y="897"/>
      <point x="440" y="1470"/>
      <point x="844" y="1470" type="curve" smooth="yes"/>
      <point x="866" y="1470"/>
      <point x="891" y="1468"/>
      <point x="915" y="1464" type="curve"/>
      <point x="920" y="1567" type="line"/>
      <point x="879" y="1573"/>
      <point x="840" y="1577"/>
      <point x="801" y="1577" type="curve" smooth="yes"/>
      <point x="293" y="1577"/>
      <point x="49" y="991"/>
      <point x="49" y="541" type="curve" smooth="yes"/>
      <point x="49" y="170"/>
      <point x="193" y="-117"/>
      <point x="518" y="-117" type="curve" smooth="yes"/>
      <point x="563" y="-117"/>
      <point x="610" y="-111"/>
      <point x="662" y="-100" type="curve"/>
    </contour>
  </outline>
</glyph>
<glyph name="parenright" format="1">
  <advance width="932"/>
  <unicode hex="0029"/>
  <outline>
    <contour>
      <point x="268" y="1483" type="line"/>
      <point x="285" y="1485"/>
      <point x="299" y="1485"/>
      <point x="313" y="1485" type="curve" smooth="yes"/>
      <point x="598" y="1485"/>
      <point x="668" y="1171"/>
      <point x="668" y="930" type="curve" smooth="yes"/>
      <point x="668" y="563"/>
      <point x="494" y="-10"/>
      <point x="90" y="-10" type="curve" smooth="yes"/>
      <point x="66" y="-10"/>
      <point x="43" y="-8"/>
      <point x="18" y="-4" type="curve"/>
      <point x="14" y="-106" type="line"/>
      <point x="59" y="-117"/>
      <point x="102" y="-121"/>
      <point x="145" y="-121" type="curve" smooth="yes"/>
      <point x="639" y="-121"/>
      <point x="885" y="483"/>
      <point x="885" y="920" type="curve" smooth="yes"/>
      <point x="885" y="1290"/>
      <point x="741" y="1577"/>
      <point x="414" y="1577" type="curve" smooth="yes"/>
      <point x="371" y="1577"/>
      <point x="324" y="1571"/>
      <point x="272" y="1561" type="curve"/>
    </contour>
  </outline>
</glyph>
<glyph name="asterisk" format="1">
  <advance width="870"/>
  <unicode hex="002A"/>
  <outline>
    <contour>
      <point x="362" y="1024" type="curve"/>
      <point x="274" y="930"/>
      <point x="123" y="823"/>
      <point x="123" y="754" type="curve" smooth="yes"/>
      <point x="123" y="721"/>
      <point x="178" y="670"/>
      <point x="211" y="670" type="curve" smooth="yes"/>
      <point x="266" y="670"/>
      <point x="397" y="934"/>
      <point x="420" y="987" type="curve"/>
      <point x="444" y="932"/>
      <point x="567" y="668"/>
      <point x="625" y="668" type="curve" smooth="yes"/>
      <point x="657" y="668"/>
      <point x="719" y="719"/>
      <point x="719" y="754" type="curve" smooth="yes"/>
      <point x="719" y="819"/>
      <point x="565" y="924"/>
      <point x="479" y="1022" type="curve"/>
      <point x="635" y="1063"/>
      <point x="838" y="1075"/>
      <point x="838" y="1141" type="curve" smooth="yes"/>
      <point x="838" y="1171"/>
      <point x="801" y="1253"/>
      <point x="766" y="1253" type="curve" smooth="yes"/>
      <point x="707" y="1253"/>
      <point x="553" y="1128"/>
      <point x="459" y="1081" type="curve"/>
      <point x="483" y="1153"/>
      <point x="545" y="1339"/>
      <point x="545" y="1409" type="curve" smooth="yes"/>
      <point x="545" y="1468"/>
      <point x="481" y="1462"/>
      <point x="438" y="1462" type="curve" smooth="yes"/>
      <point x="393" y="1462"/>
      <point x="383" y="1417"/>
      <point x="383" y="1352" type="curve" smooth="yes"/>
      <point x="383" y="1290"/>
      <point x="393" y="1212"/>
      <point x="393" y="1137" type="curve" smooth="yes"/>
      <point x="393" y="1122"/>
      <point x="391" y="1108"/>
      <point x="391" y="1094" type="curve"/>
      <point x="365" y="1110"/>
      <point x="152" y="1266"/>
      <point x="104" y="1266" type="curve" smooth="yes"/>
      <point x="68" y="1266"/>
      <point x="35" y="1184"/>
      <point x="35" y="1153" type="curve" smooth="yes"/>
      <point x="35" y="1092"/>
      <point x="219" y="1057"/>
    </contour>
  </outline>
</glyph>
<glyph name="plus" format="1">
  <advance width="1120"/>
  <unicode hex="002B"/>
  <outline>
    <contour>
      <point x="229" y="526" type="curve"/>
      <point x="213" y="522"/>
      <point x="160" y="500"/>
      <point x="160" y="428" type="curve" smooth="yes"/>
      <point x="160" y="397"/>
      <point x="201" y="399"/>
      <point x="209" y="399" type="curve" smooth="yes"/>
      <point x="453" y="412" type="line"/>
      <point x="391" y="154" type="line"/>
      <point x="389" y="150"/>
      <point x="387" y="139"/>
      <point x="387" y="129" type="curve" smooth="yes"/>
      <point x="387" y="113"/>
      <point x="393" y="96"/>
      <point x="420" y="96" type="curve" smooth="yes"/>
      <point x="483" y="96"/>
      <point x="512" y="125"/>
      <point x="516" y="145" type="curve" smooth="yes"/>
      <point x="584" y="418" type="line"/>
      <point x="662" y="418" type="line" smooth="yes"/>
      <point x="705" y="418"/>
      <point x="750" y="416"/>
      <point x="799" y="416" type="curve" smooth="yes"/>
      <point x="850" y="416"/>
      <point x="920" y="479"/>
      <point x="920" y="516" type="curve" smooth="yes"/>
      <point x="920" y="545"/>
      <point x="827" y="553"/>
      <point x="719" y="553" type="curve" smooth="yes"/>
      <point x="686" y="553"/>
      <point x="651" y="553"/>
      <point x="618" y="551" type="curve"/>
      <point x="639" y="631" type="line"/>
      <point x="653" y="690"/>
      <point x="662" y="748"/>
      <point x="662" y="786" type="curve" smooth="yes"/>
      <point x="662" y="819"/>
      <point x="655" y="840"/>
      <point x="641" y="840" type="curve" smooth="yes"/>
      <point x="604" y="840"/>
      <point x="545" y="821"/>
      <point x="541" y="801" type="curve" smooth="yes"/>
      <point x="526" y="727"/>
      <point x="510" y="664"/>
      <point x="498" y="602" type="curve"/>
      <point x="483" y="547" type="line"/>
      <point x="358" y="541"/>
      <point x="254" y="530"/>
    </contour>
  </outline>
</glyph>
<glyph name="comma" format="1">
  <advance width="483"/>
  <unicode hex="002C"/>
  <outline>
    <contour>
      <point x="252" y="207" type="curve" smooth="yes"/>
      <point x="172" y="207"/>
      <point x="113" y="117"/>
      <point x="113" y="49" type="curve" smooth="yes"/>
      <point x="113" y="8"/>
      <point x="135" y="-29"/>
      <point x="190" y="-29" type="curve"/>
      <point x="166" y="-137"/>
      <point x="127" y="-244"/>
      <point x="127" y="-244" type="curve"/>
      <point x="184" y="-264" type="line"/>
      <point x="215" y="-211"/>
      <point x="356" y="10"/>
      <point x="356" y="90" type="curve" smooth="yes"/>
      <point x="356" y="162"/>
      <point x="330" y="207"/>
    </contour>
  </outline>
</glyph>
<glyph name="hyphen" format="1">
  <advance width="862"/>
  <unicode hex="002D"/>
  <outline>
    <contour>
      <point x="205" y="725" type="curve"/>
      <point x="184" y="719"/>
      <point x="156" y="702"/>
      <point x="156" y="639" type="curve" smooth="yes"/>
      <point x="156" y="596"/>
      <point x="203" y="598"/>
      <point x="213" y="598" type="curve" smooth="yes"/>
      <point x="440" y="616"/>
      <point x="477" y="616"/>
      <point x="518" y="616" type="curve" smooth="yes"/>
      <point x="561" y="616"/>
      <point x="606" y="614"/>
      <point x="655" y="614" type="curve" smooth="yes"/>
      <point x="709" y="614"/>
      <point x="756" y="674"/>
      <point x="756" y="711" type="curve" smooth="yes"/>
      <point x="756" y="743"/>
      <point x="659" y="752"/>
      <point x="547" y="752" type="curve" smooth="yes"/>
      <point x="479" y="752"/>
      <point x="244" y="733"/>
    </contour>
  </outline>
</glyph>
<glyph name="period" format="1">
  <advance width="422"/>
  <unicode hex="002E"/>
  <outline>
    <contour>
      <point x="158" y="-29" type="curve" smooth="yes"/>
      <point x="250" y="-29"/>
      <point x="328" y="59"/>
      <point x="328" y="129" type="curve" smooth="yes"/>
      <point x="328" y="170"/>
      <point x="297" y="207"/>
      <point x="217" y="207" type="curve" smooth="yes"/>
      <point x="137" y="207"/>
      <point x="78" y="117"/>
      <point x="78" y="49" type="curve" smooth="yes"/>
      <point x="78" y="8"/>
      <point x="100" y="-29"/>
    </contour>
  </outline>
</glyph>
<glyph name="slash" format="1">
  <advance width="1014"/>
  <unicode hex="002F"/>
  <outline>
    <contour>
      <point x="778" y="1374" type="curve"/>
      <point x="766" y="1331"/>
      <point x="170" y="217"/>
      <point x="76" y="-33" type="curve"/>
      <point x="53" y="-90"/>
      <point x="6" y="-135"/>
      <point x="6" y="-193" type="curve" smooth="yes"/>
      <point x="6" y="-211"/>
      <point x="10" y="-223"/>
      <point x="29" y="-223" type="curve" smooth="yes"/>
      <point x="170" y="-223"/>
      <point x="190" y="-104"/>
      <point x="223" y="-43" type="curve"/>
      <point x="1001" y="1513" type="line" smooth="yes"/>
      <point x="1004" y="1520"/>
      <point x="1008" y="1542"/>
      <point x="1008" y="1546" type="curve" smooth="yes"/>
      <point x="1008" y="1563"/>
      <point x="997" y="1579"/>
      <point x="987" y="1579" type="curve" smooth="yes"/>
      <point x="864" y="1579"/>
      <point x="829" y="1540"/>
    </contour>
  </outline>
</glyph>
<glyph name="zero" format="1">
  <advance width="1210"/>
  <unicode hex="0030"/>
  <outline>
    <contour>
      <point x="82" y="496" type="curve" smooth="yes"/>
      <point x="94" y="287"/>
      <point x="170" y="-29"/>
      <point x="438" y="-29" type="curve" smooth="yes"/>
      <point x="934" y="-29"/>
      <point x="1149" y="625"/>
      <point x="1126" y="1038" type="curve" smooth="yes"/>
      <point x="1112" y="1284"/>
      <point x="1010" y="1518"/>
      <point x="727" y="1518" type="curve" smooth="yes"/>
      <point x="293" y="1518"/>
      <point x="61" y="862"/>
    </contour>
    <contour>
      <point x="815" y="1327" type="curve" smooth="yes"/>
      <point x="938" y="1327"/>
      <point x="967" y="1190"/>
      <point x="971" y="1096" type="curve"/>
      <point x="987" y="805"/>
      <point x="725" y="143"/>
      <point x="383" y="143" type="curve" smooth="yes"/>
      <point x="279" y="143"/>
      <point x="258" y="252"/>
      <point x="254" y="332" type="curve" smooth="yes"/>
      <point x="238" y="664"/>
      <point x="391" y="1044"/>
      <point x="641" y="1247" type="curve"/>
      <point x="692" y="1286"/>
      <point x="748" y="1327"/>
    </contour>
  </outline>
</glyph>
<glyph name="one" format="1">
  <advance width="709"/>
  <unicode hex="0031"/>
  <outline>
    <contour>
      <point x="621" y="1509" type="curve" smooth="yes"/>
      <point x="438" y="1417"/>
      <point x="274" y="1313"/>
      <point x="84" y="1192" type="curve" smooth="yes"/>
      <point x="55" y="1174"/>
      <point x="23" y="1149"/>
      <point x="23" y="1124" type="curve" smooth="yes"/>
      <point x="23" y="1108"/>
      <point x="31" y="1092"/>
      <point x="49" y="1085" type="curve"/>
      <point x="109" y="1085"/>
      <point x="328" y="1249"/>
      <point x="408" y="1313" type="curve"/>
      <point x="401" y="1300"/>
      <point x="383" y="1219"/>
      <point x="266" y="764" type="curve" smooth="yes"/>
      <point x="219" y="582"/>
      <point x="162" y="395"/>
      <point x="123" y="211" type="curve" smooth="yes"/>
      <point x="111" y="158"/>
      <point x="96" y="94"/>
      <point x="96" y="45" type="curve" smooth="yes"/>
      <point x="96" y="27"/>
      <point x="100" y="0"/>
      <point x="123" y="0" type="curve" smooth="yes"/>
      <point x="326" y="0" type="line" smooth="yes"/>
      <point x="375" y="0"/>
      <point x="387" y="147"/>
      <point x="395" y="221" type="curve"/>
      <point x="672" y="1452" type="line" smooth="yes"/>
      <point x="674" y="1462"/>
      <point x="674" y="1470"/>
      <point x="674" y="1481" type="curve" smooth="yes"/>
      <point x="674" y="1501"/>
      <point x="668" y="1518"/>
      <point x="649" y="1518" type="curve" smooth="yes"/>
      <point x="641" y="1518"/>
      <point x="633" y="1516"/>
    </contour>
  </outline>
</glyph>
<glyph name="two" format="1">
  <advance width="1149"/>
  <unicode hex="0032"/>
  <outline>
    <contour>
      <point x="57" y="12" type="curve" smooth="yes"/>
      <point x="57" y="-20"/>
      <point x="100" y="-29"/>
      <point x="127" y="-29" type="curve" smooth="yes"/>
      <point x="268" y="-29"/>
      <point x="410" y="-2"/>
      <point x="551" y="-2" type="curve" smooth="yes"/>
      <point x="649" y="-2"/>
      <point x="739" y="-29"/>
      <point x="840" y="-29" type="curve" smooth="yes"/>
      <point x="893" y="-29"/>
      <point x="934" y="96"/>
      <point x="934" y="145" type="curve" smooth="yes"/>
      <point x="934" y="207"/>
      <point x="848" y="213"/>
      <point x="786" y="213" type="curve" smooth="yes"/>
      <point x="637" y="213"/>
      <point x="481" y="160"/>
      <point x="334" y="137" type="curve"/>
      <point x="414" y="197"/>
      <point x="1085" y="674"/>
      <point x="1085" y="1137" type="curve" smooth="yes"/>
      <point x="1085" y="1223"/>
      <point x="1034" y="1518"/>
      <point x="641" y="1518" type="curve" smooth="yes"/>
      <point x="377" y="1518"/>
      <point x="154" y="1333"/>
      <point x="154" y="1006" type="curve" smooth="yes"/>
      <point x="154" y="975"/>
      <point x="399" y="805"/>
      <point x="438" y="805" type="curve" smooth="yes"/>
      <point x="475" y="805"/>
      <point x="487" y="834"/>
      <point x="487" y="852" type="curve" smooth="yes"/>
      <point x="487" y="915"/>
      <point x="408" y="905"/>
      <point x="342" y="999" type="curve"/>
      <point x="342" y="1282"/>
      <point x="547" y="1409"/>
      <point x="676" y="1409" type="curve" smooth="yes"/>
      <point x="803" y="1409"/>
      <point x="854" y="1315"/>
      <point x="854" y="1124" type="curve" smooth="yes"/>
      <point x="854" y="713"/>
      <point x="383" y="356"/>
      <point x="125" y="109" type="curve" smooth="yes"/>
      <point x="100" y="86"/>
      <point x="57" y="41"/>
    </contour>
  </outline>
</glyph>
<glyph name="three" format="1">
  <advance width="1188"/>
  <unicode hex="0033"/>
  <outline>
    <contour>
      <point x="49" y="238" type="curve" smooth="yes"/>
      <point x="49" y="57"/>
      <point x="289" y="-29"/>
      <point x="438" y="-29" type="curve" smooth="yes"/>
      <point x="717" y="-29"/>
      <point x="1024" y="180"/>
      <point x="1024" y="479" type="curve" smooth="yes"/>
      <point x="1024" y="610"/>
      <point x="932" y="745"/>
      <point x="788" y="784" type="curve"/>
      <point x="950" y="852"/>
      <point x="1126" y="1008"/>
      <point x="1126" y="1214" type="curve" smooth="yes"/>
      <point x="1126" y="1460"/>
      <point x="926" y="1518"/>
      <point x="707" y="1518" type="curve" smooth="yes"/>
      <point x="469" y="1518"/>
      <point x="244" y="1329"/>
      <point x="244" y="1151" type="curve" smooth="yes"/>
      <point x="244" y="1126"/>
      <point x="469" y="977"/>
      <point x="504" y="977" type="curve" smooth="yes"/>
      <point x="528" y="977"/>
      <point x="541" y="1006"/>
      <point x="543" y="1030" type="curve"/>
      <point x="508" y="1065"/>
      <point x="444" y="1112"/>
      <point x="424" y="1145" type="curve"/>
      <point x="424" y="1251"/>
      <point x="639" y="1432"/>
      <point x="731" y="1432" type="curve" smooth="yes"/>
      <point x="852" y="1432"/>
      <point x="901" y="1348"/>
      <point x="901" y="1241" type="curve" smooth="yes"/>
      <point x="901" y="1069"/>
      <point x="770" y="838"/>
      <point x="602" y="817" type="curve" smooth="yes"/>
      <point x="555" y="811"/>
      <point x="489" y="831"/>
      <point x="489" y="756" type="curve" smooth="yes"/>
      <point x="489" y="707"/>
      <point x="516" y="698"/>
      <point x="549" y="698" type="curve" smooth="yes"/>
      <point x="563" y="698"/>
      <point x="578" y="700"/>
      <point x="592" y="700" type="curve" smooth="yes"/>
      <point x="725" y="700"/>
      <point x="778" y="608"/>
      <point x="778" y="494" type="curve" smooth="yes"/>
      <point x="778" y="311"/>
      <point x="639" y="76"/>
      <point x="453" y="76" type="curve" smooth="yes"/>
      <point x="248" y="76"/>
      <point x="340" y="389"/>
      <point x="205" y="389" type="curve" smooth="yes"/>
      <point x="119" y="389"/>
      <point x="49" y="324"/>
    </contour>
  </outline>
</glyph>
<glyph name="four" format="1">
  <advance width="1264"/>
  <unicode hex="0034"/>
  <outline>
    <contour>
      <point x="403" y="494" type="curve"/>
      <point x="567" y="844"/>
      <point x="721" y="1169"/>
      <point x="866" y="1499" type="curve"/>
      <point x="856" y="1516"/>
      <point x="838" y="1518"/>
      <point x="819" y="1518" type="curve" smooth="yes"/>
      <point x="623" y="1518"/>
      <point x="594" y="1452"/>
      <point x="508" y="1208" type="curve"/>
      <point x="215" y="528" type="line"/>
      <point x="104" y="489" type="line" smooth="yes"/>
      <point x="59" y="473"/>
      <point x="20" y="461"/>
      <point x="20" y="397" type="curve" smooth="yes"/>
      <point x="20" y="309"/>
      <point x="115" y="297"/>
      <point x="129" y="297" type="curve" smooth="yes"/>
      <point x="164" y="297"/>
      <point x="219" y="315"/>
      <point x="266" y="340" type="curve"/>
      <point x="377" y="319"/>
      <point x="471" y="303"/>
      <point x="549" y="291" type="curve"/>
      <point x="514" y="201"/>
      <point x="481" y="109"/>
      <point x="449" y="20" type="curve"/>
      <point x="455" y="0" type="line"/>
      <point x="608" y="0" type="line" smooth="yes"/>
      <point x="639" y="0"/>
      <point x="666" y="96"/>
      <point x="666" y="96" type="curve"/>
      <point x="737" y="272" type="line"/>
      <point x="760" y="270"/>
      <point x="780" y="270"/>
      <point x="801" y="270" type="curve" smooth="yes"/>
      <point x="1020" y="270"/>
      <point x="1036" y="358"/>
      <point x="1245" y="508" type="curve"/>
      <point x="1196" y="594" type="line"/>
      <point x="1126" y="535"/>
      <point x="1022" y="475"/>
      <point x="1008" y="471" type="curve"/>
      <point x="948" y="438"/>
      <point x="874" y="428"/>
      <point x="799" y="428" type="curve"/>
      <point x="870" y="604"/>
      <point x="942" y="795"/>
      <point x="952" y="838" type="curve"/>
      <point x="860" y="838" type="line" smooth="yes"/>
      <point x="809" y="838"/>
      <point x="766" y="827"/>
      <point x="756" y="811" type="curve"/>
      <point x="705" y="688"/>
      <point x="655" y="565"/>
      <point x="608" y="444" type="curve"/>
      <point x="524" y="459"/>
      <point x="451" y="479"/>
    </contour>
  </outline>
</glyph>
<glyph name="five" format="1">
  <advance width="1327"/>
  <unicode hex="0035"/>
  <outline>
    <contour>
      <point x="225" y="219" type="curve" smooth="yes"/>
      <point x="225" y="25"/>
      <point x="485" y="-29"/>
      <point x="580" y="-29" type="curve" smooth="yes"/>
      <point x="909" y="-29"/>
      <point x="1239" y="244"/>
      <point x="1239" y="586" type="curve" smooth="yes"/>
      <point x="1239" y="797"/>
      <point x="1083" y="946"/>
      <point x="874" y="946" type="curve" smooth="yes"/>
      <point x="778" y="946"/>
      <point x="678" y="909"/>
      <point x="600" y="866" type="curve"/>
      <point x="618" y="940"/>
      <point x="702" y="1174"/>
      <point x="745" y="1307" type="curve"/>
      <point x="799" y="1307"/>
      <point x="834" y="1272"/>
      <point x="879" y="1249" type="curve" smooth="yes"/>
      <point x="965" y="1206"/>
      <point x="1057" y="1202"/>
      <point x="1149" y="1202" type="curve" smooth="yes"/>
      <point x="1313" y="1202"/>
      <point x="1311" y="1217"/>
      <point x="1382" y="1348" type="curve" smooth="yes"/>
      <point x="1399" y="1378"/>
      <point x="1417" y="1413"/>
      <point x="1421" y="1450" type="curve"/>
      <point x="1364" y="1468" type="line"/>
      <point x="1245" y="1454"/>
      <point x="1153" y="1448"/>
      <point x="1067" y="1448" type="curve" smooth="yes"/>
      <point x="948" y="1448"/>
      <point x="840" y="1458"/>
      <point x="686" y="1473" type="curve"/>
      <point x="680" y="1473" type="line" smooth="yes"/>
      <point x="670" y="1473"/>
      <point x="662" y="1466"/>
      <point x="653" y="1458" type="curve"/>
      <point x="633" y="1436"/>
      <point x="455" y="748"/>
      <point x="434" y="659" type="curve"/>
      <point x="442" y="643"/>
      <point x="459" y="635"/>
      <point x="475" y="633" type="curve"/>
      <point x="535" y="702"/>
      <point x="612" y="764"/>
      <point x="707" y="764" type="curve" smooth="yes"/>
      <point x="874" y="764"/>
      <point x="1006" y="631"/>
      <point x="1006" y="504" type="curve" smooth="yes"/>
      <point x="1006" y="340"/>
      <point x="920" y="74"/>
      <point x="618" y="74" type="curve" smooth="yes"/>
      <point x="436" y="74"/>
      <point x="401" y="248"/>
      <point x="401" y="354" type="curve"/>
      <point x="287" y="354"/>
      <point x="225" y="264"/>
    </contour>
  </outline>
</glyph>
<glyph name="six" format="1">
  <advance width="1094"/>
  <unicode hex="0036"/>
  <outline>
    <contour>
      <point x="68" y="426" type="curve"/>
      <point x="49" y="193"/>
      <point x="141" y="-29"/>
      <point x="403" y="-29" type="curve" smooth="yes"/>
      <point x="723" y="-29"/>
      <point x="995" y="283"/>
      <point x="1016" y="586" type="curve"/>
      <point x="1034" y="823"/>
      <point x="901" y="903"/>
      <point x="684" y="903" type="curve" smooth="yes"/>
      <point x="606" y="903"/>
      <point x="559" y="889"/>
      <point x="520" y="813" type="curve"/>
      <point x="715" y="813"/>
      <point x="809" y="809"/>
      <point x="791" y="582" type="curve"/>
      <point x="782" y="430"/>
      <point x="590" y="88"/>
      <point x="422" y="88" type="curve" smooth="yes"/>
      <point x="260" y="88"/>
      <point x="254" y="209"/>
      <point x="254" y="295" type="curve" smooth="yes"/>
      <point x="254" y="762"/>
      <point x="666" y="1194"/>
      <point x="924" y="1462" type="curve"/>
      <point x="768" y="1462" type="line" smooth="yes"/>
      <point x="694" y="1462"/>
      <point x="631" y="1399"/>
      <point x="530" y="1276" type="curve" smooth="yes"/>
      <point x="328" y="1030"/>
      <point x="96" y="737"/>
    </contour>
  </outline>
</glyph>
<glyph name="seven" format="1">
  <advance width="1022"/>
  <unicode hex="0037"/>
  <outline>
    <contour>
      <point x="1004" y="1354" type="curve" smooth="yes"/>
      <point x="1006" y="1360"/>
      <point x="1008" y="1364"/>
      <point x="1008" y="1370" type="curve" smooth="yes"/>
      <point x="1008" y="1403"/>
      <point x="963" y="1423"/>
      <point x="956" y="1423" type="curve" smooth="yes"/>
      <point x="797" y="1423"/>
      <point x="700" y="1399"/>
      <point x="547" y="1399" type="curve" smooth="yes"/>
      <point x="461" y="1399"/>
      <point x="369" y="1403"/>
      <point x="215" y="1421" type="curve"/>
      <point x="178" y="1421"/>
      <point x="150" y="1329"/>
      <point x="137" y="1298" type="curve"/>
      <point x="104" y="1239"/>
      <point x="80" y="1200"/>
      <point x="80" y="1176" type="curve" smooth="yes"/>
      <point x="80" y="1139"/>
      <point x="135" y="1133"/>
      <point x="297" y="1133" type="curve" smooth="yes"/>
      <point x="401" y="1133"/>
      <point x="657" y="1161"/>
      <point x="770" y="1225" type="curve"/>
      <point x="453" y="762"/>
      <point x="199" y="401"/>
      <point x="115" y="0" type="curve"/>
      <point x="344" y="0" type="line" smooth="yes"/>
      <point x="342" y="0"/>
      <point x="387" y="94"/>
      <point x="403" y="139" type="curve" smooth="yes"/>
      <point x="563" y="571"/>
      <point x="819" y="958"/>
    </contour>
  </outline>
</glyph>
<glyph name="eight" format="1">
  <advance width="1286"/>
  <unicode hex="0038"/>
  <outline>
    <contour>
      <point x="416" y="-57" type="curve" smooth="yes"/>
      <point x="676" y="-57"/>
      <point x="1038" y="102"/>
      <point x="1038" y="399" type="curve" smooth="yes"/>
      <point x="1038" y="580"/>
      <point x="913" y="696"/>
      <point x="786" y="811" type="curve"/>
      <point x="948" y="946"/>
      <point x="1092" y="1010"/>
      <point x="1243" y="1096" type="curve"/>
      <point x="1210" y="1143" type="line"/>
      <point x="1071" y="1137"/>
      <point x="793" y="956"/>
      <point x="674" y="895" type="curve"/>
      <point x="549" y="963"/>
      <point x="500" y="1049"/>
      <point x="500" y="1128" type="curve" smooth="yes"/>
      <point x="500" y="1264"/>
      <point x="641" y="1386"/>
      <point x="819" y="1386" type="curve" smooth="yes"/>
      <point x="956" y="1386"/>
      <point x="1036" y="1270"/>
      <point x="1036" y="1270" type="curve"/>
      <point x="1087" y="1270"/>
      <point x="1149" y="1360"/>
      <point x="1149" y="1430" type="curve" smooth="yes"/>
      <point x="1149" y="1503"/>
      <point x="965" y="1518"/>
      <point x="911" y="1518" type="curve" smooth="yes"/>
      <point x="557" y="1518"/>
      <point x="221" y="1264"/>
      <point x="221" y="967" type="curve" smooth="yes"/>
      <point x="221" y="877"/>
      <point x="287" y="780"/>
      <point x="389" y="692" type="curve"/>
      <point x="373" y="647"/>
      <point x="53" y="500"/>
      <point x="53" y="262" type="curve" smooth="yes"/>
      <point x="53" y="39"/>
      <point x="225" y="-57"/>
    </contour>
    <contour>
      <point x="508" y="590" type="curve"/>
      <point x="633" y="528"/>
      <point x="756" y="420"/>
      <point x="756" y="297" type="curve" smooth="yes"/>
      <point x="756" y="141"/>
      <point x="600" y="41"/>
      <point x="461" y="41" type="curve" smooth="yes"/>
      <point x="338" y="41"/>
      <point x="272" y="119"/>
      <point x="272" y="215" type="curve" smooth="yes"/>
      <point x="272" y="408"/>
      <point x="471" y="561"/>
    </contour>
  </outline>
</glyph>
<glyph name="nine" format="1">
  <advance width="1094"/>
  <unicode hex="0039"/>
  <outline>
    <contour>
      <point x="1032" y="1014" type="curve" smooth="yes"/>
      <point x="1034" y="1040"/>
      <point x="1036" y="1067"/>
      <point x="1036" y="1092" type="curve" smooth="yes"/>
      <point x="1036" y="1348"/>
      <point x="897" y="1516"/>
      <point x="641" y="1516" type="curve" smooth="yes"/>
      <point x="305" y="1516"/>
      <point x="43" y="1206"/>
      <point x="43" y="895" type="curve" smooth="yes"/>
      <point x="43" y="668"/>
      <point x="217" y="539"/>
      <point x="424" y="539" type="curve" smooth="yes"/>
      <point x="481" y="539"/>
      <point x="551" y="545"/>
      <point x="563" y="653" type="curve"/>
      <point x="539" y="651"/>
      <point x="516" y="651"/>
      <point x="496" y="651" type="curve" smooth="yes"/>
      <point x="340" y="651"/>
      <point x="279" y="752"/>
      <point x="279" y="879" type="curve" smooth="yes"/>
      <point x="279" y="1100"/>
      <point x="463" y="1403"/>
      <point x="662" y="1403" type="curve" smooth="yes"/>
      <point x="799" y="1403"/>
      <point x="825" y="1274"/>
      <point x="825" y="1174" type="curve" smooth="yes"/>
      <point x="825" y="795"/>
      <point x="522" y="287"/>
      <point x="315" y="-29" type="curve"/>
      <point x="455" y="-29" type="line" smooth="yes"/>
      <point x="705" y="-29"/>
      <point x="991" y="623"/>
    </contour>
  </outline>
</glyph>
<glyph name="colon" format="1">
  <advance width="422"/>
  <unicode hex="003A"/>
  <outline>
    <contour>
      <point x="158" y="729" type="curve" smooth="yes"/>
      <point x="250" y="729"/>
      <point x="328" y="817"/>
      <point x="328" y="887" type="curve" smooth="yes"/>
      <point x="328" y="928"/>
      <point x="297" y="965"/>
      <point x="217" y="965" type="curve" smooth="yes"/>
      <point x="137" y="965"/>
      <point x="78" y="874"/>
      <point x="78" y="807" type="curve" smooth="yes"/>
      <point x="78" y="766"/>
      <point x="100" y="729"/>
    </contour>
    <contour>
      <point x="158" y="-29" type="curve" smooth="yes"/>
      <point x="250" y="-29"/>
      <point x="328" y="59"/>
      <point x="328" y="129" type="curve" smooth="yes"/>
      <point x="328" y="170"/>
      <point x="297" y="207"/>
      <point x="217" y="207" type="curve" smooth="yes"/>
      <point x="137" y="207"/>
      <point x="78" y="117"/>
      <point x="78" y="49" type="curve" smooth="yes"/>
      <point x="78" y="8"/>
      <point x="100" y="-29"/>
    </contour>
  </outline>
</glyph>
<glyph name="semicolon" format="1">
  <advance width="483"/>
  <unicode hex="003B"/>
  <outline>
    <contour>
      <point x="252" y="207" type="curve" smooth="yes"/>
      <point x="172" y="207"/>
      <point x="113" y="117"/>
      <point x="113" y="49" type="curve" smooth="yes"/>
      <point x="113" y="8"/>
      <point x="135" y="-29"/>
      <point x="190" y="-29" type="curve"/>
      <point x="166" y="-137"/>
      <point x="127" y="-244"/>
      <point x="127" y="-244" type="curve"/>
      <point x="184" y="-264" type="line"/>
      <point x="215" y="-211"/>
      <point x="356" y="10"/>
      <point x="356" y="90" type="curve" smooth="yes"/>
      <point x="356" y="162"/>
      <point x="330" y="207"/>
    </contour>
    <contour>
      <point x="242" y="729" type="curve" smooth="yes"/>
      <point x="334" y="729"/>
      <point x="412" y="817"/>
      <point x="412" y="887" type="curve" smooth="yes"/>
      <point x="412" y="928"/>
      <point x="381" y="965"/>
      <point x="301" y="965" type="curve" smooth="yes"/>
      <point x="221" y="965"/>
      <point x="162" y="874"/>
      <point x="162" y="807" type="curve" smooth="yes"/>
      <point x="162" y="766"/>
      <point x="184" y="729"/>
    </contour>
  </outline>
</glyph>
<glyph name="less" format="1">
  <advance width="1544"/>
  <unicode hex="003C"/>
  <outline>
    <contour>
      <point x="1067" y="397" type="curve"/>
      <point x="893" y="649" type="line"/>
      <point x="1008" y="774"/>
      <point x="1120" y="901"/>
      <point x="1210" y="1018" type="curve"/>
      <point x="1362" y="1212"/>
      <point x="1540" y="1255"/>
      <point x="1540" y="1319" type="curve" smooth="yes"/>
      <point x="1540" y="1358"/>
      <point x="1495" y="1374"/>
      <point x="1450" y="1374" type="curve" smooth="yes"/>
      <point x="1423" y="1374"/>
      <point x="1397" y="1366"/>
      <point x="1382" y="1358" type="curve" smooth="yes"/>
      <point x="1282" y="1298"/>
      <point x="1257" y="1253"/>
      <point x="848" y="791" type="curve" smooth="yes"/>
      <point x="768" y="700"/>
      <point x="723" y="666"/>
      <point x="723" y="618" type="curve" smooth="yes"/>
      <point x="723" y="588"/>
      <point x="737" y="555"/>
      <point x="770" y="504" type="curve"/>
      <point x="915" y="266"/>
      <point x="1044" y="12"/>
      <point x="1274" y="-152" type="curve" smooth="yes"/>
      <point x="1288" y="-162"/>
      <point x="1315" y="-168"/>
      <point x="1341" y="-168" type="curve" smooth="yes"/>
      <point x="1386" y="-168"/>
      <point x="1432" y="-152"/>
      <point x="1432" y="-113" type="curve" smooth="yes"/>
      <point x="1432" y="-37"/>
      <point x="1266" y="84"/>
    </contour>
  </outline>
</glyph>
<glyph name="equal" format="1">
  <advance width="1120"/>
  <unicode hex="003D"/>
  <outline>
    <contour>
      <point x="258" y="725" type="curve"/>
      <point x="238" y="719"/>
      <point x="209" y="702"/>
      <point x="209" y="639" type="curve" smooth="yes"/>
      <point x="209" y="596"/>
      <point x="256" y="598"/>
      <point x="266" y="598" type="curve" smooth="yes"/>
      <point x="594" y="616"/>
      <point x="659" y="616"/>
      <point x="715" y="616" type="curve" smooth="yes"/>
      <point x="758" y="616"/>
      <point x="803" y="614"/>
      <point x="852" y="614" type="curve" smooth="yes"/>
      <point x="905" y="614"/>
      <point x="952" y="674"/>
      <point x="952" y="711" type="curve" smooth="yes"/>
      <point x="952" y="743"/>
      <point x="856" y="752"/>
      <point x="743" y="752" type="curve" smooth="yes"/>
      <point x="532" y="752"/>
      <point x="297" y="733"/>
    </contour>
    <contour>
      <point x="217" y="500" type="curve"/>
      <point x="197" y="494"/>
      <point x="168" y="477"/>
      <point x="168" y="414" type="curve" smooth="yes"/>
      <point x="168" y="371"/>
      <point x="215" y="373"/>
      <point x="225" y="373" type="curve" smooth="yes"/>
      <point x="553" y="391"/>
      <point x="618" y="391"/>
      <point x="674" y="391" type="curve" smooth="yes"/>
      <point x="717" y="391"/>
      <point x="762" y="389"/>
      <point x="811" y="389" type="curve" smooth="yes"/>
      <point x="864" y="389"/>
      <point x="911" y="449"/>
      <point x="911" y="485" type="curve" smooth="yes"/>
      <point x="911" y="518"/>
      <point x="815" y="526"/>
      <point x="702" y="526" type="curve" smooth="yes"/>
      <point x="492" y="526"/>
      <point x="256" y="508"/>
    </contour>
  </outline>
</glyph>
<glyph name="greater" format="1">
  <advance width="1544"/>
  <unicode hex="003E"/>
  <outline>
    <contour>
      <point x="1145" y="397" type="line"/>
      <point x="856" y="68"/>
      <point x="655" y="-49"/>
      <point x="655" y="-125" type="curve" smooth="yes"/>
      <point x="655" y="-156"/>
      <point x="692" y="-168"/>
      <point x="733" y="-168" type="curve" smooth="yes"/>
      <point x="760" y="-168"/>
      <point x="788" y="-162"/>
      <point x="805" y="-152" type="curve" smooth="yes"/>
      <point x="1075" y="12"/>
      <point x="1266" y="266"/>
      <point x="1468" y="504" type="curve"/>
      <point x="1522" y="565"/>
      <point x="1544" y="604"/>
      <point x="1544" y="635" type="curve" smooth="yes"/>
      <point x="1544" y="686"/>
      <point x="1395" y="868"/>
      <point x="1305" y="1038" type="curve"/>
      <point x="1126" y="1325"/>
      <point x="1098" y="1374"/>
      <point x="999" y="1374" type="curve" smooth="yes"/>
      <point x="952" y="1374"/>
      <point x="895" y="1356"/>
      <point x="895" y="1311" type="curve" smooth="yes"/>
      <point x="895" y="1251"/>
      <point x="1053" y="1204"/>
      <point x="1153" y="1018" type="curve" smooth="yes"/>
      <point x="1214" y="903"/>
      <point x="1296" y="774"/>
      <point x="1380" y="649" type="curve"/>
    </contour>
  </outline>
</glyph>
<glyph name="question" format="1">
  <advance width="999"/>
  <unicode hex="003F"/>
  <outline>
    <contour>
      <point x="401" y="498" type="curve"/>
      <point x="430" y="729"/>
      <point x="971" y="782"/>
      <point x="971" y="1163" type="curve" smooth="yes"/>
      <point x="971" y="1399"/>
      <point x="717" y="1518"/>
      <point x="461" y="1518" type="curve" smooth="yes"/>
      <point x="317" y="1518"/>
      <point x="111" y="1444"/>
      <point x="47" y="1278" type="curve" smooth="yes"/>
      <point x="39" y="1260"/>
      <point x="37" y="1243"/>
      <point x="37" y="1227" type="curve" smooth="yes"/>
      <point x="37" y="1161"/>
      <point x="86" y="1133"/>
      <point x="156" y="1130" type="curve" smooth="yes"/>
      <point x="199" y="1128" type="line"/>
      <point x="238" y="1253"/>
      <point x="260" y="1425"/>
      <point x="502" y="1425" type="curve" smooth="yes"/>
      <point x="633" y="1425"/>
      <point x="782" y="1348"/>
      <point x="782" y="1206" type="curve" smooth="yes"/>
      <point x="782" y="946"/>
      <point x="258" y="772"/>
      <point x="258" y="465" type="curve" smooth="yes"/>
      <point x="258" y="438"/>
      <point x="291" y="424"/>
      <point x="334" y="424" type="curve" smooth="yes"/>
      <point x="356" y="424"/>
      <point x="387" y="444"/>
    </contour>
    <contour>
      <point x="285" y="-29" type="curve" smooth="yes"/>
      <point x="377" y="-29"/>
      <point x="455" y="59"/>
      <point x="455" y="129" type="curve" smooth="yes"/>
      <point x="455" y="170"/>
      <point x="424" y="207"/>
      <point x="344" y="207" type="curve" smooth="yes"/>
      <point x="264" y="207"/>
      <point x="205" y="117"/>
      <point x="205" y="49" type="curve" smooth="yes"/>
      <point x="205" y="8"/>
      <point x="227" y="-29"/>
    </contour>
  </outline>
</glyph>
<glyph name="at" format="1">
  <advance width="1587"/>
  <unicode hex="0040"/>
  <outline>
    <contour>
      <point x="1526" y="514" type="curve" smooth="yes"/>
      <point x="1526" y="956"/>
      <point x="1255" y="1139"/>
      <point x="946" y="1139" type="curve" smooth="yes"/>
      <point x="528" y="1139"/>
      <point x="55" y="809"/>
      <point x="55" y="334" type="curve" smooth="yes"/>
      <point x="55" y="-129"/>
      <point x="418" y="-313"/>
      <point x="780" y="-313" type="curve" smooth="yes"/>
      <point x="979" y="-313"/>
      <point x="1186" y="-274"/>
      <point x="1350" y="-199" type="curve"/>
      <point x="1290" y="-76" type="line"/>
      <point x="1098" y="-154"/>
      <point x="915" y="-190"/>
      <point x="754" y="-190" type="curve" smooth="yes"/>
      <point x="430" y="-190"/>
      <point x="203" y="8"/>
      <point x="203" y="352" type="curve" smooth="yes"/>
      <point x="203" y="741"/>
      <point x="602" y="1018"/>
      <point x="938" y="1018" type="curve" smooth="yes"/>
      <point x="1184" y="1018"/>
      <point x="1397" y="870"/>
      <point x="1397" y="512" type="curve" smooth="yes"/>
      <point x="1397" y="266"/>
      <point x="1245" y="86"/>
      <point x="1145" y="86" type="curve" smooth="yes"/>
      <point x="1079" y="86"/>
      <point x="1065" y="143"/>
      <point x="1065" y="201" type="curve" smooth="yes"/>
      <point x="1065" y="229"/>
      <point x="1069" y="260"/>
      <point x="1073" y="281" type="curve" smooth="yes"/>
      <point x="1087" y="356"/>
      <point x="1178" y="770"/>
      <point x="1184" y="807" type="curve"/>
      <point x="1126" y="825"/>
      <point x="1073" y="840"/>
      <point x="1016" y="840" type="curve" smooth="yes"/>
      <point x="659" y="840"/>
      <point x="354" y="520"/>
      <point x="354" y="225" type="curve" smooth="yes"/>
      <point x="354" y="41"/>
      <point x="455" y="-31"/>
      <point x="569" y="-31" type="curve" smooth="yes"/>
      <point x="705" y="-31"/>
      <point x="860" y="68"/>
      <point x="899" y="199" type="curve"/>
      <point x="899" y="80"/>
      <point x="999" y="0"/>
      <point x="1137" y="0" type="curve" smooth="yes"/>
      <point x="1393" y="0"/>
      <point x="1526" y="287"/>
    </contour>
    <contour>
      <point x="995" y="764" type="curve"/>
      <point x="881" y="272" type="line"/>
      <point x="823" y="164"/>
      <point x="743" y="100"/>
      <point x="678" y="100" type="curve" smooth="yes"/>
      <point x="614" y="100"/>
      <point x="567" y="158"/>
      <point x="567" y="281" type="curve" smooth="yes"/>
      <point x="567" y="492"/>
      <point x="770" y="764"/>
    </contour>
  </outline>
</glyph>
<glyph name="A" format="1">
  <advance width="1391"/>
  <unicode hex="0041"/>
  <outline>
    <contour>
      <point x="1313" y="1518" type="move" smooth="yes"/>
    </contour>
    <contour>
      <point x="422" y="-57" type="curve" smooth="yes"/>
      <point x="563" y="-57"/>
      <point x="752" y="45"/>
      <point x="895" y="193" type="curve"/>
      <point x="885" y="61"/>
      <point x="899" y="-57"/>
      <point x="1022" y="-57" type="curve" smooth="yes"/>
      <point x="1176" y="-57"/>
      <point x="1319" y="127"/>
      <point x="1513" y="330" type="curve"/>
      <point x="1513" y="442" type="line"/>
      <point x="1233" y="170"/>
      <point x="1231" y="166"/>
      <point x="1157" y="166" type="curve" smooth="yes"/>
      <point x="1098" y="166"/>
      <point x="1118" y="272"/>
      <point x="1141" y="385" type="curve"/>
      <point x="1161" y="489"/>
      <point x="1260" y="999"/>
      <point x="1343" y="1223" type="curve"/>
      <point x="1346" y="1227"/>
      <point x="1346" y="1233"/>
      <point x="1346" y="1239" type="curve" smooth="yes"/>
      <point x="1346" y="1264"/>
      <point x="1339" y="1272"/>
      <point x="1319" y="1272" type="curve" smooth="yes"/>
      <point x="1262" y="1272"/>
      <point x="1130" y="1270"/>
      <point x="1112" y="1210" type="curve"/>
      <point x="1077" y="1106"/>
      <point x="942" y="516"/>
      <point x="915" y="377" type="curve"/>
      <point x="891" y="246"/>
      <point x="739" y="135"/>
      <point x="625" y="135" type="curve" smooth="yes"/>
      <point x="449" y="135"/>
      <point x="338" y="248"/>
      <point x="338" y="463" type="curve" smooth="yes"/>
      <point x="338" y="893"/>
      <point x="891" y="1421"/>
      <point x="1253" y="1421" type="curve" smooth="yes"/>
      <point x="1393" y="1421"/>
      <point x="1503" y="1343"/>
      <point x="1544" y="1151" type="curve"/>
      <point x="1597" y="1165"/>
      <point x="1716" y="1260"/>
      <point x="1716" y="1321" type="curve" smooth="yes"/>
      <point x="1716" y="1470"/>
      <point x="1417" y="1518"/>
      <point x="1313" y="1518" type="curve" smooth="yes"/>
      <point x="735" y="1518"/>
      <point x="80" y="895"/>
      <point x="80" y="328" type="curve" smooth="yes"/>
      <point x="80" y="78"/>
      <point x="180" y="-57"/>
    </contour>
  </outline>
</glyph>
<glyph name="B" format="1">
  <advance width="1667"/>
  <unicode hex="0042"/>
  <outline>
    <contour>
      <point x="434" y="668" type="curve"/>
      <point x="440" y="688"/>
      <point x="457" y="764"/>
      <point x="457" y="834" type="curve"/>
      <point x="344" y="874"/>
      <point x="295" y="936"/>
      <point x="295" y="1004" type="curve" smooth="yes"/>
      <point x="295" y="1241"/>
      <point x="659" y="1391"/>
      <point x="893" y="1391" type="curve" smooth="yes"/>
      <point x="1110" y="1391"/>
      <point x="1368" y="1346"/>
      <point x="1368" y="1106" type="curve" smooth="yes"/>
      <point x="1368" y="973"/>
      <point x="1239" y="881"/>
      <point x="1059" y="872" type="curve"/>
      <point x="1059" y="756" type="line"/>
      <point x="1200" y="678"/>
      <point x="1292" y="500"/>
      <point x="1292" y="346" type="curve" smooth="yes"/>
      <point x="1292" y="211"/>
      <point x="1217" y="78"/>
      <point x="1030" y="78" type="curve" smooth="yes"/>
      <point x="901" y="78"/>
      <point x="774" y="160"/>
      <point x="735" y="266" type="curve"/>
      <point x="793" y="420"/>
      <point x="877" y="874"/>
      <point x="881" y="889" type="curve" smooth="yes"/>
      <point x="918" y="1020"/>
      <point x="948" y="1249"/>
      <point x="948" y="1249" type="curve"/>
      <point x="903" y="1249"/>
      <point x="729" y="1253"/>
      <point x="719" y="1192" type="curve"/>
      <point x="612" y="625" type="line" smooth="yes"/>
      <point x="580" y="455"/>
      <point x="514" y="41"/>
      <point x="319" y="41" type="curve" smooth="yes"/>
      <point x="215" y="41"/>
      <point x="209" y="135"/>
      <point x="209" y="213" type="curve" smooth="yes"/>
      <point x="209" y="248"/>
      <point x="211" y="281"/>
      <point x="211" y="303" type="curve"/>
      <point x="115" y="303"/>
      <point x="14" y="279"/>
      <point x="14" y="172" type="curve" smooth="yes"/>
      <point x="14" y="14"/>
      <point x="180" y="-57"/>
      <point x="301" y="-57" type="curve" smooth="yes"/>
      <point x="428" y="-57"/>
      <point x="541" y="-16"/>
      <point x="674" y="156" type="curve"/>
      <point x="758" y="14"/>
      <point x="887" y="-57"/>
      <point x="1094" y="-57" type="curve" smooth="yes"/>
      <point x="1352" y="-57"/>
      <point x="1577" y="68"/>
      <point x="1577" y="328" type="curve" smooth="yes"/>
      <point x="1577" y="489"/>
      <point x="1468" y="684"/>
      <point x="1196" y="823" type="curve"/>
      <point x="1475" y="827"/>
      <point x="1546" y="1022"/>
      <point x="1546" y="1126" type="curve" smooth="yes"/>
      <point x="1546" y="1401"/>
      <point x="1278" y="1518"/>
      <point x="977" y="1518" type="curve" smooth="yes"/>
      <point x="543" y="1518"/>
      <point x="133" y="1307"/>
      <point x="133" y="987" type="curve" smooth="yes"/>
      <point x="133" y="821"/>
      <point x="297" y="711"/>
    </contour>
  </outline>
</glyph>
<glyph name="C" format="1">
  <advance width="1268"/>
  <unicode hex="0043"/>
  <outline>
    <contour>
      <point x="954" y="1518" type="move" smooth="yes"/>
    </contour>
    <contour>
      <point x="926" y="1417" type="curve"/>
      <point x="1059" y="1417"/>
      <point x="1094" y="1149"/>
      <point x="1096" y="1149" type="curve"/>
      <point x="1096" y="1044"/>
      <point x="741" y="965"/>
      <point x="741" y="881" type="curve" smooth="yes"/>
      <point x="741" y="860"/>
      <point x="754" y="840"/>
      <point x="776" y="840" type="curve" smooth="yes"/>
      <point x="782" y="840"/>
      <point x="791" y="842"/>
      <point x="799" y="846" type="curve" smooth="yes"/>
      <point x="930" y="907"/>
      <point x="1147" y="1036"/>
      <point x="1278" y="1102" type="curve" smooth="yes"/>
      <point x="1307" y="1116"/>
      <point x="1315" y="1143"/>
      <point x="1315" y="1178" type="curve" smooth="yes"/>
      <point x="1315" y="1352"/>
      <point x="1159" y="1518"/>
      <point x="956" y="1518" type="curve" smooth="yes"/>
      <point x="358" y="1518"/>
      <point x="82" y="958"/>
      <point x="82" y="561" type="curve" smooth="yes"/>
      <point x="82" y="252"/>
      <point x="248" y="-57"/>
      <point x="616" y="-57" type="curve" smooth="yes"/>
      <point x="874" y="-57"/>
      <point x="1145" y="96"/>
      <point x="1403" y="340" type="curve"/>
      <point x="1403" y="451" type="line"/>
      <point x="1180" y="236"/>
      <point x="938" y="125"/>
      <point x="735" y="125" type="curve" smooth="yes"/>
      <point x="483" y="125"/>
      <point x="297" y="299"/>
      <point x="297" y="659" type="curve" smooth="yes"/>
      <point x="297" y="1004"/>
      <point x="547" y="1403"/>
    </contour>
  </outline>
</glyph>
<glyph name="D" format="1">
  <advance width="1726"/>
  <unicode hex="0044"/>
  <outline>
    <contour>
      <point x="1425" y="752" type="curve" smooth="yes"/>
      <point x="1425" y="334"/>
      <point x="1180" y="59"/>
      <point x="942" y="59" type="curve" smooth="yes"/>
      <point x="825" y="59"/>
      <point x="694" y="145"/>
      <point x="655" y="264" type="curve"/>
      <point x="829" y="623"/>
      <point x="831" y="934"/>
      <point x="885" y="1247" type="curve"/>
      <point x="791" y="1247" type="line" smooth="yes"/>
      <point x="762" y="1247"/>
      <point x="674" y="1243"/>
      <point x="662" y="1208" type="curve"/>
      <point x="543" y="594" type="line"/>
      <point x="475" y="311"/>
      <point x="416" y="182"/>
      <point x="397" y="143" type="curve"/>
      <point x="367" y="76"/>
      <point x="315" y="41"/>
      <point x="264" y="41" type="curve" smooth="yes"/>
      <point x="164" y="41"/>
      <point x="145" y="129"/>
      <point x="145" y="221" type="curve" smooth="yes"/>
      <point x="145" y="260"/>
      <point x="152" y="293"/>
      <point x="152" y="326" type="curve"/>
      <point x="51" y="326"/>
      <point x="-53" y="299"/>
      <point x="-53" y="184" type="curve" smooth="yes"/>
      <point x="-53" y="74"/>
      <point x="53" y="-55"/>
      <point x="203" y="-55" type="curve" smooth="yes"/>
      <point x="346" y="-55"/>
      <point x="471" y="-29"/>
      <point x="584" y="133" type="curve"/>
      <point x="682" y="-2"/>
      <point x="813" y="-57"/>
      <point x="950" y="-57" type="curve" smooth="yes"/>
      <point x="1368" y="-57"/>
      <point x="1683" y="342"/>
      <point x="1683" y="829" type="curve" smooth="yes"/>
      <point x="1683" y="1139"/>
      <point x="1468" y="1518"/>
      <point x="971" y="1518" type="curve" smooth="yes"/>
      <point x="346" y="1518"/>
      <point x="68" y="1243"/>
      <point x="68" y="1001" type="curve" smooth="yes"/>
      <point x="68" y="866"/>
      <point x="160" y="737"/>
      <point x="367" y="672" type="curve"/>
      <point x="377" y="690"/>
      <point x="393" y="768"/>
      <point x="393" y="834" type="curve"/>
      <point x="276" y="879"/>
      <point x="229" y="944"/>
      <point x="229" y="1014" type="curve" smooth="yes"/>
      <point x="229" y="1188"/>
      <point x="541" y="1393"/>
      <point x="840" y="1393" type="curve" smooth="yes"/>
      <point x="1257" y="1393"/>
      <point x="1425" y="1094"/>
    </contour>
  </outline>
</glyph>
<glyph name="E" format="1">
  <advance width="1403"/>
  <unicode hex="0045"/>
  <outline>
    <contour>
      <point x="948" y="1518" type="move" smooth="yes"/>
    </contour>
    <contour>
      <point x="1272" y="799" type="curve" smooth="yes"/>
      <point x="1193.9" y="799"/>
      <point x="1124" y="805"/>
      <point x="1053" y="805" type="curve" smooth="yes"/>
      <point x="967" y="805"/>
      <point x="887" y="801"/>
      <point x="809" y="795" type="curve"/>
      <point x="872" y="995"/>
      <point x="918" y="1196"/>
      <point x="963" y="1356" type="curve"/>
      <point x="1094" y="1350"/>
      <point x="1237" y="1311"/>
      <point x="1356" y="1311" type="curve" smooth="yes"/>
      <point x="1391" y="1311"/>
      <point x="1419" y="1325"/>
      <point x="1450" y="1346" type="curve"/>
      <point x="1550" y="1460" type="line"/>
      <point x="1563" y="1473"/>
      <point x="1569" y="1479"/>
      <point x="1569" y="1491" type="curve" smooth="yes"/>
      <point x="1569" y="1516"/>
      <point x="1237" y="1518"/>
      <point x="948" y="1518" type="curve" smooth="yes"/>
      <point x="657" y="1518" type="line" smooth="yes"/>
      <point x="248" y="1518"/>
      <point x="2" y="1356"/>
      <point x="2" y="1120" type="curve" smooth="yes"/>
      <point x="2" y="1012"/>
      <point x="106" y="899"/>
      <point x="317" y="825" type="curve"/>
      <point x="332" y="838"/>
      <point x="346" y="907"/>
      <point x="346" y="952" type="curve"/>
      <point x="219" y="999"/>
      <point x="150" y="1069"/>
      <point x="150" y="1143" type="curve" smooth="yes"/>
      <point x="150" y="1276"/>
      <point x="287" y="1368"/>
      <point x="635" y="1368" type="curve" smooth="yes"/>
      <point x="696" y="1368"/>
      <point x="766" y="1366"/>
      <point x="842" y="1360" type="curve"/>
      <point x="675.837" y="1247.73"/>
      <point x="634.477" y="1052.88"/>
      <point x="551" y="760" type="curve"/>
      <point x="446" y="739"/>
      <point x="369.701" y="716.781"/>
      <point x="326" y="702" type="curve" smooth="yes"/>
      <point x="301.701" y="693.781"/>
      <point x="274" y="686"/>
      <point x="274" y="637" type="curve" smooth="yes"/>
      <point x="274" y="555.044"/>
      <point x="468.703" y="624.643"/>
      <point x="514" y="631" type="curve"/>
      <point x="467" y="461"/>
      <point x="426" y="315"/>
      <point x="401" y="279" type="curve"/>
      <point x="145" y="162" type="line"/>
      <point x="102" y="141"/>
      <point x="-8" y="106"/>
      <point x="-8" y="43" type="curve" smooth="yes"/>
      <point x="-8" y="-45"/>
      <point x="86" y="-57"/>
      <point x="100" y="-57" type="curve" smooth="yes"/>
      <point x="193" y="-57"/>
      <point x="330" y="20"/>
      <point x="442" y="109" type="curve"/>
      <point x="877" y="-23"/>
      <point x="872" y="-57"/>
      <point x="893" y="-57" type="curve" smooth="yes"/>
      <point x="1126" y="-57"/>
      <point x="1274" y="106"/>
      <point x="1524" y="328" type="curve"/>
      <point x="1524" y="438" type="line"/>
      <point x="1389" y="297"/>
      <point x="1194" y="150"/>
      <point x="1163" y="145" type="curve"/>
      <point x="1128" y="127"/>
      <point x="1106" y="119"/>
      <point x="1079" y="119" type="curve" smooth="yes"/>
      <point x="1016" y="119"/>
      <point x="752" y="227"/>
      <point x="711" y="240" type="curve"/>
      <point x="698" y="238"/>
      <point x="684" y="238"/>
      <point x="674" y="238" type="curve" smooth="yes"/>
      <point x="653" y="238"/>
      <point x="635" y="240"/>
      <point x="616" y="240" type="curve" smooth="yes"/>
      <point x="606" y="240"/>
      <point x="594" y="238"/>
      <point x="584" y="238" type="curve"/>
      <point x="657" y="360"/>
      <point x="731" y="500"/>
      <point x="774" y="657" type="curve"/>
      <point x="774" y="659" type="line"/>
      <point x="913" y="670"/>
      <point x="1051" y="670"/>
      <point x="1208" y="670" type="curve" smooth="yes"/>
      <point x="1262" y="670"/>
      <point x="1309" y="729"/>
      <point x="1309" y="766" type="curve" smooth="yes"/>
      <point x="1309" y="784"/>
      <point x="1298" y="799"/>
    </contour>
  </outline>
</glyph>
<glyph name="F" format="1">
  <advance width="1313"/>
  <unicode hex="0046"/>
  <outline>
    <contour>
      <point x="1272" y="799" type="curve"/>
      <point x="1194" y="803"/>
      <point x="1124" y="805"/>
      <point x="1053" y="805" type="curve" smooth="yes"/>
      <point x="995" y="805"/>
      <point x="942" y="801"/>
      <point x="891" y="795" type="curve"/>
      <point x="922" y="963"/>
      <point x="952" y="1145"/>
      <point x="989" y="1335" type="curve"/>
      <point x="1120" y="1325"/>
      <point x="1237" y="1305"/>
      <point x="1368" y="1305" type="curve"/>
      <point x="1509" y="1516" type="line"/>
      <point x="1419" y="1516"/>
      <point x="1331" y="1518"/>
      <point x="1233" y="1518" type="curve" smooth="yes"/>
      <point x="1085" y="1518"/>
      <point x="942" y="1516"/>
      <point x="813" y="1507" type="curve"/>
      <point x="344" y="1468"/>
      <point x="63" y="1260"/>
      <point x="63" y="1016" type="curve" smooth="yes"/>
      <point x="63" y="885"/>
      <point x="158" y="752"/>
      <point x="379" y="662" type="curve"/>
      <point x="391" y="678"/>
      <point x="408" y="772"/>
      <point x="408" y="829" type="curve"/>
      <point x="295" y="879"/>
      <point x="248" y="948"/>
      <point x="248" y="1022" type="curve" smooth="yes"/>
      <point x="248" y="1171"/>
      <point x="535" y="1341"/>
      <point x="854" y="1341" type="curve" smooth="yes"/>
      <point x="868" y="1341"/>
      <point x="885" y="1339"/>
      <point x="899" y="1339" type="curve"/>
      <point x="858" y="1313"/>
      <point x="817" y="1270"/>
      <point x="784" y="1221" type="curve"/>
      <point x="748" y="1159"/>
      <point x="707" y="967"/>
      <point x="657" y="750" type="curve"/>
      <point x="602" y="733"/>
      <point x="557" y="715"/>
      <point x="530" y="702" type="curve"/>
      <point x="508" y="694"/>
      <point x="479" y="680"/>
      <point x="479" y="616" type="curve" smooth="yes"/>
      <point x="479" y="571"/>
      <point x="530" y="573"/>
      <point x="537" y="575" type="curve" smooth="yes"/>
      <point x="623" y="600" type="line"/>
      <point x="541" y="262"/>
      <point x="436" y="-82"/>
      <point x="293" y="-82" type="curve"/>
      <point x="207" y="-76"/>
      <point x="184" y="-16"/>
      <point x="184" y="70" type="curve" smooth="yes"/>
      <point x="184" y="109"/>
      <point x="186" y="156"/>
      <point x="195" y="205" type="curve"/>
      <point x="23" y="205"/>
      <point x="-18" y="131"/>
      <point x="-18" y="49" type="curve" smooth="yes"/>
      <point x="-18" y="-47"/>
      <point x="68" y="-180"/>
      <point x="252" y="-180" type="curve" smooth="yes"/>
      <point x="627" y="-180"/>
      <point x="758" y="152"/>
      <point x="860" y="639" type="curve"/>
      <point x="973" y="649"/>
      <point x="1085" y="649"/>
      <point x="1208" y="649" type="curve" smooth="yes"/>
      <point x="1262" y="649"/>
      <point x="1309" y="721"/>
      <point x="1309" y="766" type="curve" smooth="yes"/>
      <point x="1309" y="784"/>
      <point x="1298" y="799"/>
    </contour>
  </outline>
</glyph>
<glyph name="G" format="1">
  <advance width="1458"/>
  <unicode hex="0047"/>
  <outline>
    <contour>
      <point x="743" y="-467" type="curve" smooth="yes"/>
      <point x="936" y="-467"/>
      <point x="1094" y="-315"/>
      <point x="1157" y="-10" type="curve"/>
      <point x="1239" y="23"/>
      <point x="1475" y="215"/>
      <point x="1583" y="330" type="curve"/>
      <point x="1583" y="440" type="line"/>
      <point x="1454" y="313"/>
      <point x="1284" y="164"/>
      <point x="1188" y="119" type="curve"/>
      <point x="1307" y="621" type="line"/>
      <point x="1108" y="621" type="line"/>
      <point x="1102" y="586"/>
      <point x="1067" y="446"/>
      <point x="1061" y="434" type="curve"/>
      <point x="961" y="354"/>
      <point x="854" y="293"/>
      <point x="729" y="293" type="curve" smooth="yes"/>
      <point x="584" y="293"/>
      <point x="477" y="444"/>
      <point x="444" y="586" type="curve"/>
      <point x="1274" y="1020" type="line"/>
      <point x="1337" y="1049" type="line"/>
      <point x="1403" y="1077"/>
      <point x="1444" y="1087"/>
      <point x="1444" y="1188" type="curve" smooth="yes"/>
      <point x="1444" y="1343"/>
      <point x="1284" y="1518"/>
      <point x="1073" y="1518" type="curve" smooth="yes"/>
      <point x="561" y="1518"/>
      <point x="172" y="1067"/>
      <point x="172" y="559" type="curve"/>
      <point x="168" y="541"/>
      <point x="-35" y="440"/>
      <point x="-96" y="403" type="curve"/>
      <point x="-111" y="397"/>
      <point x="-117" y="377"/>
      <point x="-117" y="356" type="curve" smooth="yes"/>
      <point x="-117" y="332"/>
      <point x="-106" y="299"/>
      <point x="-88" y="299" type="curve" smooth="yes"/>
      <point x="-70" y="299"/>
      <point x="2" y="344"/>
      <point x="70" y="383" type="curve" smooth="yes"/>
      <point x="190" y="453" type="line"/>
      <point x="258" y="272"/>
      <point x="369" y="117"/>
      <point x="551" y="117" type="curve" smooth="yes"/>
      <point x="696" y="117"/>
      <point x="924" y="244"/>
      <point x="1055" y="371" type="curve"/>
      <point x="1038" y="285" type="line"/>
      <point x="1026" y="199"/>
      <point x="985" y="45"/>
      <point x="985" y="45" type="curve"/>
      <point x="528" y="-88" type="line"/>
      <point x="471" y="-102"/>
      <point x="446" y="-164"/>
      <point x="446" y="-221" type="curve" smooth="yes"/>
      <point x="446" y="-369"/>
      <point x="614" y="-467"/>
    </contour>
    <contour>
      <point x="954" y="-74" type="curve"/>
      <point x="942" y="-141"/>
      <point x="877" y="-408"/>
      <point x="766" y="-408" type="curve" smooth="yes"/>
      <point x="670" y="-408"/>
      <point x="621" y="-319"/>
      <point x="621" y="-242" type="curve" smooth="yes"/>
      <point x="621" y="-131"/>
      <point x="821" y="-129"/>
    </contour>
    <contour>
      <point x="1139" y="1036" type="curve"/>
      <point x="1108" y="1024"/>
      <point x="979" y="954"/>
      <point x="844" y="887" type="curve" smooth="yes"/>
      <point x="426" y="678" type="line"/>
      <point x="426" y="1028"/>
      <point x="694" y="1430"/>
      <point x="1042" y="1430" type="curve" smooth="yes"/>
      <point x="1130" y="1430"/>
      <point x="1231" y="1274"/>
      <point x="1231" y="1130" type="curve" smooth="yes"/>
      <point x="1231" y="1092"/>
      <point x="1217" y="1071"/>
    </contour>
  </outline>
</glyph>
<glyph name="H" format="1">
  <advance width="1870"/>
  <unicode hex="0048"/>
  <outline>
    <contour>
      <point x="322" y="819" type="curve"/>
      <point x="346" y="850"/>
      <point x="352" y="915"/>
      <point x="352" y="954" type="curve"/>
      <point x="279" y="985"/>
      <point x="160" y="1047"/>
      <point x="160" y="1141" type="curve" smooth="yes"/>
      <point x="160" y="1294"/>
      <point x="469" y="1327"/>
      <point x="575" y="1327" type="curve" smooth="yes"/>
      <point x="727" y="1327"/>
      <point x="864" y="1280"/>
      <point x="1012" y="1266" type="curve"/>
      <point x="838" y="1174"/>
      <point x="786" y="1008"/>
      <point x="739" y="793" type="curve"/>
      <point x="735" y="774" type="line"/>
      <point x="627" y="758"/>
      <point x="541" y="741"/>
      <point x="483" y="727" type="curve"/>
      <point x="461" y="719"/>
      <point x="432" y="705"/>
      <point x="432" y="641" type="curve" smooth="yes"/>
      <point x="432" y="592"/>
      <point x="496" y="600"/>
      <point x="489" y="600" type="curve"/>
      <point x="702" y="631" type="line"/>
      <point x="659" y="416"/>
      <point x="602" y="53"/>
      <point x="393" y="53" type="curve" smooth="yes"/>
      <point x="299" y="53"/>
      <point x="291" y="168"/>
      <point x="291" y="256" type="curve" smooth="yes"/>
      <point x="291" y="315" type="line"/>
      <point x="178" y="315"/>
      <point x="55" y="301"/>
      <point x="55" y="195" type="curve" smooth="yes"/>
      <point x="55" y="111"/>
      <point x="147" y="-55"/>
      <point x="383" y="-55" type="curve" smooth="yes"/>
      <point x="774" y="-55"/>
      <point x="854" y="362"/>
      <point x="932" y="657" type="curve"/>
      <point x="1024" y="666"/>
      <point x="1114" y="674"/>
      <point x="1206" y="680" type="curve"/>
      <point x="1184" y="590"/>
      <point x="1161" y="432"/>
      <point x="1161" y="291" type="curve" smooth="yes"/>
      <point x="1161" y="39"/>
      <point x="1251" y="-55"/>
      <point x="1368" y="-55" type="curve" smooth="yes"/>
      <point x="1556" y="-55"/>
      <point x="1808" y="123"/>
      <point x="1993" y="328" type="curve"/>
      <point x="1995" y="442" type="line"/>
      <point x="1831" y="268"/>
      <point x="1622" y="90"/>
      <point x="1470" y="90" type="curve" smooth="yes"/>
      <point x="1384" y="90"/>
      <point x="1319" y="178"/>
      <point x="1319" y="414" type="curve" smooth="yes"/>
      <point x="1319" y="502"/>
      <point x="1337" y="602"/>
      <point x="1362" y="688" type="curve"/>
      <point x="1450" y="692"/>
      <point x="1538" y="694"/>
      <point x="1632" y="694" type="curve" smooth="yes"/>
      <point x="1686" y="694"/>
      <point x="1733" y="754"/>
      <point x="1733" y="791" type="curve" smooth="yes"/>
      <point x="1733" y="807"/>
      <point x="1722" y="823"/>
      <point x="1696" y="823" type="curve"/>
      <point x="1620" y="827"/>
      <point x="1548" y="829"/>
      <point x="1477" y="829" type="curve" smooth="yes"/>
      <point x="1403" y="829" type="line"/>
      <point x="1495" y="1040"/>
      <point x="1671" y="1348"/>
      <point x="1903" y="1348" type="curve" smooth="yes"/>
      <point x="1991" y="1348"/>
      <point x="2032" y="1266"/>
      <point x="2054" y="1192" type="curve"/>
      <point x="2062" y="1171" type="line"/>
      <point x="2109" y="1174"/>
      <point x="2236" y="1290"/>
      <point x="2236" y="1341" type="curve" smooth="yes"/>
      <point x="2236" y="1456"/>
      <point x="2040" y="1516"/>
      <point x="1950" y="1516" type="curve" smooth="yes"/>
      <point x="1628" y="1516"/>
      <point x="1366" y="1147"/>
      <point x="1245" y="823" type="curve"/>
      <point x="1145" y="819"/>
      <point x="1051" y="813"/>
      <point x="967" y="805" type="curve"/>
      <point x="1028" y="977"/>
      <point x="1081" y="1139"/>
      <point x="1186" y="1286" type="curve"/>
      <point x="1251" y="1327"/>
      <point x="1290" y="1411"/>
      <point x="1303" y="1489" type="curve"/>
      <point x="1229" y="1485"/>
      <point x="1163" y="1444"/>
      <point x="1079" y="1444" type="curve" smooth="yes"/>
      <point x="889" y="1444"/>
      <point x="713" y="1516"/>
      <point x="522" y="1516" type="curve" smooth="yes"/>
      <point x="301" y="1516"/>
      <point x="4" y="1411"/>
      <point x="4" y="1149" type="curve" smooth="yes"/>
      <point x="4" y="981"/>
      <point x="184" y="872"/>
    </contour>
  </outline>
</glyph>
<glyph name="I" format="1">
  <advance width="1061"/>
  <unicode hex="0049"/>
  <outline>
    <contour>
      <point x="1217" y="1518" type="move" name="top"/>
    </contour>
    <contour>
      <point x="498" y="-29" type="move" name="bot"/>
    </contour>
    <contour>
      <point x="1057" y="793" type="line" smooth="yes"/>
      <point x="1098" y="979"/>
      <point x="1157" y="1153"/>
      <point x="1249" y="1311" type="curve"/>
      <point x="1337" y="1341"/>
      <point x="1386" y="1440"/>
      <point x="1401" y="1530" type="curve"/>
      <point x="1327" y="1526"/>
      <point x="1262" y="1485"/>
      <point x="1178" y="1485" type="curve" smooth="yes"/>
      <point x="649" y="1485"/>
      <point x="362" y="1112"/>
      <point x="362" y="954" type="curve" smooth="yes"/>
      <point x="362" y="852"/>
      <point x="485" y="727"/>
      <point x="819" y="702" type="curve"/>
      <point x="805" y="625" type="line" smooth="yes"/>
      <point x="774" y="455"/>
      <point x="707" y="41"/>
      <point x="512" y="41" type="curve" smooth="yes"/>
      <point x="408" y="41"/>
      <point x="401" y="135"/>
      <point x="401" y="213" type="curve" smooth="yes"/>
      <point x="401" y="248"/>
      <point x="403" y="281"/>
      <point x="403" y="303" type="curve"/>
      <point x="307" y="303"/>
      <point x="207" y="279"/>
      <point x="207" y="172" type="curve" smooth="yes"/>
      <point x="207" y="14"/>
      <point x="373" y="-57"/>
      <point x="494" y="-57" type="curve" smooth="yes"/>
      <point x="883" y="-57"/>
      <point x="965" y="352"/>
      <point x="1024" y="647" type="curve"/>
    </contour>
    <contour>
      <point x="526" y="950" type="curve" smooth="yes"/>
      <point x="526" y="1012"/>
      <point x="698" y="1303"/>
      <point x="1145" y="1303" type="curve"/>
      <point x="975" y="1210"/>
      <point x="905" y="1032"/>
      <point x="854" y="842" type="curve"/>
      <point x="625" y="854"/>
      <point x="526" y="897"/>
    </contour>
  </outline>
</glyph>
<glyph name="I" format="1">
  <advance width="1061"/>
  <unicode hex="0049"/>
  <outline>
    <contour>
      <point x="1057" y="793" type="line"/>
      <point x="1098" y="979"/>
      <point x="1157" y="1153"/>
      <point x="1249" y="1311" type="curve"/>
      <point x="1337" y="1341"/>
      <point x="1386" y="1440"/>
      <point x="1401" y="1530" type="curve"/>
      <point x="1327" y="1526"/>
      <point x="1262" y="1485"/>
      <point x="1178" y="1485" type="curve" smooth="yes"/>
      <point x="649" y="1485"/>
      <point x="362" y="1112"/>
      <point x="362" y="954" type="curve" smooth="yes"/>
      <point x="362" y="852"/>
      <point x="485" y="727"/>
      <point x="819" y="702" type="curve"/>
      <point x="805" y="625" type="line" smooth="yes"/>
      <point x="774" y="455"/>
      <point x="707" y="41"/>
      <point x="512" y="41" type="curve" smooth="yes"/>
      <point x="408" y="41"/>
      <point x="401" y="135"/>
      <point x="401" y="213" type="curve" smooth="yes"/>
      <point x="401" y="248"/>
      <point x="403" y="281"/>
      <point x="403" y="303" type="curve"/>
      <point x="307" y="303"/>
      <point x="207" y="279"/>
      <point x="207" y="172" type="curve" smooth="yes"/>
      <point x="207" y="14"/>
      <point x="373" y="-57"/>
      <point x="494" y="-57" type="curve" smooth="yes"/>
      <point x="883" y="-57"/>
      <point x="965" y="352"/>
      <point x="1024" y="647" type="curve"/>
    </contour>
    <contour>
      <point x="526" y="950" type="curve" smooth="yes"/>
      <point x="526" y="1012"/>
      <point x="698" y="1303"/>
      <point x="1145" y="1303" type="curve"/>
      <point x="975" y="1210"/>
      <point x="905" y="1032"/>
      <point x="854" y="842" type="curve"/>
      <point x="625" y="854"/>
      <point x="526" y="897"/>
    </contour>
  </outline>
</glyph>
<glyph name="J" format="1">
  <advance width="1077"/>
  <unicode hex="004A"/>
  <outline>
    <contour>
      <point x="1073" y="1311" type="curve"/>
      <point x="1161" y="1341"/>
      <point x="1210" y="1440"/>
      <point x="1225" y="1530" type="curve"/>
      <point x="1151" y="1526"/>
      <point x="1085" y="1485"/>
      <point x="1001" y="1485" type="curve" smooth="yes"/>
      <point x="432" y="1485"/>
      <point x="143" y="1051"/>
      <point x="193" y="922" type="curve"/>
      <point x="221" y="823"/>
      <point x="350" y="717"/>
      <point x="676" y="700" type="curve"/>
      <point x="676" y="698" type="line"/>
      <point x="653" y="575"/>
      <point x="573" y="268"/>
      <point x="541" y="74" type="curve"/>
      <point x="123" y="-39" type="line" smooth="yes"/>
      <point x="63" y="-55"/>
      <point x="39" y="-127"/>
      <point x="39" y="-184" type="curve" smooth="yes"/>
      <point x="39" y="-330"/>
      <point x="203" y="-428"/>
      <point x="330" y="-428" type="curve" smooth="yes"/>
      <point x="516" y="-428"/>
      <point x="668" y="-281"/>
      <point x="731" y="10" type="curve"/>
      <point x="827" y="45"/>
      <point x="1096" y="199"/>
      <point x="1210" y="334" type="curve"/>
      <point x="1210" y="446" type="line"/>
      <point x="1016" y="256"/>
      <point x="895" y="219"/>
      <point x="754" y="133" type="curve"/>
      <point x="872" y="700" type="line"/>
      <point x="954" y="707"/>
      <point x="1047" y="721"/>
      <point x="1145" y="748" type="curve"/>
      <point x="1169" y="774"/>
      <point x="1176" y="829"/>
      <point x="1176" y="862" type="curve"/>
      <point x="1073" y="846"/>
      <point x="983" y="840"/>
      <point x="901" y="840" type="curve"/>
      <point x="940" y="1008"/>
      <point x="989" y="1165"/>
    </contour>
    <contour>
      <point x="350" y="950" type="curve" smooth="yes"/>
      <point x="350" y="1012"/>
      <point x="522" y="1303"/>
      <point x="969" y="1303" type="curve"/>
      <point x="819" y="1210"/>
      <point x="752" y="1030"/>
      <point x="707" y="840" type="curve"/>
      <point x="457" y="850"/>
      <point x="350" y="895"/>
    </contour>
    <contour>
      <point x="524" y="-66" type="curve"/>
      <point x="504" y="-160"/>
      <point x="451" y="-356"/>
      <point x="352" y="-356" type="curve" smooth="yes"/>
      <point x="264" y="-356"/>
      <point x="221" y="-276"/>
      <point x="221" y="-205" type="curve" smooth="yes"/>
      <point x="221" y="-106"/>
      <point x="395" y="-109"/>
    </contour>
  </outline>
</glyph>
<glyph name="K" format="1">
  <advance width="1888"/>
  <unicode hex="004B"/>
  <outline>
    <contour>
      <point x="317" y="819" type="curve"/>
      <point x="342" y="850"/>
      <point x="348" y="915"/>
      <point x="348" y="954" type="curve"/>
      <point x="274" y="985"/>
      <point x="156" y="1047"/>
      <point x="156" y="1141" type="curve" smooth="yes"/>
      <point x="156" y="1294"/>
      <point x="465" y="1327"/>
      <point x="571" y="1327" type="curve" smooth="yes"/>
      <point x="717" y="1327"/>
      <point x="848" y="1282"/>
      <point x="987" y="1266" type="curve"/>
      <point x="813" y="1176"/>
      <point x="762" y="1008"/>
      <point x="715" y="793" type="curve" smooth="yes"/>
      <point x="694" y="698" type="line"/>
      <point x="647" y="506"/>
      <point x="602" y="53"/>
      <point x="369" y="53" type="curve" smooth="yes"/>
      <point x="274" y="53"/>
      <point x="266" y="168"/>
      <point x="266" y="256" type="curve" smooth="yes"/>
      <point x="266" y="315" type="line"/>
      <point x="154" y="315"/>
      <point x="31" y="301"/>
      <point x="31" y="195" type="curve" smooth="yes"/>
      <point x="31" y="111"/>
      <point x="123" y="-55"/>
      <point x="358" y="-55" type="curve" smooth="yes"/>
      <point x="709" y="-55"/>
      <point x="803" y="287"/>
      <point x="891" y="625" type="curve"/>
      <point x="1085" y="719" type="line"/>
      <point x="1284" y="270" type="line"/>
      <point x="1397" y="35"/>
      <point x="1485" y="-53"/>
      <point x="1573" y="-53" type="curve" smooth="yes"/>
      <point x="1651" y="-53"/>
      <point x="1837" y="135"/>
      <point x="2009" y="324" type="curve"/>
      <point x="2009" y="436" type="line"/>
      <point x="1819" y="246"/>
      <point x="1708" y="137"/>
      <point x="1647" y="117" type="curve" smooth="yes"/>
      <point x="1585" y="96"/>
      <point x="1540" y="213"/>
      <point x="1442" y="393" type="curve"/>
      <point x="1233" y="803" type="line"/>
      <point x="1470" y="1018"/>
      <point x="1565" y="1348"/>
      <point x="1862" y="1348" type="curve" smooth="yes"/>
      <point x="1950" y="1348"/>
      <point x="1991" y="1266"/>
      <point x="2013" y="1192" type="curve"/>
      <point x="2021" y="1171" type="line"/>
      <point x="2068" y="1174"/>
      <point x="2195" y="1290"/>
      <point x="2195" y="1341" type="curve" smooth="yes"/>
      <point x="2195" y="1493"/>
      <point x="1884" y="1518"/>
      <point x="1862" y="1518" type="curve" smooth="yes"/>
      <point x="1530" y="1518"/>
      <point x="1292" y="1110"/>
      <point x="920" y="731" type="curve"/>
      <point x="938" y="793" type="line"/>
      <point x="991" y="971"/>
      <point x="1051" y="1137"/>
      <point x="1161" y="1286" type="curve"/>
      <point x="1227" y="1327"/>
      <point x="1266" y="1411"/>
      <point x="1278" y="1489" type="curve"/>
      <point x="1204" y="1485"/>
      <point x="1139" y="1444"/>
      <point x="1055" y="1444" type="curve" smooth="yes"/>
      <point x="870" y="1444"/>
      <point x="702" y="1516"/>
      <point x="518" y="1516" type="curve" smooth="yes"/>
      <point x="297" y="1516"/>
      <point x="0" y="1411"/>
      <point x="0" y="1149" type="curve" smooth="yes"/>
      <point x="0" y="981"/>
      <point x="180" y="872"/>
    </contour>
  </outline>
</glyph>
<glyph name="L" format="1">
  <advance width="1255"/>
  <unicode hex="004C"/>
  <outline>
    <contour>
      <point x="702" y="1067" type="curve"/>
      <point x="721" y="1155"/>
      <point x="899" y="1405"/>
      <point x="1001" y="1417" type="curve"/>
      <point x="1137" y="1417"/>
      <point x="1167" y="1147"/>
      <point x="1171" y="1147" type="curve"/>
      <point x="1167" y="1042"/>
      <point x="817" y="963"/>
      <point x="817" y="881" type="curve" smooth="yes"/>
      <point x="817" y="860"/>
      <point x="829" y="840"/>
      <point x="852" y="840" type="curve" smooth="yes"/>
      <point x="858" y="840"/>
      <point x="866" y="842"/>
      <point x="874" y="846" type="curve" smooth="yes"/>
      <point x="1006" y="907"/>
      <point x="1223" y="1036"/>
      <point x="1354" y="1102" type="curve" smooth="yes"/>
      <point x="1382" y="1116"/>
      <point x="1391" y="1143"/>
      <point x="1391" y="1178" type="curve" smooth="yes"/>
      <point x="1391" y="1352"/>
      <point x="1225" y="1518"/>
      <point x="1053" y="1518" type="curve" smooth="yes"/>
      <point x="956" y="1518"/>
      <point x="694" y="1335"/>
      <point x="633" y="1290" type="curve" smooth="yes"/>
      <point x="569" y="1243"/>
      <point x="522" y="1217"/>
      <point x="500" y="1137" type="curve" smooth="yes"/>
      <point x="268" y="309" type="line"/>
      <point x="6" y="190" type="line" smooth="yes"/>
      <point x="-37" y="170"/>
      <point x="-147" y="135"/>
      <point x="-147" y="72" type="curve" smooth="yes"/>
      <point x="-147" y="-16"/>
      <point x="-53" y="-29"/>
      <point x="-39" y="-29" type="curve" smooth="yes"/>
      <point x="59" y="-29"/>
      <point x="205" y="39"/>
      <point x="324" y="117" type="curve"/>
      <point x="737" y="-33"/>
      <point x="733" y="-57"/>
      <point x="754" y="-57" type="curve" smooth="yes"/>
      <point x="987" y="-57"/>
      <point x="1200" y="150"/>
      <point x="1376" y="326" type="curve"/>
      <point x="1376" y="438" type="line"/>
      <point x="1081" y="131"/>
      <point x="969" y="119"/>
      <point x="940" y="119" type="curve" smooth="yes"/>
      <point x="872" y="119"/>
      <point x="594" y="227"/>
      <point x="551" y="240" type="curve"/>
      <point x="520" y="248"/>
      <point x="498" y="258"/>
      <point x="469" y="266" type="curve"/>
      <point x="586" y="541"/>
      <point x="651" y="817"/>
    </contour>
  </outline>
</glyph>
<glyph name="M" format="1">
  <advance width="1712"/>
  <unicode hex="004D"/>
  <outline>
    <contour>
      <point x="-365" y="-260" type="curve" smooth="yes"/>
      <point x="-195" y="-260"/>
      <point x="41" y="-14"/>
      <point x="121" y="131" type="curve"/>
      <point x="600" y="1128" type="line"/>
      <point x="614" y="1128" type="line"/>
      <point x="586" y="41" type="line" smooth="yes"/>
      <point x="586" y="23"/>
      <point x="598" y="-6"/>
      <point x="639" y="-18" type="curve"/>
      <point x="692" y="10"/>
      <point x="1206" y="1028"/>
      <point x="1303" y="1219" type="curve" smooth="yes"/>
      <point x="1305" y="1225"/>
      <point x="1311" y="1231"/>
      <point x="1321" y="1231" type="curve" smooth="yes"/>
      <point x="1331" y="1231"/>
      <point x="1331" y="1225"/>
      <point x="1331" y="1214" type="curve" smooth="yes"/>
      <point x="1331" y="1194"/>
      <point x="1303" y="1087"/>
      <point x="1296" y="1026" type="curve"/>
      <point x="1255" y="791"/>
      <point x="1171" y="391"/>
      <point x="1171" y="154" type="curve" smooth="yes"/>
      <point x="1171" y="4"/>
      <point x="1212" y="-55"/>
      <point x="1284" y="-55" type="curve" smooth="yes"/>
      <point x="1401" y="-55"/>
      <point x="1614" y="111"/>
      <point x="1833" y="324" type="curve"/>
      <point x="1833" y="438" type="line"/>
      <point x="1735" y="342"/>
      <point x="1522" y="141"/>
      <point x="1458" y="141" type="curve" smooth="yes"/>
      <point x="1423" y="141"/>
      <point x="1411" y="176"/>
      <point x="1411" y="238" type="curve" smooth="yes"/>
      <point x="1411" y="492"/>
      <point x="1540" y="1139"/>
      <point x="1624" y="1575" type="curve"/>
      <point x="1622" y="1577"/>
      <point x="1616" y="1577"/>
      <point x="1616" y="1579" type="curve"/>
      <point x="1544" y="1577"/>
      <point x="1360" y="1491"/>
      <point x="1323" y="1430" type="curve"/>
      <point x="1325" y="1432" type="line"/>
      <point x="954" y="680"/>
      <point x="897" y="596"/>
      <point x="846" y="485" type="curve"/>
      <point x="831" y="485" type="line"/>
      <point x="854" y="842"/>
      <point x="860" y="1202"/>
      <point x="907" y="1554" type="curve"/>
      <point x="903" y="1556"/>
      <point x="895" y="1559"/>
      <point x="895" y="1561" type="curve"/>
      <point x="778" y="1561"/>
      <point x="662" y="1491"/>
      <point x="608" y="1391" type="curve"/>
      <point x="455" y="1065"/>
      <point x="201" y="539"/>
      <point x="49" y="213" type="curve"/>
      <point x="-80" y="-16"/>
      <point x="-412" y="14"/>
      <point x="-412" y="-123" type="curve" smooth="yes"/>
      <point x="-412" y="-229"/>
      <point x="-393" y="-260"/>
    </contour>
  </outline>
</glyph>
<glyph name="N" format="1">
  <advance width="1473"/>
  <unicode hex="004E"/>
  <outline>
    <contour>
      <point x="1341" y="195" type="line"/>
      <point x="1307" y="160"/>
      <point x="1278" y="147"/>
      <point x="1257" y="147" type="curve" smooth="yes"/>
      <point x="1198" y="147"/>
      <point x="1188" y="260"/>
      <point x="1188" y="346" type="curve" smooth="yes"/>
      <point x="1188" y="659"/>
      <point x="1354" y="1341"/>
      <point x="1354" y="1423" type="curve" smooth="yes"/>
      <point x="1354" y="1475"/>
      <point x="1331" y="1516"/>
      <point x="1270" y="1516" type="curve" smooth="yes"/>
      <point x="1188" y="1516"/>
      <point x="932" y="1495"/>
      <point x="549" y="1040" type="curve"/>
      <point x="565" y="1122" type="line"/>
      <point x="565" y="1161"/>
      <point x="643" y="1397"/>
      <point x="643" y="1497" type="curve" smooth="yes"/>
      <point x="643" y="1509"/>
      <point x="635" y="1516"/>
      <point x="623" y="1516" type="curve" smooth="yes"/>
      <point x="580" y="1516"/>
      <point x="487" y="1460"/>
      <point x="453" y="1438" type="curve" smooth="yes"/>
      <point x="23" y="1167" type="line" smooth="yes"/>
      <point x="2" y="1153"/>
      <point x="-2" y="1139"/>
      <point x="-2" y="1126" type="curve" smooth="yes"/>
      <point x="-2" y="1100"/>
      <point x="4" y="1075"/>
      <point x="25" y="1075" type="curve"/>
      <point x="55" y="1085" type="line"/>
      <point x="377" y="1313" type="line"/>
      <point x="295" y="995" type="line"/>
      <point x="209" y="612"/>
      <point x="66" y="211"/>
      <point x="66" y="0" type="curve"/>
      <point x="272" y="0" type="line"/>
      <point x="297" y="100"/>
      <point x="330.913" y="299.691"/>
      <point x="371" y="442" type="curve" smooth="yes"/>
      <point x="471" y="797"/>
      <point x="708.129" y="1144.57"/>
      <point x="1033" y="1309" type="curve" smooth="yes"/>
      <point x="1045.52" y="1315.33"/>
      <point x="1056.62" y="1318.2"/>
      <point x="1066.23" y="1318.2" type="curve" smooth="yes"/>
      <point x="1095.24" y="1318.2"/>
      <point x="1110.72" y="1292.14"/>
      <point x="1110.72" y="1256.85" type="curve" smooth="yes"/>
      <point x="1110.72" y="1240.05"/>
      <point x="1107.22" y="1221.17"/>
      <point x="1100" y="1202" type="curve"/>
      <point x="1010" y="918.059"/>
      <point x="963" y="581.444"/>
      <point x="963" y="262" type="curve" smooth="yes"/>
      <point x="963" y="143"/>
      <point x="977" y="-57"/>
      <point x="1100" y="-57" type="curve" smooth="yes"/>
      <point x="1194" y="-57"/>
      <point x="1387.37" y="126.975"/>
      <point x="1460" y="193" type="curve" smooth="yes"/>
      <point x="1475.37" y="206.975"/>
      <point x="1585" y="319"/>
      <point x="1595" y="330" type="curve"/>
      <point x="1597" y="440" type="line"/>
    </contour>
  </outline>
</glyph>
<glyph name="O" format="1">
  <advance width="1653"/>
  <unicode hex="004F"/>
  <outline>
    <contour>
      <point x="1585" y="768" type="curve" smooth="yes"/>
      <point x="1585" y="1090"/>
      <point x="1395" y="1239"/>
      <point x="1217" y="1239" type="curve" smooth="yes"/>
      <point x="967" y="1239"/>
      <point x="858" y="1090"/>
      <point x="858" y="926" type="curve" smooth="yes"/>
      <point x="858" y="637"/>
      <point x="1110" y="496"/>
      <point x="1382" y="496" type="curve" smooth="yes"/>
      <point x="1395" y="496" type="line"/>
      <point x="1296" y="311"/>
      <point x="1108" y="160"/>
      <point x="842" y="160" type="curve" smooth="yes"/>
      <point x="578" y="160"/>
      <point x="328" y="342"/>
      <point x="328" y="748" type="curve" smooth="yes"/>
      <point x="328" y="1044"/>
      <point x="602" y="1411"/>
      <point x="1040" y="1411" type="curve" smooth="yes"/>
      <point x="1071" y="1411"/>
      <point x="1104" y="1409"/>
      <point x="1139" y="1403" type="curve"/>
      <point x="1143" y="1505" type="line"/>
      <point x="1096" y="1513"/>
      <point x="1049" y="1518"/>
      <point x="1006" y="1518" type="curve" smooth="yes"/>
      <point x="442" y="1518"/>
      <point x="100" y="1053"/>
      <point x="100" y="664" type="curve" smooth="yes"/>
      <point x="100" y="154"/>
      <point x="391" y="-57"/>
      <point x="715" y="-57" type="curve" smooth="yes"/>
      <point x="1047" y="-57"/>
      <point x="1415" y="164"/>
      <point x="1540" y="510" type="curve"/>
      <point x="1653" y="532"/>
      <point x="1763" y="580"/>
      <point x="1853" y="651" type="curve"/>
      <point x="1853" y="743" type="line"/>
      <point x="1757" y="686"/>
      <point x="1663" y="651"/>
      <point x="1573" y="637" type="curve"/>
      <point x="1581" y="678"/>
      <point x="1585" y="723"/>
    </contour>
    <contour>
      <point x="1030" y="999" type="curve" smooth="yes"/>
      <point x="1030" y="1073"/>
      <point x="1077" y="1126"/>
      <point x="1190" y="1126" type="curve" smooth="yes"/>
      <point x="1382" y="1126"/>
      <point x="1475" y="979"/>
      <point x="1475" y="799" type="curve" smooth="yes"/>
      <point x="1475" y="743"/>
      <point x="1466" y="684"/>
      <point x="1448" y="627" type="curve"/>
      <point x="1206" y="631"/>
      <point x="1030" y="786"/>
    </contour>
  </outline>
</glyph>
<glyph name="P" format="1">
  <advance width="1317"/>
  <unicode hex="0050"/>
  <outline>
    <contour>
      <point x="715" y="602" type="curve"/>
      <point x="764" y="594"/>
      <point x="811" y="590"/>
      <point x="856" y="590" type="curve" smooth="yes"/>
      <point x="1268" y="590"/>
      <point x="1528" y="854"/>
      <point x="1528" y="1100" type="curve" smooth="yes"/>
      <point x="1528" y="1315"/>
      <point x="1329" y="1518"/>
      <point x="860" y="1518" type="curve" smooth="yes"/>
      <point x="469" y="1518"/>
      <point x="47" y="1358"/>
      <point x="47" y="1069" type="curve" smooth="yes"/>
      <point x="47" y="909"/>
      <point x="207" y="797"/>
      <point x="346" y="754" type="curve"/>
      <point x="365" y="793"/>
      <point x="373" y="868"/>
      <point x="373" y="913" type="curve"/>
      <point x="281" y="948"/>
      <point x="209" y="987"/>
      <point x="209" y="1094" type="curve" smooth="yes"/>
      <point x="209" y="1272"/>
      <point x="571" y="1393"/>
      <point x="799" y="1393" type="curve" smooth="yes"/>
      <point x="1120" y="1393"/>
      <point x="1274" y="1235"/>
      <point x="1274" y="1071" type="curve" smooth="yes"/>
      <point x="1274" y="893"/>
      <point x="1100" y="711"/>
      <point x="760" y="711" type="curve" smooth="yes"/>
      <point x="735" y="711" type="line"/>
      <point x="772" y="860"/>
      <point x="827" y="1153"/>
      <point x="840" y="1249" type="curve"/>
      <point x="752" y="1247" type="line" smooth="yes"/>
      <point x="723" y="1247"/>
      <point x="621" y="1235"/>
      <point x="612" y="1190" type="curve" smooth="yes"/>
      <point x="502" y="614" type="line" smooth="yes"/>
      <point x="471" y="451"/>
      <point x="393" y="-82"/>
      <point x="178" y="-82" type="curve" smooth="yes"/>
      <point x="86" y="-82"/>
      <point x="61" y="-12"/>
      <point x="61" y="66" type="curve" smooth="yes"/>
      <point x="61" y="96"/>
      <point x="63" y="137"/>
      <point x="63" y="176" type="curve"/>
      <point x="-33" y="176"/>
      <point x="-133" y="152"/>
      <point x="-133" y="53" type="curve" smooth="yes"/>
      <point x="-133" y="-104"/>
      <point x="12" y="-180"/>
      <point x="160" y="-180" type="curve" smooth="yes"/>
      <point x="360" y="-180"/>
      <point x="621" y="-31"/>
    </contour>
  </outline>
</glyph>
<glyph name="Q" format="1">
  <advance width="1632"/>
  <unicode hex="0051"/>
  <outline>
    <contour>
      <point x="563" y="-236" type="curve"/>
      <point x="178" y="-209" type="line"/>
      <point x="129" y="-209"/>
      <point x="111" y="-244"/>
      <point x="111" y="-289" type="curve" smooth="yes"/>
      <point x="111" y="-461"/>
      <point x="291" y="-518"/>
      <point x="420" y="-518" type="curve" smooth="yes"/>
      <point x="586" y="-518"/>
      <point x="692" y="-436"/>
      <point x="729" y="-348" type="curve"/>
      <point x="797" y="-342"/>
      <point x="1004" y="-305"/>
      <point x="1065" y="-272" type="curve"/>
      <point x="1055" y="-152" type="line"/>
      <point x="995" y="-195"/>
      <point x="834" y="-217"/>
      <point x="754" y="-229" type="curve"/>
      <point x="977" y="371" type="line"/>
      <point x="891" y="371"/>
      <point x="801" y="371"/>
      <point x="784" y="326" type="curve" smooth="yes"/>
      <point x="756" y="252"/>
      <point x="604" y="-188"/>
    </contour>
    <contour>
      <point x="537" y="-334" type="line"/>
      <point x="520" y="-373"/>
      <point x="494" y="-424"/>
      <point x="434" y="-424" type="curve" smooth="yes"/>
      <point x="332" y="-424"/>
      <point x="256" y="-375"/>
      <point x="256" y="-346" type="curve" smooth="yes"/>
      <point x="256" y="-324"/>
      <point x="266" y="-324"/>
      <point x="301" y="-324" type="curve"/>
      <point x="330" y="-326"/>
      <point x="371" y="-334"/>
      <point x="422" y="-334" type="curve" smooth="yes"/>
    </contour>
    <component base="O" xOffset="-39"/>
  </outline>
</glyph>
<glyph name="Q" format="1">
  <advance width="1632"/>
  <unicode hex="0051"/>
  <outline>
    <component base="O" xOffset="-39"/>
    <contour>
      <point x="563" y="-236" type="curve"/>
      <point x="178" y="-209" type="line"/>
      <point x="129" y="-209"/>
      <point x="111" y="-244"/>
      <point x="111" y="-289" type="curve" smooth="yes"/>
      <point x="111" y="-461"/>
      <point x="291" y="-518"/>
      <point x="420" y="-518" type="curve" smooth="yes"/>
      <point x="586" y="-518"/>
      <point x="692" y="-436"/>
      <point x="729" y="-348" type="curve"/>
      <point x="797" y="-342"/>
      <point x="1004" y="-305"/>
      <point x="1065" y="-272" type="curve"/>
      <point x="1055" y="-152" type="line"/>
      <point x="995" y="-195"/>
      <point x="834" y="-217"/>
      <point x="754" y="-229" type="curve"/>
      <point x="977" y="371" type="line"/>
      <point x="891" y="371"/>
      <point x="801" y="371"/>
      <point x="784" y="326" type="curve" smooth="yes"/>
      <point x="756" y="252"/>
      <point x="604" y="-188"/>
    </contour>
    <contour>
      <point x="537" y="-334" type="line"/>
      <point x="520" y="-373"/>
      <point x="494" y="-424"/>
      <point x="434" y="-424" type="curve" smooth="yes"/>
      <point x="332" y="-424"/>
      <point x="256" y="-375"/>
      <point x="256" y="-346" type="curve" smooth="yes"/>
      <point x="256" y="-324"/>
      <point x="266" y="-324"/>
      <point x="301" y="-324" type="curve"/>
      <point x="330" y="-326"/>
      <point x="371" y="-334"/>
      <point x="422" y="-334" type="curve" smooth="yes"/>
    </contour>
  </outline>
</glyph>
<glyph name="R" format="1">
  <advance width="1616"/>
  <unicode hex="0052"/>
  <outline>
    <contour>
      <point x="891" y="1518" type="move" smooth="yes"/>
    </contour>
    <contour>
      <point x="762" y="688" type="curve"/>
      <point x="799" y="868"/>
      <point x="836" y="1061"/>
      <point x="858" y="1247" type="curve"/>
      <point x="831" y="1249"/>
      <point x="809" y="1249"/>
      <point x="791" y="1249" type="curve" smooth="yes"/>
      <point x="655" y="1249"/>
      <point x="645" y="1204"/>
      <point x="629" y="1155" type="curve" smooth="yes"/>
      <point x="594" y="1051"/>
      <point x="477" y="53"/>
      <point x="238" y="53" type="curve" smooth="yes"/>
      <point x="133" y="53"/>
      <point x="113" y="154"/>
      <point x="113" y="242" type="curve" smooth="yes"/>
      <point x="113" y="268"/>
      <point x="115" y="295"/>
      <point x="117" y="315" type="curve"/>
      <point x="113" y="317"/>
      <point x="106" y="319"/>
      <point x="102" y="319" type="curve" smooth="yes"/>
      <point x="-12" y="319"/>
      <point x="-115" y="283"/>
      <point x="-115" y="205" type="curve" smooth="yes"/>
      <point x="-115" y="31"/>
      <point x="63" y="-57"/>
      <point x="215" y="-57" type="curve" smooth="yes"/>
      <point x="590" y="-57"/>
      <point x="684" y="360"/>
      <point x="748" y="600" type="curve"/>
      <point x="854" y="459"/>
      <point x="950" y="211"/>
      <point x="973" y="150" type="curve"/>
      <point x="1028" y="72"/>
      <point x="1059" y="-57"/>
      <point x="1233" y="-57" type="curve" smooth="yes"/>
      <point x="1405" y="-57"/>
      <point x="1604" y="186"/>
      <point x="1739" y="332" type="curve"/>
      <point x="1737" y="434" type="line"/>
      <point x="1647" y="350"/>
      <point x="1409" y="96"/>
      <point x="1335" y="96" type="curve" smooth="yes"/>
      <point x="1270" y="96"/>
      <point x="1141" y="561"/>
      <point x="981" y="649" type="curve"/>
      <point x="1331" y="739"/>
      <point x="1544" y="850"/>
      <point x="1544" y="1098" type="curve" smooth="yes"/>
      <point x="1544" y="1360"/>
      <point x="1219" y="1518"/>
      <point x="891" y="1518" type="curve" smooth="yes"/>
      <point x="489" y="1518"/>
      <point x="72" y="1348"/>
      <point x="72" y="1071" type="curve" smooth="yes"/>
      <point x="72" y="899"/>
      <point x="223" y="801"/>
      <point x="369" y="754" type="curve"/>
      <point x="387" y="801"/>
      <point x="395" y="862"/>
      <point x="395" y="913" type="curve"/>
      <point x="317" y="944"/>
      <point x="233" y="987"/>
      <point x="233" y="1085" type="curve" smooth="yes"/>
      <point x="233" y="1282"/>
      <point x="582" y="1393"/>
      <point x="870" y="1393" type="curve" smooth="yes"/>
      <point x="1116" y="1393"/>
      <point x="1278" y="1239"/>
      <point x="1278" y="1083" type="curve" smooth="yes"/>
      <point x="1278" y="920"/>
      <point x="1081" y="688"/>
    </contour>
  </outline>
</glyph>
<glyph name="S" format="1">
  <advance width="1069"/>
  <unicode hex="0053"/>
  <outline>
    <contour>
      <point x="805" y="1518" type="move" smooth="yes"/>
    </contour>
    <contour>
      <point x="387" y="1126" type="curve" smooth="yes"/>
      <point x="387" y="1313"/>
      <point x="592" y="1423"/>
      <point x="756" y="1423" type="curve" smooth="yes"/>
      <point x="872" y="1423"/>
      <point x="965" y="1376"/>
      <point x="965" y="1225" type="curve" smooth="yes"/>
      <point x="965" y="1171"/>
      <point x="762" y="1094"/>
      <point x="698" y="1057" type="curve"/>
      <point x="698" y="958" type="line"/>
      <point x="756" y="979"/>
      <point x="1145" y="1198"/>
      <point x="1145" y="1227" type="curve" smooth="yes"/>
      <point x="1145" y="1450"/>
      <point x="944" y="1518"/>
      <point x="803" y="1518" type="curve" smooth="yes"/>
      <point x="528" y="1518"/>
      <point x="170" y="1337"/>
      <point x="170" y="1024" type="curve" smooth="yes"/>
      <point x="170" y="752"/>
      <point x="709" y="492"/>
      <point x="709" y="219" type="curve" smooth="yes"/>
      <point x="709" y="23"/>
      <point x="485" y="-88"/>
      <point x="328" y="-88" type="curve" smooth="yes"/>
      <point x="133" y="-88"/>
      <point x="135" y="8"/>
      <point x="135" y="111" type="curve" smooth="yes"/>
      <point x="135" y="145"/>
      <point x="137" y="182"/>
      <point x="139" y="209" type="curve"/>
      <point x="96" y="207" type="line" smooth="yes"/>
      <point x="8" y="203"/>
      <point x="-70" y="150"/>
      <point x="-70" y="59" type="curve" smooth="yes"/>
      <point x="-70" y="-106"/>
      <point x="109" y="-180"/>
      <point x="252" y="-180" type="curve" smooth="yes"/>
      <point x="557" y="-180"/>
      <point x="926" y="-10"/>
      <point x="926" y="324" type="curve" smooth="yes"/>
      <point x="926" y="723"/>
      <point x="387" y="862"/>
    </contour>
  </outline>
</glyph>
<glyph name="T" format="1">
  <advance width="1085"/>
  <unicode hex="0054"/>
  <outline>
    <contour>
      <point x="383" y="672" type="curve"/>
      <point x="395" y="688"/>
      <point x="412" y="782"/>
      <point x="412" y="840" type="curve"/>
      <point x="299" y="889"/>
      <point x="252" y="958"/>
      <point x="252" y="1032" type="curve" smooth="yes"/>
      <point x="252" y="1202"/>
      <point x="508" y="1393"/>
      <point x="797" y="1393" type="curve" smooth="yes"/>
      <point x="846" y="1393"/>
      <point x="891" y="1384"/>
      <point x="934" y="1372" type="curve"/>
      <point x="932" y="1372" type="line" smooth="yes"/>
      <point x="883" y="1372"/>
      <point x="825" y="1358"/>
      <point x="776" y="1305" type="curve"/>
      <point x="711" y="1130"/>
      <point x="559" y="41"/>
      <point x="297" y="41" type="curve"/>
      <point x="211" y="47"/>
      <point x="188" y="106"/>
      <point x="188" y="193" type="curve" smooth="yes"/>
      <point x="188" y="231"/>
      <point x="190" y="279"/>
      <point x="199" y="328" type="curve"/>
      <point x="27" y="328"/>
      <point x="-14" y="254"/>
      <point x="-14" y="172" type="curve" smooth="yes"/>
      <point x="-14" y="76"/>
      <point x="72" y="-57"/>
      <point x="256" y="-57" type="curve" smooth="yes"/>
      <point x="803" y="-57"/>
      <point x="915" y="862"/>
      <point x="1016" y="1343" type="curve"/>
      <point x="1120" y="1305"/>
      <point x="1219" y="1253"/>
      <point x="1331" y="1253" type="curve" smooth="yes"/>
      <point x="1507" y="1253"/>
      <point x="1651" y="1356"/>
      <point x="1700" y="1524" type="curve"/>
      <point x="1632" y="1505"/>
      <point x="1532" y="1444"/>
      <point x="1411" y="1444" type="curve" smooth="yes"/>
      <point x="1219" y="1444"/>
      <point x="999" y="1518"/>
      <point x="817" y="1518" type="curve" smooth="yes"/>
      <point x="389" y="1518"/>
      <point x="68" y="1270"/>
      <point x="68" y="1026" type="curve" smooth="yes"/>
      <point x="68" y="895"/>
      <point x="162" y="762"/>
    </contour>
  </outline>
</glyph>
<glyph name="U" format="1">
  <advance width="1645"/>
  <unicode hex="0055"/>
  <outline>
    <contour>
      <point x="1047" y="1518" type="move" name="top"/>
    </contour>
    <contour>
      <point x="631" y="0" type="move" name="bot"/>
    </contour>
    <contour>
      <point x="799" y="1509" type="curve" smooth="yes"/>
      <point x="799" y="1524"/>
      <point x="784" y="1530"/>
      <point x="772" y="1530" type="curve" smooth="yes"/>
      <point x="709" y="1530"/>
      <point x="266" y="1235"/>
      <point x="-43" y="1057" type="curve"/>
      <point x="-43" y="946" type="line"/>
      <point x="145" y="1059"/>
      <point x="362" y="1196"/>
      <point x="406" y="1221" type="curve"/>
      <point x="520" y="1309" type="line" smooth="yes"/>
      <point x="526" y="1313"/>
      <point x="528" y="1315"/>
      <point x="532" y="1315" type="curve" smooth="yes"/>
      <point x="535" y="1315"/>
      <point x="537" y="1313"/>
      <point x="537" y="1311" type="curve" smooth="yes"/>
      <point x="360" y="1069"/>
      <point x="223" y="696"/>
      <point x="223" y="403" type="curve" smooth="yes"/>
      <point x="223" y="133"/>
      <point x="334" y="-57"/>
      <point x="625" y="-57" type="curve" smooth="yes"/>
      <point x="1118" y="-57"/>
      <point x="1489" y="422"/>
      <point x="1552" y="920" type="curve"/>
      <point x="1665" y="940"/>
      <point x="1765" y="1006"/>
      <point x="1821" y="1047" type="curve"/>
      <point x="1821" y="1161" type="line"/>
      <point x="1692" y="1047"/>
      <point x="1554" y="1024"/>
      <point x="1554" y="1024" type="curve"/>
      <point x="1554" y="1067"/>
      <point x="1571" y="1520"/>
      <point x="1362" y="1520" type="curve" smooth="yes"/>
      <point x="1204" y="1520"/>
      <point x="1147" y="1362"/>
      <point x="1147" y="1247" type="curve" smooth="yes"/>
      <point x="1147" y="1034"/>
      <point x="1352" y="936"/>
      <point x="1425" y="924" type="curve"/>
      <point x="1403" y="547"/>
      <point x="1118" y="147"/>
      <point x="745" y="147" type="curve" smooth="yes"/>
      <point x="535" y="147"/>
      <point x="461" y="276"/>
      <point x="461" y="457" type="curve" smooth="yes"/>
      <point x="461" y="844"/>
      <point x="799" y="1464"/>
    </contour>
    <contour>
      <point x="1321" y="1339" type="curve" smooth="yes"/>
      <point x="1391" y="1339"/>
      <point x="1432" y="1188"/>
      <point x="1432" y="1067" type="curve" smooth="yes"/>
      <point x="1432" y="1055"/>
      <point x="1430" y="1040"/>
      <point x="1430" y="1028" type="curve"/>
      <point x="1343" y="1047"/>
      <point x="1266" y="1135"/>
      <point x="1266" y="1266" type="curve" smooth="yes"/>
      <point x="1266" y="1300"/>
      <point x="1276" y="1339"/>
    </contour>
  </outline>
</glyph>
<glyph name="U" format="1">
  <advance width="1595"/>
  <unicode hex="0055"/>
  <outline>
    <contour>
      <point x="799" y="1509" type="curve" smooth="yes"/>
      <point x="799" y="1524"/>
      <point x="784" y="1530"/>
      <point x="772" y="1530" type="curve" smooth="yes"/>
      <point x="709" y="1530"/>
      <point x="266" y="1235"/>
      <point x="-43" y="1057" type="curve"/>
      <point x="-43" y="946" type="line"/>
      <point x="145" y="1059"/>
      <point x="362" y="1196"/>
      <point x="406" y="1221" type="curve"/>
      <point x="520" y="1309" type="line" smooth="yes"/>
      <point x="526" y="1313"/>
      <point x="528" y="1315"/>
      <point x="532" y="1315" type="curve" smooth="yes"/>
      <point x="535" y="1315"/>
      <point x="537" y="1313"/>
      <point x="537" y="1311" type="curve"/>
      <point x="360" y="1069"/>
      <point x="223" y="696"/>
      <point x="223" y="403" type="curve" smooth="yes"/>
      <point x="223" y="133"/>
      <point x="334" y="-57"/>
      <point x="625" y="-57" type="curve" smooth="yes"/>
      <point x="1118" y="-57"/>
      <point x="1489" y="422"/>
      <point x="1552" y="920" type="curve"/>
      <point x="1728.01" y="955.748"/>
      <point x="1883.77" y="1073.72"/>
      <point x="1971" y="1147" type="curve"/>
      <point x="1971" y="1261" type="line"/>
      <point x="1769.53" y="1063.79"/>
      <point x="1554" y="1024"/>
      <point x="1554" y="1024" type="curve"/>
      <point x="1554" y="1067"/>
      <point x="1571" y="1520"/>
      <point x="1362" y="1520" type="curve" smooth="yes"/>
      <point x="1204" y="1520"/>
      <point x="1147" y="1362"/>
      <point x="1147" y="1247" type="curve" smooth="yes"/>
      <point x="1147" y="1034"/>
      <point x="1352" y="936"/>
      <point x="1425" y="924" type="curve"/>
      <point x="1403" y="547"/>
      <point x="1118" y="147"/>
      <point x="745" y="147" type="curve" smooth="yes"/>
      <point x="535" y="147"/>
      <point x="461" y="276"/>
      <point x="461" y="457" type="curve" smooth="yes"/>
      <point x="461" y="844"/>
      <point x="799" y="1464"/>
    </contour>
    <contour>
      <point x="1321" y="1339" type="curve" smooth="yes"/>
      <point x="1391" y="1339"/>
      <point x="1432" y="1188"/>
      <point x="1432" y="1067" type="curve" smooth="yes"/>
      <point x="1432" y="1055"/>
      <point x="1430" y="1040"/>
      <point x="1430" y="1028" type="curve"/>
      <point x="1343" y="1047"/>
      <point x="1266" y="1135"/>
      <point x="1266" y="1266" type="curve" smooth="yes"/>
      <point x="1266" y="1300"/>
      <point x="1276" y="1339"/>
    </contour>
  </outline>
</glyph>
<glyph name="V" format="1">
  <advance width="1415"/>
  <unicode hex="0056"/>
  <outline>
    <contour>
      <point x="698" y="182" type="curve" smooth="yes"/>
      <point x="584" y="182"/>
      <point x="543" y="297"/>
      <point x="543" y="459" type="curve" smooth="yes"/>
      <point x="543" y="850"/>
      <point x="778" y="1516"/>
      <point x="778" y="1509" type="curve"/>
      <point x="778" y="1524"/>
      <point x="760" y="1530"/>
      <point x="752" y="1530" type="curve" smooth="yes"/>
      <point x="688" y="1530"/>
      <point x="246" y="1235"/>
      <point x="-63" y="1057" type="curve"/>
      <point x="-63" y="946" type="line"/>
      <point x="125" y="1059"/>
      <point x="342" y="1196"/>
      <point x="385" y="1221" type="curve"/>
      <point x="500" y="1309" type="line" smooth="yes"/>
      <point x="506" y="1313"/>
      <point x="508" y="1315"/>
      <point x="512" y="1315" type="curve" smooth="yes"/>
      <point x="514" y="1315"/>
      <point x="514" y="1313"/>
      <point x="514" y="1309" type="curve" smooth="yes"/>
      <point x="514" y="1286"/>
      <point x="455" y="1188"/>
      <point x="430" y="1151" type="curve" smooth="yes"/>
      <point x="348" y="1028"/>
      <point x="260" y="721"/>
      <point x="260" y="451" type="curve" smooth="yes"/>
      <point x="260" y="180"/>
      <point x="348" y="-57"/>
      <point x="621" y="-57" type="curve" smooth="yes"/>
      <point x="1051" y="-57"/>
      <point x="1335" y="559"/>
      <point x="1413" y="918" type="curve"/>
      <point x="1559" y="942"/>
      <point x="1702" y="1018"/>
      <point x="1774" y="1065" type="curve"/>
      <point x="1774" y="1180" type="line"/>
      <point x="1604" y="1049"/>
      <point x="1425" y="1022"/>
      <point x="1425" y="1022" type="curve"/>
      <point x="1425" y="1118"/>
      <point x="1427" y="1518"/>
      <point x="1223" y="1518" type="curve" smooth="yes"/>
      <point x="1065" y="1518"/>
      <point x="1008" y="1360"/>
      <point x="1008" y="1245" type="curve" smooth="yes"/>
      <point x="1008" y="1032"/>
      <point x="1212" y="934"/>
      <point x="1286" y="922" type="curve"/>
      <point x="1196" y="653"/>
      <point x="913" y="182"/>
    </contour>
    <contour>
      <point x="1188" y="1339" type="curve" smooth="yes"/>
      <point x="1257" y="1339"/>
      <point x="1298" y="1188"/>
      <point x="1298" y="1067" type="curve" smooth="yes"/>
      <point x="1298" y="1055"/>
      <point x="1296" y="1040"/>
      <point x="1296" y="1028" type="curve"/>
      <point x="1210" y="1047"/>
      <point x="1133" y="1135"/>
      <point x="1133" y="1266" type="curve" smooth="yes"/>
      <point x="1133" y="1300"/>
      <point x="1143" y="1339"/>
    </contour>
  </outline>
</glyph>
<glyph name="W" format="1">
  <advance width="1978"/>
  <unicode hex="0057"/>
  <outline>
    <contour>
      <point x="1776" y="1339" type="curve" smooth="yes"/>
      <point x="1845" y="1339"/>
      <point x="1886" y="1188"/>
      <point x="1886" y="1067" type="curve" smooth="yes"/>
      <point x="1886" y="1055"/>
      <point x="1884" y="1040"/>
      <point x="1884" y="1028" type="curve"/>
      <point x="1798" y="1047"/>
      <point x="1720" y="1135"/>
      <point x="1720" y="1266" type="curve" smooth="yes"/>
      <point x="1720" y="1300"/>
      <point x="1731" y="1339"/>
    </contour>
    <contour>
      <point x="1221" y="1174" type="curve" smooth="yes"/>
      <point x="993" y="1174"/>
      <point x="920" y="713"/>
      <point x="920" y="451" type="curve" smooth="yes"/>
      <point x="920" y="399"/>
      <point x="922" y="356"/>
      <point x="928" y="326" type="curve"/>
      <point x="883" y="250"/>
      <point x="760" y="182"/>
      <point x="694" y="182" type="curve" smooth="yes"/>
      <point x="498" y="182"/>
      <point x="473" y="403"/>
      <point x="473" y="553" type="curve" smooth="yes"/>
      <point x="473" y="872"/>
      <point x="768" y="1419"/>
      <point x="768" y="1509" type="curve" smooth="yes"/>
      <point x="768" y="1524"/>
      <point x="754" y="1530"/>
      <point x="741" y="1530" type="curve" smooth="yes"/>
      <point x="678" y="1530"/>
      <point x="236" y="1235"/>
      <point x="-74" y="1057" type="curve"/>
      <point x="-74" y="946" type="line"/>
      <point x="115" y="1059"/>
      <point x="332" y="1196"/>
      <point x="375" y="1221" type="curve"/>
      <point x="489" y="1309" type="line"/>
      <point x="496" y="1313"/>
      <point x="498" y="1315"/>
      <point x="502" y="1315" type="curve" smooth="yes"/>
      <point x="504" y="1315"/>
      <point x="504" y="1313"/>
      <point x="504" y="1309" type="curve" smooth="yes"/>
      <point x="504" y="1288"/>
      <point x="446" y="1188"/>
      <point x="420" y="1151" type="curve" smooth="yes"/>
      <point x="274" y="952"/>
      <point x="190" y="649"/>
      <point x="190" y="403" type="curve" smooth="yes"/>
      <point x="190" y="211"/>
      <point x="279" y="-55"/>
      <point x="510" y="-55" type="curve" smooth="yes"/>
      <point x="643" y="-55"/>
      <point x="844" y="88"/>
      <point x="938" y="215" type="curve"/>
      <point x="938" y="215"/>
      <point x="983" y="-57"/>
      <point x="1235" y="-57" type="curve" smooth="yes"/>
      <point x="1620" y="-57"/>
      <point x="1978" y="553"/>
      <point x="2001" y="918" type="curve"/>
      <point x="2138" y="942"/>
      <point x="2263" y="1018"/>
      <point x="2331" y="1065" type="curve"/>
      <point x="2331" y="1180" type="line"/>
      <point x="2171" y="1049"/>
      <point x="2003" y="1022"/>
      <point x="2003" y="1022" type="curve"/>
      <point x="2003" y="1118"/>
      <point x="2015" y="1518"/>
      <point x="1810" y="1518" type="curve" smooth="yes"/>
      <point x="1653" y="1518"/>
      <point x="1595" y="1360"/>
      <point x="1595" y="1245" type="curve" smooth="yes"/>
      <point x="1595" y="1032"/>
      <point x="1800" y="934"/>
      <point x="1874" y="922" type="curve"/>
      <point x="1874" y="672"/>
      <point x="1630" y="217"/>
      <point x="1352" y="217" type="curve" smooth="yes"/>
      <point x="1233" y="217"/>
      <point x="1114" y="279"/>
      <point x="1114" y="401" type="curve" smooth="yes"/>
      <point x="1114" y="406"/>
      <point x="1303" y="844"/>
      <point x="1303" y="1059" type="curve" smooth="yes"/>
      <point x="1303" y="1122"/>
      <point x="1286" y="1174"/>
    </contour>
  </outline>
</glyph>
<glyph name="X" format="1">
  <advance width="1544"/>
  <unicode hex="0058"/>
  <outline>
    <contour>
      <point x="-25" y="66" type="curve" smooth="yes"/>
      <point x="-25" y="-43"/>
      <point x="49" y="-59"/>
      <point x="123" y="-59" type="curve" smooth="yes"/>
      <point x="303" y="-59"/>
      <point x="406" y="57"/>
      <point x="487" y="150" type="curve" smooth="yes"/>
      <point x="516" y="182"/>
      <point x="641" y="322"/>
      <point x="786" y="494" type="curve"/>
      <point x="805" y="451" type="line"/>
      <point x="952" y="86"/>
      <point x="1063" y="-57"/>
      <point x="1186" y="-57" type="curve" smooth="yes"/>
      <point x="1317" y="-57"/>
      <point x="1458" y="106"/>
      <point x="1667" y="328" type="curve"/>
      <point x="1665" y="440" type="line"/>
      <point x="1473" y="252"/>
      <point x="1382" y="135"/>
      <point x="1307" y="135" type="curve" smooth="yes"/>
      <point x="1241" y="135"/>
      <point x="1188" y="231"/>
      <point x="1087" y="459" type="curve"/>
      <point x="981" y="727" type="line"/>
      <point x="1063" y="827"/>
      <point x="1143" y="928"/>
      <point x="1210" y="1018" type="curve"/>
      <point x="1403" y="1303"/>
      <point x="1622" y="1368"/>
      <point x="1622" y="1462" type="curve" smooth="yes"/>
      <point x="1622" y="1501"/>
      <point x="1577" y="1518"/>
      <point x="1532" y="1518" type="curve" smooth="yes"/>
      <point x="1505" y="1518"/>
      <point x="1479" y="1511"/>
      <point x="1464" y="1501" type="curve" smooth="yes"/>
      <point x="1364" y="1427"/>
      <point x="1317" y="1386"/>
      <point x="1063" y="1038" type="curve"/>
      <point x="1020" y="987"/>
      <point x="975" y="930"/>
      <point x="926" y="868" type="curve"/>
      <point x="823" y="1130"/>
      <point x="727" y="1374"/>
      <point x="705" y="1427" type="curve"/>
      <point x="674" y="1493"/>
      <point x="635" y="1518"/>
      <point x="594" y="1518" type="curve" smooth="yes"/>
      <point x="561" y="1518"/>
      <point x="528" y="1501"/>
      <point x="498" y="1483" type="curve" smooth="yes"/>
      <point x="465" y="1462"/>
      <point x="424" y="1436"/>
      <point x="35" y="1212" type="curve"/>
      <point x="35" y="1102" type="line"/>
      <point x="223" y="1212"/>
      <point x="240" y="1212"/>
      <point x="281" y="1239" type="curve" smooth="yes"/>
      <point x="330" y="1270"/>
      <point x="369" y="1284"/>
      <point x="395" y="1284" type="curve" smooth="yes"/>
      <point x="440" y="1284"/>
      <point x="449" y="1243"/>
      <point x="473" y="1196" type="curve"/>
      <point x="528" y="1081"/>
      <point x="641" y="838"/>
      <point x="731" y="625" type="curve"/>
      <point x="524" y="371"/>
      <point x="315" y="135"/>
      <point x="215" y="135" type="curve" smooth="yes"/>
      <point x="170" y="135"/>
      <point x="113" y="147"/>
      <point x="66" y="147" type="curve" smooth="yes"/>
      <point x="14" y="147"/>
      <point x="-25" y="133"/>
    </contour>
  </outline>
</glyph>
<glyph name="Y" format="1">
  <advance width="1554"/>
  <unicode hex="0059"/>
  <outline>
    <contour>
      <point x="1001" y="-139" type="line"/>
      <point x="965" y="-260" type="line"/>
      <point x="907" y="-467"/>
      <point x="688" y="-694"/>
      <point x="553" y="-694" type="curve"/>
      <point x="510" y="-688"/>
      <point x="469" y="-643"/>
      <point x="469" y="-547" type="curve" smooth="yes"/>
      <point x="469" y="-455"/>
      <point x="586" y="-365"/>
      <point x="723" y="-301" type="curve"/>
    </contour>
    <contour>
      <point x="584" y="1364" type="line"/>
      <point x="477" y="1053" type="line" smooth="yes"/>
      <point x="389" y="795"/>
      <point x="266" y="463"/>
      <point x="266" y="248" type="curve" smooth="yes"/>
      <point x="266" y="43"/>
      <point x="350" y="-18"/>
      <point x="438" y="-18" type="curve" smooth="yes"/>
      <point x="610" y="-18"/>
      <point x="954" y="207"/>
      <point x="1171" y="457" type="curve"/>
      <point x="1012" y="-41" type="line"/>
      <point x="203" y="-473" type="line" smooth="yes"/>
      <point x="168" y="-492"/>
      <point x="152" y="-526"/>
      <point x="152" y="-565" type="curve" smooth="yes"/>
      <point x="152" y="-705"/>
      <point x="309" y="-774"/>
      <point x="442" y="-774" type="curve" smooth="yes"/>
      <point x="893" y="-774"/>
      <point x="1137" y="-375"/>
      <point x="1268" y="-33" type="curve"/>
      <point x="1673" y="328" type="line"/>
      <point x="1673" y="440" type="line"/>
      <point x="1286" y="86" type="line"/>
      <point x="1640" y="1487" type="line"/>
      <point x="1423" y="1487" type="line"/>
      <point x="1395" y="1477"/>
      <point x="1313" y="1151"/>
      <point x="1305" y="1114" type="curve" smooth="yes"/>
      <point x="1214" y="739" type="line"/>
      <point x="1147" y="457"/>
      <point x="786" y="248"/>
      <point x="602" y="248" type="curve" smooth="yes"/>
      <point x="561" y="248"/>
      <point x="524" y="311"/>
      <point x="524" y="358" type="curve" smooth="yes"/>
      <point x="524" y="498"/>
      <point x="682" y="926"/>
      <point x="758" y="1225" type="curve" smooth="yes"/>
      <point x="795" y="1372"/>
      <point x="829" y="1460"/>
      <point x="829" y="1489" type="curve" smooth="yes"/>
      <point x="829" y="1507"/>
      <point x="801" y="1518"/>
      <point x="764" y="1518" type="curve" smooth="yes"/>
      <point x="729" y="1518"/>
      <point x="686" y="1509"/>
      <point x="653" y="1487" type="curve" smooth="yes"/>
      <point x="242" y="1219" type="line"/>
      <point x="221" y="1204"/>
      <point x="221" y="1190"/>
      <point x="221" y="1174" type="curve" smooth="yes"/>
      <point x="221" y="1149"/>
      <point x="238" y="1137"/>
      <point x="254" y="1137" type="curve" smooth="yes"/>
      <point x="256" y="1137"/>
      <point x="262" y="1141"/>
      <point x="266" y="1145" type="curve"/>
      <point x="276" y="1151" type="line"/>
    </contour>
  </outline>
</glyph>
<glyph name="Z" format="1">
  <advance width="1450"/>
  <unicode hex="005A"/>
  <outline>
    <contour>
      <point x="236" y="211" type="line" smooth="yes"/>
      <point x="195" y="193"/>
      <point x="102" y="145"/>
      <point x="102" y="72" type="curve" smooth="yes"/>
      <point x="102" y="-16"/>
      <point x="197" y="-29"/>
      <point x="211" y="-29" type="curve" smooth="yes"/>
      <point x="309" y="-29"/>
      <point x="455" y="39"/>
      <point x="573" y="117" type="curve"/>
      <point x="1028" y="-33"/>
      <point x="1024" y="-57"/>
      <point x="1044" y="-57" type="curve" smooth="yes"/>
      <point x="1212" y="-57"/>
      <point x="1339" y="74"/>
      <point x="1503" y="168" type="curve"/>
      <point x="1503" y="268" type="line"/>
      <point x="1434" y="209"/>
      <point x="1329" y="150"/>
      <point x="1315" y="145" type="curve"/>
      <point x="1280" y="127"/>
      <point x="1257" y="119"/>
      <point x="1231" y="119" type="curve" smooth="yes"/>
      <point x="1147" y="119"/>
      <point x="813" y="225"/>
      <point x="698" y="260" type="curve"/>
      <point x="1028" y="610"/>
      <point x="1303" y="1159"/>
      <point x="1448" y="1384" type="curve"/>
      <point x="1405" y="1481" type="line"/>
      <point x="1235" y="1493"/>
      <point x="1120" y="1518"/>
      <point x="918" y="1518" type="curve" smooth="yes"/>
      <point x="365" y="1518"/>
      <point x="117" y="1438"/>
      <point x="117" y="1370" type="curve" smooth="yes"/>
      <point x="117" y="1243"/>
      <point x="190" y="1122"/>
      <point x="354" y="1061" type="curve"/>
      <point x="381" y="1067"/>
      <point x="422" y="1083"/>
      <point x="422" y="1100" type="curve"/>
      <point x="377" y="1139"/>
      <point x="360" y="1210"/>
      <point x="360" y="1280" type="curve" smooth="yes"/>
      <point x="360" y="1325"/>
      <point x="580" y="1393"/>
      <point x="786" y="1393" type="curve" smooth="yes"/>
      <point x="938" y="1393"/>
      <point x="1063" y="1386"/>
      <point x="1167" y="1376" type="curve"/>
      <point x="721" y="655" type="line"/>
      <point x="631" y="512"/>
      <point x="545" y="403"/>
      <point x="483" y="322" type="curve"/>
    </contour>
  </outline>
</glyph>
<glyph name="bracketleft" format="1">
  <advance width="983"/>
  <unicode hex="005B"/>
  <outline>
    <contour>
      <point x="35" y="-133" type="line" smooth="yes"/>
      <point x="33" y="-139"/>
      <point x="33" y="-154"/>
      <point x="33" y="-162" type="curve" smooth="yes"/>
      <point x="33" y="-180"/>
      <point x="45" y="-199"/>
      <point x="57" y="-199" type="curve" smooth="yes"/>
      <point x="66" y="-199"/>
      <point x="72" y="-197"/>
      <point x="86" y="-190" type="curve"/>
      <point x="238" y="-188"/>
      <point x="369" y="-184"/>
      <point x="520" y="-180" type="curve"/>
      <point x="549" y="-162"/>
      <point x="582" y="-135"/>
      <point x="582" y="-113" type="curve" smooth="yes"/>
      <point x="582" y="-96"/>
      <point x="573" y="-78"/>
      <point x="555" y="-74" type="curve"/>
      <point x="512" y="-74"/>
      <point x="342" y="-76"/>
      <point x="279" y="-76" type="curve"/>
      <point x="283" y="-33"/>
      <point x="653" y="1421"/>
      <point x="653" y="1421" type="curve"/>
      <point x="717" y="1421"/>
      <point x="885" y="1430"/>
      <point x="928" y="1430" type="curve"/>
      <point x="956" y="1436"/>
      <point x="977" y="1464"/>
      <point x="977" y="1487" type="curve" smooth="yes"/>
      <point x="977" y="1509"/>
      <point x="965" y="1536"/>
      <point x="944" y="1536" type="curve" smooth="yes"/>
      <point x="518" y="1536" type="line" smooth="yes"/>
      <point x="481" y="1536"/>
      <point x="451" y="1526"/>
      <point x="438" y="1479" type="curve"/>
    </contour>
  </outline>
</glyph>
<glyph name="backslash" format="1">
  <advance width="821"/>
  <unicode hex="005C"/>
  <outline>
    <contour>
      <point x="158" y="1415" type="curve"/>
      <point x="170" y="1372"/>
      <point x="766" y="258"/>
      <point x="860" y="8" type="curve"/>
      <point x="883" y="-49"/>
      <point x="930" y="-94"/>
      <point x="930" y="-152" type="curve" smooth="yes"/>
      <point x="930" y="-170"/>
      <point x="926" y="-182"/>
      <point x="907" y="-182" type="curve" smooth="yes"/>
      <point x="766" y="-182"/>
      <point x="745" y="-63"/>
      <point x="713" y="-2" type="curve"/>
      <point x="-66" y="1554" type="line"/>
      <point x="-68" y="1561"/>
      <point x="-72" y="1583"/>
      <point x="-72" y="1587" type="curve" smooth="yes"/>
      <point x="-72" y="1604"/>
      <point x="-61" y="1620"/>
      <point x="-51" y="1620" type="curve" smooth="yes"/>
      <point x="72" y="1620"/>
      <point x="106" y="1581"/>
    </contour>
  </outline>
</glyph>
<glyph name="bracketright" format="1">
  <advance width="989"/>
  <unicode hex="005D"/>
  <outline>
    <contour>
      <point x="954" y="1481" type="line" smooth="yes"/>
      <point x="956" y="1487"/>
      <point x="956" y="1501"/>
      <point x="956" y="1509" type="curve" smooth="yes"/>
      <point x="956" y="1528"/>
      <point x="944" y="1546"/>
      <point x="932" y="1546" type="curve" smooth="yes"/>
      <point x="924" y="1546"/>
      <point x="918" y="1544"/>
      <point x="903" y="1538" type="curve"/>
      <point x="752" y="1536"/>
      <point x="621" y="1532"/>
      <point x="469" y="1528" type="curve"/>
      <point x="440" y="1509"/>
      <point x="408" y="1483"/>
      <point x="408" y="1460" type="curve" smooth="yes"/>
      <point x="408" y="1444"/>
      <point x="416" y="1425"/>
      <point x="434" y="1421" type="curve"/>
      <point x="477" y="1421"/>
      <point x="647" y="1423"/>
      <point x="711" y="1423" type="curve"/>
      <point x="707" y="1380"/>
      <point x="317" y="-70"/>
      <point x="336" y="-74" type="curve"/>
      <point x="272" y="-74"/>
      <point x="104" y="-72"/>
      <point x="61" y="-72" type="curve"/>
      <point x="41" y="-76"/>
      <point x="25" y="-94"/>
      <point x="16" y="-111" type="curve"/>
      <point x="6" y="-133"/>
      <point x="25" y="-160"/>
      <point x="45" y="-178" type="curve"/>
      <point x="195" y="-182"/>
      <point x="322" y="-186"/>
      <point x="471" y="-188" type="curve"/>
      <point x="483" y="-195"/>
      <point x="487" y="-197"/>
      <point x="496" y="-197" type="curve" smooth="yes"/>
      <point x="508" y="-197"/>
      <point x="530" y="-178"/>
      <point x="539" y="-160" type="curve" smooth="yes"/>
      <point x="543" y="-152"/>
      <point x="551" y="-137"/>
      <point x="551" y="-131" type="curve"/>
    </contour>
  </outline>
</glyph>
<glyph name="asciicircum" format="1">
  <advance width="1706"/>
  <unicode hex="005E"/>
  <outline>
    <contour>
      <point x="664" y="717" type="line"/>
      <point x="711" y="760"/>
      <point x="1016" y="1108"/>
      <point x="1120" y="1214" type="curve"/>
      <point x="1182" y="1108"/>
      <point x="1372" y="752"/>
      <point x="1403" y="709" type="curve"/>
      <point x="1475" y="750" type="line"/>
      <point x="1473" y="758"/>
      <point x="1214" y="1382"/>
      <point x="1149" y="1382" type="curve" smooth="yes"/>
      <point x="1065" y="1382"/>
      <point x="692" y="913"/>
      <point x="604" y="760" type="curve"/>
    </contour>
  </outline>
</glyph>
<glyph name="underscore" format="1">
  <advance width="930"/>
  <unicode hex="005F"/>
  <outline>
    <contour>
      <point x="121" y="37" type="curve"/>
      <point x="100" y="31"/>
      <point x="72" y="14"/>
      <point x="72" y="-49" type="curve" smooth="yes"/>
      <point x="72" y="-92"/>
      <point x="119" y="-90"/>
      <point x="129" y="-90" type="curve" smooth="yes"/>
      <point x="500" y="-72"/>
      <point x="578" y="-72"/>
      <point x="639" y="-72" type="curve" smooth="yes"/>
      <point x="682" y="-72"/>
      <point x="727" y="-74"/>
      <point x="776" y="-74" type="curve" smooth="yes"/>
      <point x="829" y="-74"/>
      <point x="877" y="-14"/>
      <point x="877" y="23" type="curve" smooth="yes"/>
      <point x="877" y="55"/>
      <point x="780" y="63"/>
      <point x="668" y="63" type="curve" smooth="yes"/>
      <point x="559" y="63"/>
      <point x="180" y="45"/>
    </contour>
  </outline>
</glyph>
<glyph name="grave" format="1">
  <advance width="1706"/>
  <unicode hex="0060"/>
  <outline>
    <contour>
      <point x="1053" y="805" type="move" smooth="yes"/>
    </contour>
    <contour>
      <point x="788" y="1083" type="line" smooth="yes"/>
      <point x="944" y="1022"/>
      <point x="1114" y="965"/>
      <point x="1186" y="940" type="curve"/>
      <point x="1208" y="995" type="line"/>
      <point x="1118" y="1079"/>
      <point x="899" y="1243"/>
      <point x="788" y="1249" type="curve"/>
      <point x="741" y="1249"/>
      <point x="682" y="1186"/>
      <point x="682" y="1147" type="curve" smooth="yes"/>
      <point x="682" y="1135"/>
      <point x="686" y="1122"/>
      <point x="700" y="1118" type="curve"/>
    </contour>
  </outline>
</glyph>
<glyph name="a" format="1">
  <advance width="928"/>
  <unicode hex="0061"/>
  <outline>
    <contour>
      <point x="150" y="-29" type="curve" smooth="yes"/>
      <point x="291" y="-29"/>
      <point x="428" y="92"/>
      <point x="510" y="199" type="curve"/>
      <point x="506" y="172"/>
      <point x="502" y="137"/>
      <point x="502" y="102" type="curve" smooth="yes"/>
      <point x="502" y="35"/>
      <point x="518" y="-29"/>
      <point x="578" y="-29" type="curve" smooth="yes"/>
      <point x="678" y="-29"/>
      <point x="971" y="244"/>
      <point x="1051" y="328" type="curve"/>
      <point x="1051" y="440" type="line"/>
      <point x="918" y="299"/>
      <point x="799" y="186"/>
      <point x="745" y="186" type="curve" smooth="yes"/>
      <point x="723" y="186"/>
      <point x="715" y="205"/>
      <point x="715" y="250" type="curve" smooth="yes"/>
      <point x="715" y="332"/>
      <point x="817" y="766"/>
      <point x="825" y="807" type="curve"/>
      <point x="768" y="825"/>
      <point x="717" y="840"/>
      <point x="657" y="840" type="curve" smooth="yes"/>
      <point x="301" y="840"/>
      <point x="-4" y="520"/>
      <point x="-4" y="225" type="curve" smooth="yes"/>
      <point x="-4" y="121"/>
      <point x="23" y="-29"/>
    </contour>
    <contour>
      <point x="637" y="764" type="curve"/>
      <point x="522" y="272" type="line"/>
      <point x="467" y="213"/>
      <point x="369" y="131"/>
      <point x="307" y="131" type="curve" smooth="yes"/>
      <point x="233" y="131"/>
      <point x="209" y="203"/>
      <point x="209" y="281" type="curve" smooth="yes"/>
      <point x="209" y="492"/>
      <point x="412" y="764"/>
    </contour>
  </outline>
</glyph>
<glyph name="b" format="1">
  <advance width="986"/>
  <unicode hex="0062"/>
  <outline>
    <contour>
      <point x="430" y="924" type="curve"/>
      <point x="430" y="997"/>
      <point x="608" y="1466"/>
      <point x="678" y="1466" type="curve" smooth="yes"/>
      <point x="725" y="1466"/>
      <point x="745" y="1440"/>
      <point x="745" y="1399" type="curve" smooth="yes"/>
      <point x="745" y="1272"/>
      <point x="565" y="1010"/>
    </contour>
    <contour>
      <point x="287" y="1108" type="curve" smooth="yes"/>
      <point x="178" y="715"/>
      <point x="78" y="420"/>
      <point x="78" y="133" type="curve" smooth="yes"/>
      <point x="78" y="37"/>
      <point x="104" y="-57"/>
      <point x="291" y="-57" type="curve" smooth="yes"/>
      <point x="711" y="-57"/>
      <point x="947" y="209"/>
      <point x="1074" y="332" type="curve"/>
      <point x="1075" y="446" type="line"/>
      <point x="986" y="358"/>
      <point x="858" y="207"/>
      <point x="768" y="156" type="curve"/>
      <point x="883" y="250"/>
      <point x="913" y="428"/>
      <point x="913" y="547" type="curve" smooth="yes"/>
      <point x="913" y="682"/>
      <point x="850" y="776"/>
      <point x="702" y="776" type="curve" smooth="yes"/>
      <point x="627" y="776"/>
      <point x="500" y="672"/>
      <point x="481" y="600" type="curve"/>
      <point x="670" y="600"/>
      <point x="737" y="532"/>
      <point x="737" y="436" type="curve" smooth="yes"/>
      <point x="737" y="283"/>
      <point x="555" y="76"/>
      <point x="410" y="76" type="curve" smooth="yes"/>
      <point x="322" y="76"/>
      <point x="293" y="141"/>
      <point x="293" y="236" type="curve" smooth="yes"/>
      <point x="293" y="375"/>
      <point x="358" y="582"/>
      <point x="395" y="733" type="curve"/>
      <point x="778" y="1087"/>
      <point x="895" y="1311"/>
      <point x="895" y="1450" type="curve" smooth="yes"/>
      <point x="895" y="1528"/>
      <point x="854" y="1581"/>
      <point x="741" y="1581" type="curve" smooth="yes"/>
      <point x="530" y="1581"/>
      <point x="340" y="1300"/>
    </contour>
  </outline>
</glyph>
<glyph name="c" format="1">
  <advance width="696"/>
  <unicode hex="0063"/>
  <outline>
    <contour>
      <point x="506" y="821" type="move" name="top"/>
    </contour>
    <contour>
      <point x="229" y="0" type="move" name="bot"/>
    </contour>
    <contour>
      <point x="227" y="-29" type="curve" smooth="yes"/>
      <point x="428" y="-29"/>
      <point x="641" y="154"/>
      <point x="823" y="330" type="curve"/>
      <point x="823" y="442" type="line"/>
      <point x="672" y="293"/>
      <point x="481" y="141"/>
      <point x="344" y="141" type="curve" smooth="yes"/>
      <point x="252" y="141"/>
      <point x="215" y="229"/>
      <point x="215" y="338" type="curve" smooth="yes"/>
      <point x="215" y="514"/>
      <point x="311" y="743"/>
      <point x="432" y="743" type="curve" smooth="yes"/>
      <point x="522" y="743"/>
      <point x="520" y="616"/>
      <point x="575" y="616" type="curve" smooth="yes"/>
      <point x="651" y="616"/>
      <point x="707" y="659"/>
      <point x="707" y="717" type="curve" smooth="yes"/>
      <point x="707" y="827"/>
      <point x="578" y="840"/>
      <point x="508" y="840" type="curve" smooth="yes"/>
      <point x="209" y="840"/>
      <point x="-4" y="487"/>
      <point x="-4" y="231" type="curve" smooth="yes"/>
      <point x="-4" y="86"/>
      <point x="66" y="-29"/>
    </contour>
  </outline>
</glyph>
<glyph name="d" format="1">
  <advance width="913"/>
  <unicode hex="0064"/>
  <outline>
    <contour>
      <point x="147" y="-29" type="curve" smooth="yes"/>
      <point x="231" y="-29"/>
      <point x="389" y="61"/>
      <point x="541" y="238" type="curve"/>
      <point x="530" y="193"/>
      <point x="524" y="145"/>
      <point x="524" y="104" type="curve" smooth="yes"/>
      <point x="524" y="29"/>
      <point x="545" y="-29"/>
      <point x="606" y="-29" type="curve" smooth="yes"/>
      <point x="692" y="-29"/>
      <point x="883" y="174"/>
      <point x="1036" y="328" type="curve"/>
      <point x="1036" y="440" type="line"/>
      <point x="909" y="307"/>
      <point x="805" y="199"/>
      <point x="772" y="199" type="curve" smooth="yes"/>
      <point x="750" y="199"/>
      <point x="741" y="211"/>
      <point x="741" y="262" type="curve" smooth="yes"/>
      <point x="741" y="377"/>
      <point x="958" y="1130"/>
      <point x="1022" y="1321" type="curve"/>
      <point x="1036" y="1368"/>
      <point x="1055" y="1442"/>
      <point x="1057" y="1460" type="curve"/>
      <point x="1022" y="1460" type="line" smooth="yes"/>
      <point x="852" y="1460"/>
      <point x="842" y="1430"/>
      <point x="809" y="1294" type="curve"/>
      <point x="676" y="819" type="line"/>
      <point x="649" y="827"/>
      <point x="610" y="840"/>
      <point x="545" y="840" type="curve" smooth="yes"/>
      <point x="297" y="840"/>
      <point x="10" y="471"/>
      <point x="10" y="182" type="curve" smooth="yes"/>
      <point x="10" y="98"/>
      <point x="31" y="-29"/>
    </contour>
    <contour>
      <point x="657" y="731" type="curve"/>
      <point x="569" y="344" type="line" smooth="yes"/>
      <point x="557" y="295"/>
      <point x="395" y="158"/>
      <point x="303" y="158" type="curve" smooth="yes"/>
      <point x="254" y="158"/>
      <point x="221" y="190"/>
      <point x="221" y="285" type="curve" smooth="yes"/>
      <point x="221" y="489"/>
      <point x="383" y="770"/>
      <point x="563" y="770" type="curve" smooth="yes"/>
      <point x="623" y="770"/>
      <point x="655" y="737"/>
    </contour>
  </outline>
</glyph>
<glyph name="e" format="1">
  <advance width="731"/>
  <unicode hex="0065"/>
  <outline>
    <contour>
      <point x="518" y="821" type="move" name="top"/>
    </contour>
    <contour>
      <point x="303" y="565" type="curve"/>
      <point x="324" y="625"/>
      <point x="401" y="750"/>
      <point x="520" y="750" type="curve" smooth="yes"/>
      <point x="578" y="750"/>
      <point x="614" y="729"/>
      <point x="614" y="653" type="curve" smooth="yes"/>
      <point x="614" y="559"/>
      <point x="549" y="467"/>
      <point x="471" y="467" type="curve" smooth="yes"/>
      <point x="412" y="467"/>
      <point x="350" y="504"/>
    </contour>
    <contour>
      <point x="852" y="438" type="line"/>
      <point x="723" y="319"/>
      <point x="524" y="82"/>
      <point x="399" y="82" type="curve" smooth="yes"/>
      <point x="268" y="82"/>
      <point x="231" y="193"/>
      <point x="231" y="313" type="curve" smooth="yes"/>
      <point x="231" y="369"/>
      <point x="244" y="426"/>
      <point x="274" y="489" type="curve"/>
      <point x="324" y="412"/>
      <point x="399" y="381"/>
      <point x="455" y="381" type="curve" smooth="yes"/>
      <point x="606" y="381"/>
      <point x="754" y="510"/>
      <point x="754" y="664" type="curve" smooth="yes"/>
      <point x="754" y="797"/>
      <point x="649" y="840"/>
      <point x="518" y="840" type="curve" smooth="yes"/>
      <point x="227" y="840"/>
      <point x="27" y="547"/>
      <point x="27" y="258" type="curve" smooth="yes"/>
      <point x="27" y="33"/>
      <point x="152" y="-29"/>
      <point x="330" y="-29" type="curve" smooth="yes"/>
      <point x="492" y="-29"/>
      <point x="662" y="119"/>
      <point x="852" y="328" type="curve"/>
    </contour>
  </outline>
</glyph>
<glyph name="f" format="1">
  <advance width="453"/>
  <unicode hex="0066"/>
  <outline>
    <contour>
      <point x="616" y="1255" type="curve" smooth="yes"/>
      <point x="616" y="1059"/>
      <point x="395" y="774"/>
      <point x="274" y="586" type="curve"/>
      <point x="311" y="770"/>
      <point x="420" y="1358"/>
      <point x="547" y="1358" type="curve" smooth="yes"/>
      <point x="606" y="1358"/>
      <point x="616" y="1305"/>
    </contour>
    <contour>
      <point x="575" y="440" type="line"/>
      <point x="524" y="377"/>
      <point x="369" y="238"/>
      <point x="328" y="238" type="curve" smooth="yes"/>
      <point x="272" y="238"/>
      <point x="225" y="305"/>
      <point x="225" y="371" type="curve" smooth="yes"/>
      <point x="225" y="479"/>
      <point x="743" y="899"/>
      <point x="743" y="1325" type="curve" smooth="yes"/>
      <point x="743" y="1384"/>
      <point x="741" y="1466"/>
      <point x="649" y="1466" type="curve" smooth="yes"/>
      <point x="485" y="1466"/>
      <point x="297" y="1315"/>
      <point x="262" y="1190" type="curve" smooth="yes"/>
      <point x="150" y="786"/>
      <point x="-16" y="92"/>
      <point x="-74" y="-336" type="curve"/>
      <point x="94" y="-336" type="line"/>
      <point x="115" y="-266"/>
      <point x="193" y="164"/>
      <point x="199" y="193" type="curve"/>
      <point x="217" y="145"/>
      <point x="264" y="131"/>
      <point x="303" y="131" type="curve" smooth="yes"/>
      <point x="377" y="131"/>
      <point x="502" y="250"/>
      <point x="575" y="328" type="curve"/>
    </contour>
  </outline>
</glyph>
<glyph name="g" format="1">
  <advance width="928"/>
  <unicode hex="0067"/>
  <outline>
    <contour>
      <point x="293" y="-547" type="curve" smooth="yes"/>
      <point x="459" y="-547"/>
      <point x="674" y="-330"/>
      <point x="737" y="23" type="curve"/>
      <point x="1051" y="328" type="line"/>
      <point x="1051" y="440" type="line"/>
      <point x="952" y="332"/>
      <point x="883" y="272"/>
      <point x="758" y="154" type="curve"/>
      <point x="911" y="801" type="line"/>
      <point x="825" y="817"/>
      <point x="694" y="840"/>
      <point x="612" y="840" type="curve" smooth="yes"/>
      <point x="283" y="840"/>
      <point x="51" y="471"/>
      <point x="51" y="172" type="curve" smooth="yes"/>
      <point x="51" y="78"/>
      <point x="98" y="-29"/>
      <point x="186" y="-29" type="curve" smooth="yes"/>
      <point x="291" y="-29"/>
      <point x="387" y="2"/>
      <point x="569" y="164" type="curve"/>
      <point x="537" y="-6" type="line"/>
      <point x="260" y="-219" type="line" smooth="yes"/>
      <point x="180" y="-281"/>
      <point x="104" y="-330"/>
      <point x="104" y="-403" type="curve" smooth="yes"/>
      <point x="104" y="-502"/>
      <point x="209" y="-547"/>
    </contour>
    <contour>
      <point x="524" y="-117" type="line"/>
      <point x="500" y="-328"/>
      <point x="436" y="-492"/>
      <point x="324" y="-492" type="curve" smooth="yes"/>
      <point x="274" y="-492"/>
      <point x="250" y="-477"/>
      <point x="250" y="-424" type="curve" smooth="yes"/>
      <point x="250" y="-328"/>
      <point x="313" y="-295"/>
      <point x="360" y="-256" type="curve" smooth="yes"/>
    </contour>
    <contour>
      <point x="584" y="279" type="line"/>
      <point x="498" y="182"/>
      <point x="422" y="131"/>
      <point x="367" y="131" type="curve" smooth="yes"/>
      <point x="307" y="131"/>
      <point x="270" y="193"/>
      <point x="270" y="324" type="curve" smooth="yes"/>
      <point x="270" y="524"/>
      <point x="416" y="784"/>
      <point x="602" y="784" type="curve" smooth="yes"/>
      <point x="627" y="784"/>
      <point x="651" y="778"/>
      <point x="700" y="766" type="curve"/>
    </contour>
  </outline>
</glyph>
<glyph name="h" format="1">
  <advance width="881"/>
  <unicode hex="0068"/>
  <outline>
    <contour>
      <point x="596" y="1458" type="line"/>
      <point x="586" y="1462"/>
      <point x="567" y="1462"/>
      <point x="551" y="1462" type="curve" smooth="yes"/>
      <point x="410" y="1462"/>
      <point x="387" y="1456"/>
      <point x="319" y="1204" type="curve"/>
      <point x="319" y="1204"/>
      <point x="27" y="131"/>
      <point x="10" y="0" type="curve"/>
      <point x="166" y="0" type="line"/>
      <point x="213" y="39"/>
      <point x="236" y="121"/>
      <point x="270" y="252" type="curve" smooth="yes"/>
      <point x="319" y="436"/>
      <point x="469" y="655"/>
      <point x="592" y="655" type="curve" smooth="yes"/>
      <point x="629" y="655"/>
      <point x="649" y="635"/>
      <point x="649" y="598" type="curve" smooth="yes"/>
      <point x="649" y="432"/>
      <point x="545" y="160"/>
      <point x="537" y="88" type="curve" smooth="yes"/>
      <point x="535" y="76"/>
      <point x="532" y="59"/>
      <point x="532" y="47" type="curve" smooth="yes"/>
      <point x="532" y="8"/>
      <point x="545" y="-29"/>
      <point x="596" y="-29" type="curve" smooth="yes"/>
      <point x="690" y="-29"/>
      <point x="913" y="223"/>
      <point x="1008" y="332" type="curve"/>
      <point x="1008" y="444" type="line"/>
      <point x="909" y="358"/>
      <point x="770" y="203"/>
      <point x="750" y="203" type="curve" smooth="yes"/>
      <point x="731" y="203"/>
      <point x="731" y="233"/>
      <point x="731" y="233" type="curve"/>
      <point x="731" y="369"/>
      <point x="860" y="629"/>
      <point x="860" y="723" type="curve" smooth="yes"/>
      <point x="860" y="799"/>
      <point x="829" y="840"/>
      <point x="762" y="840" type="curve" smooth="yes"/>
      <point x="604" y="840"/>
      <point x="428" y="684"/>
      <point x="334" y="510" type="curve"/>
    </contour>
  </outline>
</glyph>
<glyph name="i" format="1">
  <advance width="469"/>
  <unicode hex="0069"/>
  <outline>
    <contour>
      <point x="117" y="-29" type="curve"/>
      <point x="240" y="-23"/>
      <point x="365" y="104"/>
      <point x="590" y="326" type="curve"/>
      <point x="590" y="438" type="line"/>
      <point x="528" y="369"/>
      <point x="299" y="133"/>
      <point x="266" y="133" type="curve" smooth="yes"/>
      <point x="236" y="133"/>
      <point x="231" y="180"/>
      <point x="231" y="199" type="curve" smooth="yes"/>
      <point x="231" y="299"/>
      <point x="356" y="694"/>
      <point x="389" y="807" type="curve"/>
      <point x="279" y="807"/>
      <point x="209" y="809"/>
      <point x="168" y="702" type="curve" smooth="yes"/>
      <point x="139" y="627"/>
      <point x="29" y="209"/>
      <point x="29" y="102" type="curve" smooth="yes"/>
      <point x="29" y="41"/>
      <point x="53" y="-29"/>
    </contour>
    <contour>
      <point x="403" y="1073" type="curve" smooth="yes"/>
      <point x="487" y="1073"/>
      <point x="559" y="1153"/>
      <point x="559" y="1217" type="curve" smooth="yes"/>
      <point x="559" y="1255"/>
      <point x="530" y="1288"/>
      <point x="459" y="1288" type="curve" smooth="yes"/>
      <point x="385" y="1288"/>
      <point x="332" y="1206"/>
      <point x="332" y="1145" type="curve" smooth="yes"/>
      <point x="332" y="1106"/>
      <point x="352" y="1073"/>
    </contour>
  </outline>
</glyph>
<glyph name="j" format="1">
  <advance width="442"/>
  <unicode hex="006A"/>
  <outline>
    <contour>
      <point x="-18" y="2" type="line"/>
      <point x="-18" y="2"/>
      <point x="-389" y="-295"/>
      <point x="-440" y="-588" type="curve"/>
      <point x="-451" y="-672"/>
      <point x="-438" y="-791"/>
      <point x="-346" y="-791" type="curve" smooth="yes"/>
      <point x="-182" y="-791"/>
      <point x="6" y="-639"/>
      <point x="41" y="-514" type="curve" smooth="yes"/>
      <point x="96" y="-317"/>
      <point x="104" y="-272"/>
      <point x="158" y="-16" type="curve"/>
      <point x="287" y="45"/>
      <point x="420" y="178"/>
      <point x="567" y="328" type="curve"/>
      <point x="567" y="440" type="line"/>
      <point x="397" y="268"/>
      <point x="217" y="115"/>
      <point x="195" y="106" type="curve"/>
      <point x="195" y="207"/>
      <point x="342" y="694"/>
      <point x="375" y="807" type="curve"/>
      <point x="264" y="807"/>
      <point x="195" y="809"/>
      <point x="154" y="702" type="curve" smooth="yes"/>
      <point x="127" y="633"/>
      <point x="47" y="279"/>
      <point x="20" y="137" type="curve"/>
    </contour>
    <contour>
      <point x="-313" y="-580" type="curve"/>
      <point x="-287" y="-469"/>
      <point x="-264" y="-403"/>
      <point x="-23" y="-117" type="curve"/>
      <point x="-59" y="-301"/>
      <point x="-117" y="-682"/>
      <point x="-244" y="-682" type="curve" smooth="yes"/>
      <point x="-303" y="-682"/>
      <point x="-326" y="-627"/>
    </contour>
    <contour>
      <point x="389" y="1073" type="curve" smooth="yes"/>
      <point x="473" y="1073"/>
      <point x="545" y="1153"/>
      <point x="545" y="1217" type="curve" smooth="yes"/>
      <point x="545" y="1255"/>
      <point x="516" y="1288"/>
      <point x="444" y="1288" type="curve" smooth="yes"/>
      <point x="371" y="1288"/>
      <point x="317" y="1206"/>
      <point x="317" y="1145" type="curve" smooth="yes"/>
      <point x="317" y="1106"/>
      <point x="338" y="1073"/>
    </contour>
  </outline>
</glyph>
<glyph name="k" format="1">
  <advance width="905"/>
  <unicode hex="006B"/>
  <outline>
    <contour>
      <point x="1028" y="440" type="line"/>
      <point x="934" y="342"/>
      <point x="733" y="145"/>
      <point x="719" y="131" type="curve" smooth="yes"/>
      <point x="713" y="125"/>
      <point x="707" y="121"/>
      <point x="702" y="121" type="curve" smooth="yes"/>
      <point x="688" y="121"/>
      <point x="684" y="156"/>
      <point x="684" y="188" type="curve" smooth="yes"/>
      <point x="684" y="211"/>
      <point x="686" y="236"/>
      <point x="686" y="262" type="curve" smooth="yes"/>
      <point x="686" y="342"/>
      <point x="668" y="424"/>
      <point x="522" y="424" type="curve"/>
      <point x="702" y="489"/>
      <point x="829" y="526"/>
      <point x="829" y="698" type="curve" smooth="yes"/>
      <point x="829" y="776"/>
      <point x="776" y="840"/>
      <point x="696" y="840" type="curve" smooth="yes"/>
      <point x="575" y="840"/>
      <point x="451" y="795"/>
      <point x="348" y="674" type="curve"/>
      <point x="346" y="674"/>
      <point x="516" y="1243"/>
      <point x="575" y="1458" type="curve"/>
      <point x="565" y="1462"/>
      <point x="547" y="1462"/>
      <point x="530" y="1462" type="curve" smooth="yes"/>
      <point x="389" y="1462"/>
      <point x="367" y="1456"/>
      <point x="299" y="1204" type="curve"/>
      <point x="299" y="1204"/>
      <point x="6" y="131"/>
      <point x="-10" y="0" type="curve"/>
      <point x="145" y="0" type="line"/>
      <point x="223" y="66"/>
      <point x="279" y="342"/>
      <point x="283" y="360" type="curve" smooth="yes"/>
      <point x="289" y="387" type="line"/>
      <point x="477" y="387"/>
      <point x="510" y="356"/>
      <point x="510" y="303" type="curve" smooth="yes"/>
      <point x="510" y="256"/>
      <point x="496" y="180"/>
      <point x="496" y="113" type="curve" smooth="yes"/>
      <point x="496" y="37"/>
      <point x="514" y="-29"/>
      <point x="590" y="-29" type="curve" smooth="yes"/>
      <point x="672" y="-29"/>
      <point x="733" y="37"/>
      <point x="1028" y="328" type="curve"/>
    </contour>
    <contour>
      <point x="295" y="457" type="line"/>
      <point x="307" y="575"/>
      <point x="502" y="741"/>
      <point x="573" y="741" type="curve" smooth="yes"/>
      <point x="625" y="741"/>
      <point x="651" y="709"/>
      <point x="651" y="647" type="curve" smooth="yes"/>
      <point x="651" y="512"/>
      <point x="467" y="457"/>
      <point x="362" y="457" type="curve" smooth="yes"/>
    </contour>
  </outline>
</glyph>
<glyph name="l" format="1">
  <advance width="553"/>
  <unicode hex="006C"/>
  <outline>
    <contour>
      <point x="721" y="1331" type="curve" smooth="yes"/>
      <point x="721" y="1214"/>
      <point x="602" y="836"/>
      <point x="389" y="618" type="curve"/>
      <point x="494" y="1116"/>
      <point x="578" y="1417"/>
      <point x="678" y="1417" type="curve" smooth="yes"/>
      <point x="717" y="1417"/>
      <point x="721" y="1364"/>
    </contour>
    <contour>
      <point x="180" y="-29" type="curve"/>
      <point x="313" y="-20"/>
      <point x="451" y="88"/>
      <point x="674" y="328" type="curve"/>
      <point x="674" y="440" type="line"/>
      <point x="582" y="338"/>
      <point x="369" y="117"/>
      <point x="332" y="117" type="curve" smooth="yes"/>
      <point x="297" y="117"/>
      <point x="297" y="172"/>
      <point x="297" y="188" type="curve" smooth="yes"/>
      <point x="297" y="266"/>
      <point x="356" y="422"/>
      <point x="356" y="422" type="curve"/>
      <point x="356" y="422"/>
      <point x="834" y="862"/>
      <point x="834" y="1372" type="curve" smooth="yes"/>
      <point x="834" y="1464"/>
      <point x="782" y="1532"/>
      <point x="694" y="1532" type="curve" smooth="yes"/>
      <point x="399" y="1532"/>
      <point x="90" y="729"/>
      <point x="90" y="207" type="curve" smooth="yes"/>
      <point x="90" y="109"/>
      <point x="90" y="-29"/>
    </contour>
  </outline>
</glyph>
<glyph name="m" format="1">
  <advance width="1348"/>
  <unicode hex="006D"/>
  <outline>
    <contour>
      <point x="1184" y="840" type="curve" smooth="yes"/>
      <point x="1004" y="840"/>
      <point x="815" y="610"/>
      <point x="729" y="440" type="curve"/>
      <point x="754" y="522"/>
      <point x="782" y="616"/>
      <point x="782" y="705" type="curve" smooth="yes"/>
      <point x="782" y="752"/>
      <point x="764" y="838"/>
      <point x="705" y="838" type="curve" smooth="yes"/>
      <point x="502" y="838"/>
      <point x="342" y="598"/>
      <point x="252" y="440" type="curve"/>
      <point x="285" y="557"/>
      <point x="338" y="686"/>
      <point x="362" y="807" type="curve"/>
      <point x="236" y="807"/>
      <point x="182" y="803"/>
      <point x="156" y="758" type="curve"/>
      <point x="84" y="643"/>
      <point x="-16" y="150"/>
      <point x="-25" y="0" type="curve"/>
      <point x="166" y="0" type="line"/>
      <point x="199" y="131"/>
      <point x="340" y="569"/>
      <point x="526" y="655" type="curve" smooth="yes"/>
      <point x="532" y="657"/>
      <point x="541" y="659"/>
      <point x="547" y="659" type="curve" smooth="yes"/>
      <point x="571" y="659"/>
      <point x="594" y="639"/>
      <point x="594" y="600" type="curve" smooth="yes"/>
      <point x="594" y="594"/>
      <point x="594" y="586"/>
      <point x="592" y="578" type="curve" smooth="yes"/>
      <point x="557" y="389"/>
      <point x="463" y="199"/>
      <point x="463" y="0" type="curve"/>
      <point x="655" y="0" type="line"/>
      <point x="694" y="139"/>
      <point x="864" y="655"/>
      <point x="1036" y="655" type="curve" smooth="yes"/>
      <point x="1075" y="655"/>
      <point x="1102" y="616"/>
      <point x="1102" y="582" type="curve" smooth="yes"/>
      <point x="1102" y="418"/>
      <point x="963" y="242"/>
      <point x="963" y="57" type="curve" smooth="yes"/>
      <point x="963" y="2"/>
      <point x="985" y="-31"/>
      <point x="1022" y="-31" type="curve" smooth="yes"/>
      <point x="1094" y="-31"/>
      <point x="1331" y="186"/>
      <point x="1468" y="328" type="curve"/>
      <point x="1468" y="440" type="line"/>
      <point x="1337" y="311"/>
      <point x="1243" y="209"/>
      <point x="1208" y="209" type="curve" smooth="yes"/>
      <point x="1200" y="209"/>
      <point x="1196" y="217"/>
      <point x="1196" y="231" type="curve" smooth="yes"/>
      <point x="1196" y="238"/>
      <point x="1198" y="248"/>
      <point x="1200" y="260" type="curve" smooth="yes"/>
      <point x="1206" y="289"/>
      <point x="1296" y="506"/>
      <point x="1296" y="686" type="curve" smooth="yes"/>
      <point x="1296" y="774"/>
      <point x="1272" y="840"/>
    </contour>
  </outline>
</glyph>
<glyph name="n" format="1">
  <advance width="838"/>
  <unicode hex="006E"/>
  <outline>
    <contour>
      <point x="958" y="436" type="line"/>
      <point x="909" y="395"/>
      <point x="758" y="242"/>
      <point x="723" y="219" type="curve" smooth="yes"/>
      <point x="707" y="209"/>
      <point x="696" y="205"/>
      <point x="688" y="205" type="curve" smooth="yes"/>
      <point x="680" y="205"/>
      <point x="676" y="211"/>
      <point x="676" y="223" type="curve" smooth="yes"/>
      <point x="676" y="283"/>
      <point x="817" y="621"/>
      <point x="817" y="723" type="curve" smooth="yes"/>
      <point x="817" y="799"/>
      <point x="786" y="840"/>
      <point x="719" y="840" type="curve" smooth="yes"/>
      <point x="537" y="840"/>
      <point x="332" y="594"/>
      <point x="252" y="444" type="curve"/>
      <point x="287" y="555"/>
      <point x="360" y="807"/>
      <point x="360" y="807" type="curve"/>
      <point x="293" y="807" type="line" smooth="yes"/>
      <point x="223" y="807"/>
      <point x="170" y="797"/>
      <point x="143" y="727" type="curve" smooth="yes"/>
      <point x="86" y="582"/>
      <point x="-23" y="154"/>
      <point x="-25" y="0" type="curve"/>
      <point x="166" y="0" type="line"/>
      <point x="201" y="152"/>
      <point x="385" y="655"/>
      <point x="549" y="655" type="curve" smooth="yes"/>
      <point x="569" y="655"/>
      <point x="588" y="635"/>
      <point x="588" y="600" type="curve" smooth="yes"/>
      <point x="588" y="500"/>
      <point x="438" y="260"/>
      <point x="438" y="47" type="curve" smooth="yes"/>
      <point x="438" y="18"/>
      <point x="449" y="-29"/>
      <point x="518" y="-29" type="curve" smooth="yes"/>
      <point x="598" y="-29"/>
      <point x="879" y="244"/>
      <point x="958" y="324" type="curve"/>
    </contour>
  </outline>
</glyph>
<glyph name="o" format="1">
  <advance width="907"/>
  <unicode hex="006F"/>
  <outline>
    <contour>
      <point x="610" y="823" type="move" name="top"/>
    </contour>
    <contour>
      <point x="695" y="214" type="curve"/>
      <point x="720" y="211"/>
      <point x="744" y="210"/>
      <point x="765" y="210" type="curve" smooth="yes"/>
      <point x="841" y="210"/>
      <point x="899" y="265"/>
      <point x="981" y="352" type="curve"/>
      <point x="981" y="462" type="line"/>
      <point x="883" y="362"/>
      <point x="826" y="284"/>
      <point x="767" y="284" type="curve" smooth="yes"/>
      <point x="756" y="284"/>
      <point x="747" y="284"/>
      <point x="736" y="284" type="curve"/>
      <point x="798" y="343"/>
      <point x="836" y="429"/>
      <point x="836" y="506" type="curve" smooth="yes"/>
      <point x="836" y="602"/>
      <point x="788" y="682"/>
      <point x="668" y="682" type="curve" smooth="yes"/>
      <point x="532" y="682"/>
      <point x="475" y="602"/>
      <point x="475" y="504" type="curve" smooth="yes"/>
      <point x="475" y="415"/>
      <point x="526" y="313"/>
      <point x="624" y="253" type="curve"/>
      <point x="565" y="183"/>
      <point x="501" y="153"/>
      <point x="445" y="153" type="curve" smooth="yes"/>
      <point x="343" y="153"/>
      <point x="260" y="264"/>
      <point x="260" y="412" type="curve" smooth="yes"/>
      <point x="260" y="604"/>
      <point x="389" y="784"/>
      <point x="662" y="784" type="curve"/>
      <point x="684" y="799"/>
      <point x="684" y="807"/>
      <point x="684" y="827" type="curve"/>
      <point x="682" y="838"/>
      <point x="672" y="840"/>
      <point x="662" y="840" type="curve" smooth="yes"/>
      <point x="285" y="840"/>
      <point x="31" y="645"/>
      <point x="31" y="317" type="curve" smooth="yes"/>
      <point x="31" y="154"/>
      <point x="104" y="-29"/>
      <point x="301" y="-29" type="curve" smooth="yes"/>
      <point x="455" y="-29"/>
      <point x="601" y="78"/>
    </contour>
    <contour>
      <point x="681" y="320" type="curve"/>
      <point x="622" y="359"/>
      <point x="578" y="433"/>
      <point x="578" y="489" type="curve" smooth="yes"/>
      <point x="578" y="543"/>
      <point x="602" y="586"/>
      <point x="659" y="586" type="curve" smooth="yes"/>
      <point x="721" y="586"/>
      <point x="741" y="545"/>
      <point x="741" y="494" type="curve" smooth="yes"/>
      <point x="741" y="436"/>
      <point x="707" y="349"/>
    </contour>
  </outline>
</glyph>
<glyph name="p" format="1">
  <advance width="836"/>
  <unicode hex="0070"/>
  <outline>
    <contour>
      <point x="983" y="354" type="curve"/>
      <point x="983" y="469" type="line"/>
      <point x="688" y="166"/>
      <point x="594" y="145"/>
      <point x="528" y="145" type="curve"/>
      <point x="670" y="233"/>
      <point x="817" y="512"/>
      <point x="817" y="688" type="curve" smooth="yes"/>
      <point x="817" y="776"/>
      <point x="780" y="840"/>
      <point x="688" y="840" type="curve" smooth="yes"/>
      <point x="508" y="840"/>
      <point x="315" y="590"/>
      <point x="242" y="444" type="curve"/>
      <point x="279" y="565"/>
      <point x="315" y="686"/>
      <point x="350" y="807" type="curve"/>
      <point x="283" y="807" type="line" smooth="yes"/>
      <point x="209" y="807"/>
      <point x="162" y="803"/>
      <point x="133" y="727" type="curve" smooth="yes"/>
      <point x="2" y="375"/>
      <point x="-37" y="-25"/>
      <point x="-137" y="-389" type="curve"/>
      <point x="43" y="-389" type="line"/>
      <point x="61" y="-315"/>
      <point x="94" y="-166"/>
      <point x="139" y="-2" type="curve"/>
      <point x="166" y="84" type="line" smooth="yes"/>
      <point x="252" y="362"/>
      <point x="371" y="655"/>
      <point x="528" y="655" type="curve" smooth="yes"/>
      <point x="575" y="655"/>
      <point x="594" y="623"/>
      <point x="594" y="573" type="curve" smooth="yes"/>
      <point x="594" y="459"/>
      <point x="492" y="256"/>
      <point x="416" y="168" type="curve" smooth="yes"/>
      <point x="379" y="125"/>
      <point x="336" y="80"/>
      <point x="336" y="49" type="curve" smooth="yes"/>
      <point x="336" y="8"/>
      <point x="348" y="-16"/>
      <point x="395" y="-16" type="curve" smooth="yes"/>
      <point x="629" y="-16"/>
      <point x="743" y="121"/>
    </contour>
  </outline>
</glyph>
<glyph name="q" format="1">
  <advance width="897"/>
  <unicode hex="0071"/>
  <outline>
    <contour>
      <point x="561" y="-440" type="line"/>
      <point x="588" y="-389"/>
      <point x="676" y="-45"/>
      <point x="690" y="14" type="curve" smooth="yes"/>
      <point x="690" y="18" type="line"/>
      <point x="1022" y="328" type="line"/>
      <point x="1022" y="440" type="line"/>
      <point x="918" y="315"/>
      <point x="844" y="272"/>
      <point x="711" y="123" type="curve"/>
      <point x="864" y="760" type="line"/>
      <point x="778" y="793"/>
      <point x="647" y="840"/>
      <point x="565" y="840" type="curve" smooth="yes"/>
      <point x="240" y="840"/>
      <point x="55" y="516"/>
      <point x="55" y="258" type="curve" smooth="yes"/>
      <point x="55" y="20"/>
      <point x="195" y="-55"/>
      <point x="373" y="-55" type="curve" smooth="yes"/>
      <point x="408" y="-55"/>
      <point x="444" y="-53"/>
      <point x="481" y="-47" type="curve"/>
      <point x="371" y="-379" type="line"/>
    </contour>
    <contour>
      <point x="496" y="72" type="line"/>
      <point x="469" y="63"/>
      <point x="444" y="61"/>
      <point x="424" y="61" type="curve" smooth="yes"/>
      <point x="307" y="61"/>
      <point x="262" y="158"/>
      <point x="262" y="291" type="curve" smooth="yes"/>
      <point x="262" y="498"/>
      <point x="393" y="784"/>
      <point x="555" y="784" type="curve" smooth="yes"/>
      <point x="580" y="784"/>
      <point x="604" y="778"/>
      <point x="653" y="766" type="curve"/>
    </contour>
  </outline>
</glyph>
<glyph name="r" format="1">
  <advance width="659"/>
  <unicode hex="0072"/>
  <outline>
    <contour>
      <point x="481" y="840" type="move" name="top"/>
    </contour>
    <contour>
      <point x="639" y="717" type="curve" smooth="yes"/>
      <point x="641" y="721"/>
      <point x="641" y="725"/>
      <point x="641" y="729" type="curve" smooth="yes"/>
      <point x="641" y="739"/>
      <point x="629" y="743"/>
      <point x="612" y="743" type="curve" smooth="yes"/>
      <point x="578" y="743"/>
      <point x="522" y="729"/>
      <point x="492" y="729" type="curve" smooth="yes"/>
      <point x="426" y="729"/>
      <point x="369" y="739"/>
      <point x="334" y="770" type="curve"/>
      <point x="369" y="788"/>
      <point x="395" y="848"/>
      <point x="395" y="887" type="curve" smooth="yes"/>
      <point x="395" y="918"/>
      <point x="381" y="940"/>
      <point x="350" y="940" type="curve" smooth="yes"/>
      <point x="227" y="940"/>
      <point x="156" y="852"/>
      <point x="156" y="764" type="curve" smooth="yes"/>
      <point x="156" y="743"/>
      <point x="186" y="680"/>
      <point x="322" y="647" type="curve"/>
      <point x="119" y="436" type="line"/>
      <point x="119" y="324" type="line"/>
      <point x="246" y="455"/>
      <point x="272" y="465"/>
      <point x="393" y="588" type="curve"/>
      <point x="360" y="510"/>
      <point x="211" y="186"/>
      <point x="211" y="102" type="curve" smooth="yes"/>
      <point x="211" y="41"/>
      <point x="236" y="-29"/>
      <point x="299" y="-29" type="curve"/>
      <point x="401" y="-29"/>
      <point x="616" y="164"/>
      <point x="780" y="328" type="curve"/>
      <point x="780" y="440" type="line"/>
      <point x="715" y="352"/>
      <point x="473" y="137"/>
      <point x="438" y="137" type="curve" smooth="yes"/>
      <point x="408" y="137"/>
      <point x="414" y="170"/>
      <point x="414" y="182" type="curve" smooth="yes"/>
      <point x="414" y="270"/>
      <point x="592" y="602"/>
    </contour>
  </outline>
</glyph>
<glyph name="s" format="1">
  <advance width="645"/>
  <unicode hex="0073"/>
  <outline>
    <contour>
      <point x="545" y="367" type="curve" smooth="yes"/>
      <point x="545" y="456.895"/>
      <point x="368.371" y="527.741"/>
      <point x="307" y="696" type="curve"/>
      <point x="406.167" y="696"/>
      <point x="545" y="737"/>
      <point x="545" y="827" type="curve" smooth="yes"/>
      <point x="545" y="858"/>
      <point x="502" y="862"/>
      <point x="482" y="862" type="curve" smooth="yes"/>
      <point x="231.976" y="862"/>
      <point x="125" y="751.352"/>
      <point x="125" y="623" type="curve" smooth="yes"/>
      <point x="125" y="575"/>
      <point x="133" y="524"/>
      <point x="152" y="477" type="curve"/>
      <point x="86" y="395"/>
      <point x="-86" y="254"/>
      <point x="-86" y="143" type="curve" smooth="yes"/>
      <point x="-86" y="6"/>
      <point x="80" y="-29"/>
      <point x="190" y="-29" type="curve" smooth="yes"/>
      <point x="383" y="-29"/>
      <point x="621" y="199"/>
      <point x="772" y="330" type="curve"/>
      <point x="772" y="440" type="line"/>
      <point x="475" y="197" type="line"/>
      <point x="524" y="264"/>
      <point x="545" y="317"/>
    </contour>
    <contour>
      <point x="195" y="399" type="curve"/>
      <point x="256" y="322"/>
      <point x="348" y="231"/>
      <point x="348" y="135" type="curve" smooth="yes"/>
      <point x="348" y="76"/>
      <point x="283" y="47"/>
      <point x="201" y="47" type="curve" smooth="yes"/>
      <point x="115" y="47"/>
      <point x="16" y="100"/>
      <point x="16" y="184" type="curve" smooth="yes"/>
      <point x="16" y="252"/>
      <point x="152" y="352"/>
    </contour>
  </outline>
</glyph>
<glyph name="t" format="1">
  <advance width="545"/>
  <unicode hex="0074"/>
  <outline>
    <contour>
      <point x="385" y="813" type="line"/>
      <point x="426" y="958"/>
      <point x="526" y="1227"/>
      <point x="526" y="1237" type="curve"/>
      <point x="522" y="1241" type="line"/>
      <point x="317" y="1241"/>
      <point x="256" y="1049"/>
      <point x="184" y="813" type="curve"/>
      <point x="100" y="805" type="line" smooth="yes"/>
      <point x="63" y="801"/>
      <point x="63" y="793"/>
      <point x="63" y="778" type="curve" smooth="yes"/>
      <point x="63" y="729"/>
      <point x="115" y="735"/>
      <point x="156" y="735" type="curve"/>
      <point x="94" y="471"/>
      <point x="90" y="479"/>
      <point x="61" y="332" type="curve" smooth="yes"/>
      <point x="53" y="289"/>
      <point x="35" y="211"/>
      <point x="35" y="137" type="curve" smooth="yes"/>
      <point x="35" y="47"/>
      <point x="59" y="-29"/>
      <point x="154" y="-29" type="curve" smooth="yes"/>
      <point x="313" y="-29"/>
      <point x="483" y="162"/>
      <point x="678" y="338" type="curve"/>
      <point x="678" y="451" type="line"/>
      <point x="489" y="272"/>
      <point x="334" y="141"/>
      <point x="297" y="141" type="curve" smooth="yes"/>
      <point x="250" y="141"/>
      <point x="248" y="184"/>
      <point x="248" y="233" type="curve" smooth="yes"/>
      <point x="248" y="313"/>
      <point x="367" y="745"/>
      <point x="369" y="745" type="curve" smooth="yes"/>
      <point x="467" y="745"/>
      <point x="645" y="748"/>
      <point x="668" y="791" type="curve"/>
      <point x="690" y="827" type="line"/>
    </contour>
  </outline>
</glyph>
<glyph name="u" format="1">
  <advance width="993"/>
  <unicode hex="0075"/>
  <outline>
    <contour>
      <point x="51" y="250" type="curve" smooth="yes"/>
      <point x="43" y="219"/>
      <point x="37" y="178"/>
      <point x="37" y="139" type="curve" smooth="yes"/>
      <point x="37" y="55"/>
      <point x="63" y="-29"/>
      <point x="154" y="-29" type="curve" smooth="yes"/>
      <point x="276" y="-29"/>
      <point x="428" y="82"/>
      <point x="545" y="195" type="curve"/>
      <point x="539" y="172"/>
      <point x="535" y="137"/>
      <point x="535" y="102" type="curve" smooth="yes"/>
      <point x="535" y="35"/>
      <point x="553" y="-29"/>
      <point x="621" y="-29" type="curve" smooth="yes"/>
      <point x="756" y="-29"/>
      <point x="948" y="174"/>
      <point x="1114" y="326" type="curve"/>
      <point x="1114" y="438" type="line"/>
      <point x="946" y="276"/>
      <point x="797" y="129"/>
      <point x="754" y="129" type="curve" smooth="yes"/>
      <point x="731" y="129"/>
      <point x="729" y="137"/>
      <point x="729" y="156" type="curve" smooth="yes"/>
      <point x="729" y="190"/>
      <point x="735" y="227"/>
      <point x="737" y="246" type="curve"/>
      <point x="760" y="348"/>
      <point x="887" y="807"/>
      <point x="887" y="807" type="curve"/>
      <point x="819" y="807" type="line" smooth="yes"/>
      <point x="748" y="807"/>
      <point x="698" y="813"/>
      <point x="666" y="688" type="curve" smooth="yes"/>
      <point x="557" y="272" type="line"/>
      <point x="541" y="240"/>
      <point x="401" y="145"/>
      <point x="317" y="145" type="curve" smooth="yes"/>
      <point x="279" y="145"/>
      <point x="250" y="164"/>
      <point x="250" y="219" type="curve" smooth="yes"/>
      <point x="250" y="309"/>
      <point x="414" y="797"/>
      <point x="414" y="807" type="curve"/>
      <point x="379" y="807" type="line" smooth="yes"/>
      <point x="350" y="807"/>
      <point x="221" y="807"/>
      <point x="217" y="782" type="curve"/>
      <point x="145" y="575"/>
      <point x="84" y="375"/>
    </contour>
  </outline>
</glyph>
<glyph name="v" format="1">
  <advance width="778"/>
  <unicode hex="0076"/>
  <outline>
    <contour>
      <point x="246" y="-29" type="curve" smooth="yes"/>
      <point x="422" y="-29"/>
      <point x="477" y="57"/>
      <point x="563" y="211" type="curve"/>
      <point x="582" y="170"/>
      <point x="612" y="119"/>
      <point x="639" y="119" type="curve" smooth="yes"/>
      <point x="702" y="119"/>
      <point x="807" y="229"/>
      <point x="907" y="334" type="curve"/>
      <point x="907" y="446" type="line"/>
      <point x="774" y="313"/>
      <point x="690" y="213"/>
      <point x="647" y="213" type="curve"/>
      <point x="647" y="213"/>
      <point x="647" y="229"/>
      <point x="627" y="268" type="curve"/>
      <point x="643" y="309"/>
      <point x="739" y="590"/>
      <point x="739" y="743" type="curve" smooth="yes"/>
      <point x="739" y="801"/>
      <point x="725" y="840"/>
      <point x="688" y="840" type="curve" smooth="yes"/>
      <point x="569" y="840"/>
      <point x="522" y="528"/>
      <point x="522" y="348" type="curve" smooth="yes"/>
      <point x="522" y="326"/>
      <point x="522" y="319"/>
      <point x="524" y="319" type="curve"/>
      <point x="496" y="276"/>
      <point x="414" y="117"/>
      <point x="375" y="117" type="curve" smooth="yes"/>
      <point x="326" y="117"/>
      <point x="274" y="285"/>
      <point x="274" y="479" type="curve" smooth="yes"/>
      <point x="274" y="590"/>
      <point x="293" y="743"/>
      <point x="305" y="807" type="curve"/>
      <point x="225" y="807" type="line" smooth="yes"/>
      <point x="227" y="807"/>
      <point x="74" y="807"/>
      <point x="68" y="758" type="curve"/>
      <point x="55" y="668"/>
      <point x="55" y="580"/>
      <point x="55" y="543" type="curve" smooth="yes"/>
      <point x="55" y="248"/>
      <point x="119" y="-29"/>
    </contour>
  </outline>
</glyph>
<glyph name="w" format="1">
  <advance width="1204"/>
  <unicode hex="0077"/>
  <outline>
    <contour>
      <point x="668" y="-29" type="curve" smooth="yes"/>
      <point x="819" y="-29"/>
      <point x="928" y="94"/>
      <point x="985" y="229" type="curve"/>
      <point x="1012" y="190"/>
      <point x="1036" y="174"/>
      <point x="1061" y="174" type="curve" smooth="yes"/>
      <point x="1116" y="174"/>
      <point x="1176" y="252"/>
      <point x="1262" y="328" type="curve"/>
      <point x="1262" y="442" type="line"/>
      <point x="1149" y="326"/>
      <point x="1098" y="279"/>
      <point x="1065" y="279" type="curve" smooth="yes"/>
      <point x="1049" y="279"/>
      <point x="1036" y="291"/>
      <point x="1026" y="315" type="curve"/>
      <point x="1026" y="315"/>
      <point x="1120" y="535"/>
      <point x="1120" y="647" type="curve" smooth="yes"/>
      <point x="1120" y="715"/>
      <point x="1102" y="840"/>
      <point x="1069" y="840" type="curve" smooth="yes"/>
      <point x="907" y="840"/>
      <point x="915" y="389"/>
      <point x="895" y="297" type="curve"/>
      <point x="881" y="193"/>
      <point x="799" y="100"/>
      <point x="748" y="100" type="curve" smooth="yes"/>
      <point x="688" y="100"/>
      <point x="651" y="152"/>
      <point x="651" y="246" type="curve" smooth="yes"/>
      <point x="651" y="287"/>
      <point x="723" y="457"/>
      <point x="723" y="553" type="curve" smooth="yes"/>
      <point x="723" y="596"/>
      <point x="709" y="625"/>
      <point x="672" y="625" type="curve" smooth="yes"/>
      <point x="541" y="625"/>
      <point x="477" y="272"/>
      <point x="477" y="174" type="curve" smooth="yes"/>
      <point x="477" y="160" type="line"/>
      <point x="436" y="123"/>
      <point x="387" y="100"/>
      <point x="350" y="100" type="curve" smooth="yes"/>
      <point x="291" y="100"/>
      <point x="254" y="152"/>
      <point x="254" y="246" type="curve" smooth="yes"/>
      <point x="254" y="434"/>
      <point x="369" y="717"/>
      <point x="391" y="807" type="curve"/>
      <point x="332" y="807" type="line" smooth="yes"/>
      <point x="303" y="807"/>
      <point x="201" y="809"/>
      <point x="174" y="729" type="curve" smooth="yes"/>
      <point x="90" y="477"/>
      <point x="39" y="272"/>
      <point x="39" y="174" type="curve" smooth="yes"/>
      <point x="39" y="63"/>
      <point x="109" y="-29"/>
      <point x="229" y="-29" type="curve" smooth="yes"/>
      <point x="338" y="-29"/>
      <point x="428" y="14"/>
      <point x="496" y="78" type="curve"/>
      <point x="524" y="14"/>
      <point x="584" y="-29"/>
    </contour>
  </outline>
</glyph>
<glyph name="x" format="1">
  <advance width="903"/>
  <unicode hex="0078"/>
  <outline>
    <contour>
      <point x="172" y="133" type="line" smooth="yes"/>
      <point x="125" y="76"/>
      <point x="27" y="45"/>
      <point x="27" y="10" type="curve" smooth="yes"/>
      <point x="27" y="-29"/>
      <point x="51" y="-55"/>
      <point x="90" y="-55" type="curve" smooth="yes"/>
      <point x="137" y="-55"/>
      <point x="199" y="-18"/>
      <point x="274" y="78" type="curve"/>
      <point x="317" y="131"/>
      <point x="365" y="190"/>
      <point x="414" y="248" type="curve"/>
      <point x="489" y="102" type="line" smooth="yes"/>
      <point x="528" y="27"/>
      <point x="559" y="-29"/>
      <point x="604" y="-29" type="curve" smooth="yes"/>
      <point x="686" y="-29"/>
      <point x="838" y="152"/>
      <point x="1028" y="328" type="curve"/>
      <point x="1028" y="444" type="line"/>
      <point x="934" y="342"/>
      <point x="762" y="174"/>
      <point x="723" y="174" type="curve" smooth="yes"/>
      <point x="721" y="174"/>
      <point x="719" y="174"/>
      <point x="717" y="176" type="curve" smooth="yes"/>
      <point x="676" y="219"/>
      <point x="621" y="319"/>
      <point x="565" y="428" type="curve"/>
      <point x="639" y="514"/>
      <point x="707" y="594"/>
      <point x="752" y="651" type="curve" smooth="yes"/>
      <point x="797" y="709"/>
      <point x="897" y="735"/>
      <point x="897" y="774" type="curve" smooth="yes"/>
      <point x="897" y="813"/>
      <point x="872" y="840"/>
      <point x="834" y="840" type="curve" smooth="yes"/>
      <point x="788" y="840"/>
      <point x="721" y="803"/>
      <point x="649" y="707" type="curve"/>
      <point x="510" y="539" type="line"/>
      <point x="449" y="662"/>
      <point x="399" y="774"/>
      <point x="387" y="797" type="curve"/>
      <point x="373" y="821"/>
      <point x="344" y="838"/>
      <point x="309" y="838" type="curve" smooth="yes"/>
      <point x="213" y="838"/>
      <point x="53" y="672"/>
      <point x="-29" y="571" type="curve"/>
      <point x="-6" y="516" type="line"/>
      <point x="35" y="561"/>
      <point x="158" y="670"/>
      <point x="180" y="670" type="curve" smooth="yes"/>
      <point x="195" y="670"/>
      <point x="203" y="657"/>
      <point x="209" y="645" type="curve" smooth="yes"/>
      <point x="358" y="356" type="line"/>
    </contour>
  </outline>
</glyph>
<glyph name="y" format="1">
  <advance width="860"/>
  <unicode hex="0079"/>
  <outline>
    <contour>
      <point x="473" y="35" type="line"/>
      <point x="172" y="-156" type="line"/>
      <point x="84" y="-205"/>
      <point x="16" y="-258"/>
      <point x="16" y="-332" type="curve" smooth="yes"/>
      <point x="16" y="-430"/>
      <point x="121" y="-489"/>
      <point x="205" y="-489" type="curve" smooth="yes"/>
      <point x="371" y="-489"/>
      <point x="586" y="-330"/>
      <point x="649" y="23" type="curve"/>
      <point x="649" y="27" type="line"/>
      <point x="983" y="328" type="line"/>
      <point x="983" y="440" type="line"/>
      <point x="879" y="340"/>
      <point x="811" y="285"/>
      <point x="678" y="174" type="curve" smooth="yes"/>
      <point x="666" y="164" type="line"/>
      <point x="664" y="154"/>
      <point x="811" y="709"/>
      <point x="846" y="807" type="curve"/>
      <point x="778" y="807" type="line" smooth="yes"/>
      <point x="707" y="807"/>
      <point x="657" y="813"/>
      <point x="625" y="688" type="curve" smooth="yes"/>
      <point x="516" y="272" type="line"/>
      <point x="500" y="240"/>
      <point x="360" y="145"/>
      <point x="276" y="145" type="curve" smooth="yes"/>
      <point x="238" y="145"/>
      <point x="209" y="164"/>
      <point x="209" y="219" type="curve" smooth="yes"/>
      <point x="209" y="309"/>
      <point x="373" y="797"/>
      <point x="373" y="807" type="curve"/>
      <point x="338" y="807" type="line" smooth="yes"/>
      <point x="309" y="807"/>
      <point x="180" y="807"/>
      <point x="176" y="782" type="curve"/>
      <point x="78" y="502"/>
      <point x="-4" y="256"/>
      <point x="-4" y="139" type="curve" smooth="yes"/>
      <point x="-4" y="55"/>
      <point x="23" y="-29"/>
      <point x="113" y="-29" type="curve" smooth="yes"/>
      <point x="236" y="-29"/>
      <point x="389" y="82"/>
      <point x="506" y="195" type="curve"/>
    </contour>
    <contour>
      <point x="461" y="-88" type="line"/>
      <point x="434" y="-274"/>
      <point x="365" y="-420"/>
      <point x="240" y="-420" type="curve" smooth="yes"/>
      <point x="190" y="-420"/>
      <point x="166" y="-391"/>
      <point x="166" y="-338" type="curve" smooth="yes"/>
      <point x="166" y="-274"/>
      <point x="225" y="-236"/>
      <point x="276" y="-205" type="curve"/>
    </contour>
  </outline>
</glyph>
<glyph name="z" format="1">
  <advance width="737"/>
  <unicode hex="007A"/>
  <outline>
    <contour>
      <point x="158" y="-535" type="curve"/>
      <point x="387" y="-518"/>
      <point x="549" y="-264"/>
      <point x="575" y="63" type="curve"/>
      <point x="575" y="63"/>
      <point x="678" y="141"/>
      <point x="913" y="379" type="curve"/>
      <point x="872" y="453" type="line"/>
      <point x="780" y="362"/>
      <point x="637" y="211"/>
      <point x="545" y="152" type="curve"/>
      <point x="545" y="152"/>
      <point x="543" y="190"/>
      <point x="481" y="213" type="curve"/>
      <point x="504" y="260"/>
      <point x="541" y="332"/>
      <point x="578" y="418" type="curve"/>
      <point x="713" y="700" type="line" smooth="yes"/>
      <point x="715" y="702"/>
      <point x="715" y="707"/>
      <point x="715" y="713" type="curve" smooth="yes"/>
      <point x="715" y="725"/>
      <point x="709" y="743"/>
      <point x="688" y="743" type="curve" smooth="yes"/>
      <point x="655" y="743"/>
      <point x="598" y="729"/>
      <point x="569" y="729" type="curve" smooth="yes"/>
      <point x="500" y="729"/>
      <point x="444" y="741"/>
      <point x="414" y="772" type="curve"/>
      <point x="414" y="772"/>
      <point x="475" y="805"/>
      <point x="475" y="891" type="curve" smooth="yes"/>
      <point x="475" y="928"/>
      <point x="444" y="940"/>
      <point x="424" y="940" type="curve" smooth="yes"/>
      <point x="303" y="940"/>
      <point x="236" y="838"/>
      <point x="236" y="770" type="curve" smooth="yes"/>
      <point x="236" y="692"/>
      <point x="266" y="659"/>
      <point x="309" y="637" type="curve"/>
      <point x="115" y="432" type="line"/>
      <point x="115" y="322" type="line"/>
      <point x="207" y="414"/>
      <point x="328" y="526"/>
      <point x="377" y="575" type="curve"/>
      <point x="438" y="561" type="line"/>
      <point x="360" y="385"/>
      <point x="244" y="156"/>
      <point x="244" y="111" type="curve" smooth="yes"/>
      <point x="244" y="96"/>
      <point x="340" y="82"/>
      <point x="389" y="70" type="curve"/>
      <point x="90" y="-27"/>
      <point x="-84" y="-154"/>
      <point x="-84" y="-369" type="curve" smooth="yes"/>
      <point x="-84" y="-467"/>
      <point x="4" y="-535"/>
    </contour>
    <contour>
      <point x="451" y="-4" type="curve"/>
      <point x="444" y="-184"/>
      <point x="281" y="-428"/>
      <point x="174" y="-428" type="curve" smooth="yes"/>
      <point x="109" y="-428"/>
      <point x="90" y="-362"/>
      <point x="90" y="-311" type="curve" smooth="yes"/>
      <point x="90" y="-76"/>
      <point x="236" y="-119"/>
    </contour>
  </outline>
</glyph>
<glyph name="braceleft" format="1">
  <advance width="813"/>
  <unicode hex="007B"/>
  <outline>
    <contour>
      <point x="88" y="360" type="curve" smooth="yes"/>
      <point x="88" y="346"/>
      <point x="86" y="334"/>
      <point x="86" y="319" type="curve" smooth="yes"/>
      <point x="86" y="80"/>
      <point x="174" y="-131"/>
      <point x="369" y="-131" type="curve" smooth="yes"/>
      <point x="399" y="-131"/>
      <point x="432" y="-127"/>
      <point x="469" y="-115" type="curve"/>
      <point x="481" y="-20" type="line"/>
      <point x="463" y="-29"/>
      <point x="444" y="-31"/>
      <point x="428" y="-31" type="curve" smooth="yes"/>
      <point x="324" y="-31"/>
      <point x="291" y="115"/>
      <point x="291" y="281" type="curve" smooth="yes"/>
      <point x="291" y="406"/>
      <point x="319" y="543"/>
      <point x="319" y="639" type="curve" smooth="yes"/>
      <point x="319" y="698"/>
      <point x="299" y="739"/>
      <point x="225" y="782" type="curve"/>
      <point x="307" y="801"/>
      <point x="362" y="823"/>
      <point x="397" y="985" type="curve"/>
      <point x="438" y="1184"/>
      <point x="561" y="1481"/>
      <point x="731" y="1481" type="curve" smooth="yes"/>
      <point x="745" y="1481"/>
      <point x="762" y="1479"/>
      <point x="780" y="1473" type="curve"/>
      <point x="801" y="1587" type="line"/>
      <point x="774" y="1591"/>
      <point x="748" y="1593"/>
      <point x="723" y="1593" type="curve" smooth="yes"/>
      <point x="442" y="1593"/>
      <point x="299" y="1348"/>
      <point x="219" y="1047" type="curve" smooth="yes"/>
      <point x="195" y="954"/>
      <point x="199" y="885"/>
      <point x="139" y="885" type="curve" smooth="yes"/>
      <point x="109" y="885"/>
      <point x="92" y="885"/>
      <point x="61" y="887" type="curve"/>
      <point x="35" y="711" type="line"/>
      <point x="80" y="694"/>
      <point x="121" y="739"/>
      <point x="121" y="629" type="curve"/>
      <point x="117" y="532"/>
      <point x="92" y="449"/>
    </contour>
  </outline>
</glyph>
<glyph name="bar" format="1">
  <advance width="739"/>
  <unicode hex="007C"/>
  <outline>
    <contour>
      <point x="459" y="1374" type="curve" smooth="yes"/>
      <point x="449" y="1331"/>
      <point x="152" y="119"/>
      <point x="119" y="-33" type="curve" smooth="yes"/>
      <point x="109" y="-80"/>
      <point x="90" y="-170"/>
      <point x="90" y="-170" type="curve"/>
      <point x="203" y="-170" type="line" smooth="yes"/>
      <point x="264" y="-170"/>
      <point x="256" y="-92"/>
      <point x="268" y="-43" type="curve" smooth="yes"/>
      <point x="645" y="1513" type="line" smooth="yes"/>
      <point x="645" y="1516"/>
      <point x="625" y="1518"/>
      <point x="573" y="1518" type="curve" smooth="yes"/>
      <point x="483" y="1518"/>
      <point x="487" y="1499"/>
    </contour>
  </outline>
</glyph>
